<svg xmlns="http://www.w3.org/2000/svg" viewBox="0 0 750 500"><g id="freepik--background-complete--inject-176"><rect x="56.19" y="54.05" width="90.21" height="130.76" style="fill:#e0e0e0"></rect><rect x="51.67" y="54.05" width="90.21" height="130.76" style="fill:#f5f5f5"></rect><rect x="62.88" y="68.21" width="67.8" height="102.44" style="fill:#fff"></rect><path d="M130.68,170.65s0-.18,0-.5,0-.82,0-1.46c0-1.28,0-3.17,0-5.61,0-4.91,0-12.07-.06-21.11,0-18.06-.06-43.64-.11-73.76l.23.23-67.79,0h0l.24-.25c0,38.64,0,74.27,0,102.44l-.2-.2,49.35.1,13.63,0,3.58,0c.81,0,1.24,0,1.24,0l-1.2,0-3.54,0-13.59.05-49.47.1h-.2v-.19c0-28.17,0-63.8,0-102.44V68h.26l67.79,0h.22v.22c0,30.18-.08,55.81-.11,73.91,0,9,0,16.15-.06,21,0,2.43,0,4.3,0,5.58,0,.62,0,1.09,0,1.42S130.68,170.65,130.68,170.65Z" style="fill:#e0e0e0"></path><path d="M142.14,54.05a16,16,0,0,1-1.61,2.33c-1.05,1.41-2.53,3.31-4.23,5.37s-3.29,3.89-4.46,5.19a15.6,15.6,0,0,1-2,2,17.49,17.49,0,0,1,1.73-2.25l4.34-5.27,4.34-5.27A16.35,16.35,0,0,1,142.14,54.05Z" style="fill:#e0e0e0"></path><path d="M131,170.32a84.67,84.67,0,0,0,11.83,14.79" style="fill:#fff"></path><path d="M142.85,185.11a13.8,13.8,0,0,1-2.06-1.88,63.13,63.13,0,0,1-4.46-5,63.89,63.89,0,0,1-3.93-5.46,13.79,13.79,0,0,1-1.38-2.42,18.4,18.4,0,0,1,1.67,2.23c1,1.39,2.39,3.3,4,5.34s3.19,3.83,4.33,5.1A19.24,19.24,0,0,1,142.85,185.11Z" style="fill:#e0e0e0"></path><path d="M51.66,184.71l11.81-14.58" style="fill:#fff"></path><path d="M63.47,170.13a88.54,88.54,0,0,1-5.71,7.44c-3.27,4-6,7.22-6.1,7.14a86.64,86.64,0,0,1,5.72-7.45A91.18,91.18,0,0,1,63.47,170.13Z" style="fill:#e0e0e0"></path><path d="M51.67,54.05a78.24,78.24,0,0,1,5.74,6.85,83.21,83.21,0,0,1,5.35,7.17A81.32,81.32,0,0,1,57,61.21,81.55,81.55,0,0,1,51.67,54.05Z" style="fill:#e0e0e0"></path><rect x="86.85" y="89.01" width="22.7" height="64.46" style="fill:#e0e0e0"></rect><path d="M94.77,352.88a35.31,35.31,0,0,1,9.39-23.33C107,341.26,94.77,352.88,94.77,352.88Z" style="fill:#ebebeb"></path><path d="M108.41,346.28a35.28,35.28,0,0,1,25.14-.7C124,352.85,108.41,346.28,108.41,346.28Z" style="fill:#ebebeb"></path><path d="M110,338.69a27.84,27.84,0,0,1,3.42-19.54C117.5,327.72,110,338.69,110,338.69Z" style="fill:#ebebeb"></path><path d="M57.23,311.32C77.16,316.63,87.86,334,87.86,334,70.82,334,57.23,311.32,57.23,311.32Z" style="fill:#ebebeb"></path><path d="M89.07,319.49c-1-21.49,20-45.8,20-45.8-3.17,26.67-20,45.8-20,45.8" style="fill:#ebebeb"></path><path d="M89,258.3a57.46,57.46,0,0,1-7.55,30.77C78.45,275.25,89,258.3,89,258.3Z" style="fill:#ebebeb"></path><path d="M80.87,302c-15.71-1.68-24.26-17.31-24.26-17.31C75.61,290,80.87,302,80.87,302Z" style="fill:#ebebeb"></path><path d="M47,367.64a35.32,35.32,0,0,1,24.7-4.76C63.39,371.61,47,367.64,47,367.64Z" style="fill:#ebebeb"></path><path d="M87.69,374.69a23.12,23.12,0,0,1-10.55,11.89C77.81,379.33,87.69,374.69,87.69,374.69Z" style="fill:#ebebeb"></path><path d="M85.67,372.38c-8.93,5.5-18.79,3.35-18.79,3.35C72.93,369.43,85.67,372.38,85.67,372.38Z" style="fill:#ebebeb"></path><path d="M93.7,401.3a1.34,1.34,0,0,1,0-.32c0-.25,0-.56,0-.94,0-.88,0-2.08,0-3.6s0-3.47,0-5.69,0-4.75-.16-7.54c-.13-5.59-.53-12.23-1.1-19.59s-1.53-15.43-2.76-23.87C87.11,322.88,83.71,307.8,81,297c-1.38-5.42-2.53-9.79-3.38-12.8-.39-1.46-.71-2.62-.94-3.47l-.22-.91a1.31,1.31,0,0,1-.06-.32,1.44,1.44,0,0,1,.12.3l.3.89c.26.84.62,2,1.06,3.44.93,3,2.16,7.34,3.6,12.75a398.34,398.34,0,0,1,8.82,42.81c1.23,8.45,2.1,16.54,2.71,23.91s.88,14,1,19.64c.09,2.79.06,5.32.06,7.55s0,4.13-.09,5.69-.1,2.72-.13,3.61c0,.37,0,.68-.05.93A1,1,0,0,1,93.7,401.3Z" style="fill:#e0e0e0"></path><path d="M64.87,355.82c.11-.16,6.46,4,14.18,9.29s13.89,9.72,13.78,9.88-6.45-4-14.18-9.3S64.76,356,64.87,355.82Z" style="fill:#e0e0e0"></path><path d="M92.83,358.11a6,6,0,0,1,1-1.07l2.83-2.72,9.44-8.86,9.44-8.85,2.86-2.68a6.13,6.13,0,0,1,1.11-.93,5.26,5.26,0,0,1-.91,1.12c-.62.69-1.55,1.66-2.71,2.85-2.33,2.36-5.61,5.55-9.31,9s-7.1,6.52-9.59,8.71c-1.24,1.09-2.26,2-3,2.56A5.06,5.06,0,0,1,92.83,358.11Z" style="fill:#e0e0e0"></path><path d="M44.7,345.64s16.24-.31,23.1,12.47A29.27,29.27,0,0,1,44.7,345.64Z" style="fill:#ebebeb"></path><path d="M66.87,339.12S80.09,348.55,78,362.9A29.25,29.25,0,0,1,66.87,339.12Z" style="fill:#ebebeb"></path><path d="M136.5,315.89s-5.22,18.17-21.79,21.44A34.06,34.06,0,0,1,136.5,315.89Z" style="fill:#ebebeb"></path><path d="M59.66,248.33s20.72,13.51,18.42,35.49A44.56,44.56,0,0,1,59.66,248.33Z" style="fill:#ebebeb"></path><path d="M128.6,368.5a8.41,8.41,0,0,1-1.35,1.08c-.89.65-2.17,1.61-3.71,2.84A90.92,90.92,0,0,0,103,395.24c-1.05,1.67-1.87,3-2.42,4a8.91,8.91,0,0,1-.93,1.45,8.15,8.15,0,0,1,.69-1.58c.47-1,1.23-2.42,2.24-4.13a79.25,79.25,0,0,1,20.61-23c1.6-1.19,2.92-2.1,3.87-2.68A8.46,8.46,0,0,1,128.6,368.5Z" style="fill:#e0e0e0"></path><path d="M110.57,382a35.32,35.32,0,0,1,4.76-24.7C117.56,372.7,110.57,382,110.57,382Z" style="fill:#ebebeb"></path><path d="M124.51,374.4a25.68,25.68,0,0,1,18.08-2.8C132.59,376.9,124.51,374.4,124.51,374.4Z" style="fill:#ebebeb"></path><polygon points="63.5 402.99 71.28 454.06 116.42 454.06 126.9 403.73 63.5 402.99" style="fill:#ebebeb"></polygon><path d="M120.59,435.72c0,.14-11.57.26-25.84.26s-25.84-.12-25.84-.26,11.57-.27,25.84-.27S120.59,435.57,120.59,435.72Z" style="fill:#fafafa"></path><path d="M120.76,433.21c0,.14-11.65.26-26,.26s-26-.12-26-.26,11.64-.27,26-.27S120.76,433.06,120.76,433.21Z" style="fill:#fafafa"></path><path d="M120.67,430.37c0,.15-11.64.26-26,.26s-26-.11-26-.26,11.64-.27,26-.27S120.67,430.22,120.67,430.37Z" style="fill:#fafafa"></path><path d="M76.46,451.14a41.52,41.52,0,0,1-1.38-6.43,42.09,42.09,0,0,1-.87-6.52,39.82,39.82,0,0,1,1.39,6.43A41.57,41.57,0,0,1,76.46,451.14Z" style="fill:#fafafa"></path><path d="M79.53,450.6A146.27,146.27,0,0,1,78.68,438a50.33,50.33,0,0,1,.85,12.57Z" style="fill:#fafafa"></path><path d="M85.13,450.6a50.68,50.68,0,0,1-1.52-13,56.79,56.79,0,0,1,.87,6.47A55.26,55.26,0,0,1,85.13,450.6Z" style="fill:#fafafa"></path><path d="M89.06,450.87a51.94,51.94,0,0,1-.43-13.1,56,56,0,0,1,.33,6.54A55.46,55.46,0,0,1,89.06,450.87Z" style="fill:#fafafa"></path><path d="M96,450.6a38.38,38.38,0,0,1-.47-6.2,37.41,37.41,0,0,1,0-6.23A71.74,71.74,0,0,1,96,450.6Z" style="fill:#fafafa"></path><path d="M101.09,450.87a40,40,0,0,1-.21-6.42,38.53,38.53,0,0,1,.32-6.41,77.77,77.77,0,0,1-.11,12.83Z" style="fill:#fafafa"></path><path d="M105.86,450.19a41.51,41.51,0,0,1,.38-6.71,42,42,0,0,1,.92-6.66,43.76,43.76,0,0,1-.39,6.71A44.26,44.26,0,0,1,105.86,450.19Z" style="fill:#fafafa"></path><path d="M112,449.52a22.75,22.75,0,0,1,.76-5.71,22.23,22.23,0,0,1,1.68-5.5,51.62,51.62,0,0,1-1.16,5.62A52,52,0,0,1,112,449.52Z" style="fill:#fafafa"></path><path d="M58.32,392.88v9.55a3.76,3.76,0,0,0,3.77,3.76h65.37a3.76,3.76,0,0,0,3.76-3.76v-9.55Z" style="fill:#ebebeb"></path><polygon points="63.99 406.19 64.53 409.24 124.86 413.54 126.39 406.19 63.99 406.19" style="fill:#e0e0e0"></polygon><rect x="274.56" y="54.05" width="105.44" height="109.1" style="fill:#e0e0e0"></rect><path d="M281.29,140.61c.54,6.12,1.54,14.14,2.62,22.54h34.85c1.09-15.13,3.54-34.89,8.44-34.8,4.89-.09,7.34,19.67,8.44,34.8h35.22c1.18-8.4,2.25-16.42,2.79-22.54,3.18-35.91-9-52.44-9.6-86.56H290.2C287.83,88.12,278.12,104.7,281.29,140.61Z" style="fill:#f5f5f5"></path><path d="M362.88,117.83c-2.77-1.24-2.63,1.15-5.64-.42-2-1-2.53-3.23-3.43-5.09a10.79,10.79,0,0,0,.9-2.91c.21-1.46,0-3,.23-4.41a4,4,0,0,1,2.57-3.42c1-.28,2.14-.06,3-.63a3.29,3.29,0,0,0,1.07-1.69,45.38,45.38,0,0,0,2.19-8.88,8.4,8.4,0,0,0-.25-4.51c-.85-2-2.95-3.22-4.92-4.31-2.94-1.62-6-3.28-9.41-3.44S342,79.85,341.39,83a12.39,12.39,0,0,1-.5,3,5.08,5.08,0,0,1-3.23,2.29,14.21,14.21,0,0,1-6,.39,12,12,0,0,1-.12-2.47,1.75,1.75,0,0,1,.12-.65,1,1,0,0,1,.87-.49,7.93,7.93,0,0,1,3.06.27,1,1,0,0,0,.8,0c.55-.3.49-1.34.33-2.09a1.11,1.11,0,0,0-.28-.66.65.65,0,0,0-.47-.09l-3.76.3a.41.41,0,0,1-.34-.07c-.27-.23-.09-.92-.38-1.12s-.41.08-.57.27a5.56,5.56,0,0,1-2.79,1.75c-.45.11-2,0-2.76,0a5.2,5.2,0,0,1-.75-.06,5.52,5.52,0,0,1-2.79-1.75c-.16-.19-.38-.4-.58-.27s-.1.89-.37,1.12a.42.42,0,0,1-.34.07l-3.77-.3a.62.62,0,0,0-.46.09,1.12,1.12,0,0,0-.29.66c-.16.75-.22,1.79.34,2.09a1,1,0,0,0,.8,0,7.88,7.88,0,0,1,3.05-.27,1,1,0,0,1,.88.49,1.75,1.75,0,0,1,.12.65,11.44,11.44,0,0,1-.13,2.48,14.17,14.17,0,0,1-6-.39A5.05,5.05,0,0,1,311.82,86a11.92,11.92,0,0,1-.51-3c-.61-3.15-4.37-5-7.77-4.88s-6.48,1.82-9.41,3.44c-2,1.09-4.07,2.31-4.92,4.31a8.5,8.5,0,0,0-.26,4.51,45.4,45.4,0,0,0,2.2,8.88,3.16,3.16,0,0,0,1.07,1.69c.83.57,2,.35,3,.63a4.07,4.07,0,0,1,2.57,3.42c.23,1.46,0,3,.22,4.41a16,16,0,0,0,2,5.09c.19.35.38.7.56,1.06a5.41,5.41,0,0,1-2.32,2.6c-3,1.56-2.87-.84-5.64.41-4,1.78-3.23,4.94-1.6,8.41a30.15,30.15,0,0,1,2.34,7.39,61.77,61.77,0,0,1,.72,7.81q.51,10.48,1,21H302q-.17-13.82-.34-27.62c0-3.61,0-7.54,2.18-10.37a11.36,11.36,0,0,1,1.15-1.25l2.56,4.82c1,1.94,2.72,4.2,5,3.75a5.91,5.91,0,0,0,2.61-1.69,25.5,25.5,0,0,1,8.51-5.08,8.11,8.11,0,0,0,2.23-1,1.74,1.74,0,0,1-.19.54c-.24.42-.4.75.09,1.13a1.76,1.76,0,0,0,.94.31,4.23,4.23,0,0,0,2-.3,1.72,1.72,0,0,0-.2-.88l.65.23a25.4,25.4,0,0,1,8.51,5.08,6,6,0,0,0,2.61,1.69c2.24.45,3.94-1.81,5-3.75l3.69-7a17.28,17.28,0,0,1,2.75,2.65c2.17,2.83,2.22,6.76,2.17,10.37q-.21,14.17-.4,28.37h6.88l1.11-21.7a60.14,60.14,0,0,1,.73-7.82,30.26,30.26,0,0,1,2.36-7.38C366.1,122.78,366.85,119.62,362.88,117.83ZM318,123.07a7.27,7.27,0,0,1-3.35,1.92,25.88,25.88,0,0,1-2.58.7,1.93,1.93,0,0,1-1.28,0,1.83,1.83,0,0,1-.72-.81,31,31,0,0,1-1.81-3.54c0-.08-.07-.16-.11-.25a6.82,6.82,0,0,0,1.49-2.18,3.2,3.2,0,0,0,.2-1.23,4.15,4.15,0,0,1,3.43,0c.82.42,1.49,1.1,2.3,1.54.62.34,1.31.54,1.91.91a2,2,0,0,1,1.09,1.71A2.07,2.07,0,0,1,318,123.07Zm9.52-5.07a.59.59,0,0,0-.18-.28.77.77,0,0,0-.48-.1c-.34,0-.75,0-.93.35-2.71.12-5.53.14-7.92-1a16.14,16.14,0,0,1-5-4.57l-2.65-3.24a14,14,0,0,1-.87-1.16,5.11,5.11,0,0,1-1.39-3.09c-.26-2.72,1.31-5.36,3.41-7.09a24.72,24.72,0,0,1,7.25-3.65,1.12,1.12,0,0,1,.91-.07,1.14,1.14,0,0,1,.45.67,13.89,13.89,0,0,1,.67,3.26,1.05,1.05,0,0,1-.09.66.92.92,0,0,1-.48.31,6.08,6.08,0,0,0-1.46.54c-.43.3-.69,1-.34,1.36s.81.27,1.25.33a2.27,2.27,0,0,1,1.44,3.42c-.35.47-.91.84-.95,1.43-.11,1.29,2.18,1.49,2.43,2.77a.82.82,0,0,0-.7,1.21,3.09,3.09,0,0,0,.52.5c.65.64.6,1.68.81,2.57.4,1.65,1.75,2.83,3.09,3.87v.16a11.43,11.43,0,0,0,1.54-.47l-.36,0c1.35-1.24,2.78-2.63,3.05-4.45.13-.91,0-1.95.58-2.64a3.51,3.51,0,0,0,.47-.55.83.83,0,0,0-.81-1.14c.12-1.29,2.39-1.71,2.17-3-.11-.57-.69-.89-1.08-1.33a2.27,2.27,0,0,1,1.12-3.54c.43-.1.94-.09,1.21-.44a1,1,0,0,0-.46-1.32,5.43,5.43,0,0,0-1.51-.4,1,1,0,0,1-.5-.27,1.09,1.09,0,0,1-.16-.64,13.75,13.75,0,0,1,.38-3.32,1.08,1.08,0,0,1,.38-.71,1.17,1.17,0,0,1,.92,0,24.92,24.92,0,0,1,7.55,3,8.57,8.57,0,0,1,4.05,6.75,5.14,5.14,0,0,1-.95,3c.1,1.25-.79,2.46-1.63,3.49l-2.66,3.24a16,16,0,0,1-5,4.57A14.78,14.78,0,0,1,327.55,118Zm17.73,3.31a31,31,0,0,1-1.81,3.54,1.83,1.83,0,0,1-.72.81,1.93,1.93,0,0,1-1.28,0,25.88,25.88,0,0,1-2.58-.7,7.22,7.22,0,0,1-3.35-1.92,2.14,2.14,0,0,1-.58-1.22,2.05,2.05,0,0,1,1.1-1.71c.6-.37,1.29-.57,1.91-.91.81-.44,1.48-1.12,2.3-1.54a4.55,4.55,0,0,1,4.15.27,2.22,2.22,0,0,1,1.23,1.43A3.11,3.11,0,0,1,345.28,121.31Z" style="fill:#ebebeb"></path><path d="M315.8,75.43a1.37,1.37,0,0,0,.8,0,10.08,10.08,0,0,1,3-.2,1.14,1.14,0,0,1,.88.37,1,1,0,0,1,.12.48,6.64,6.64,0,0,1-.35,2.69,1.16,1.16,0,0,0-.1.77,1,1,0,0,0,.37.4,9.24,9.24,0,0,0,4.54,1.76.81.81,0,0,0,.38.07l.45,0h.2a1,1,0,0,0,.3,0,9.33,9.33,0,0,0,4.61-1.77,1,1,0,0,0,.37-.4,1.1,1.1,0,0,0-.09-.77,6.64,6.64,0,0,1-.35-2.69,1,1,0,0,1,.12-.49,1.16,1.16,0,0,1,.87-.36,10.15,10.15,0,0,1,3.06.2,1.37,1.37,0,0,0,.8,0c.55-.22.49-1,.33-1.55a.74.74,0,0,0-.28-.49.83.83,0,0,0-.47-.06l-3.76.22a.56.56,0,0,1-.34,0c-.27-.18-.09-.69-.38-.84s-.41.06-.57.2a6,6,0,0,1-2.79,1.3c-.15,0-.4,0-.69.08a17.46,17.46,0,0,1-2.82-.09,5.89,5.89,0,0,1-2.79-1.3c-.16-.14-.38-.3-.58-.2s-.1.66-.37.84a.57.57,0,0,1-.34,0l-3.77-.22a.79.79,0,0,0-.46.06.75.75,0,0,0-.29.49C315.31,74.44,315.24,75.21,315.8,75.43Z" style="fill:#ebebeb"></path><path d="M316.38,66.32a1.17,1.17,0,0,0,.76,0,9.36,9.36,0,0,1,2.89-.2,1,1,0,0,1,.83.37A1.26,1.26,0,0,1,321,67a7.2,7.2,0,0,1-.34,2.69,1.22,1.22,0,0,0-.09.77,1.15,1.15,0,0,0,.35.41,8.61,8.61,0,0,0,4.18,1.74.71.71,0,0,0,.38.08l.47,0h.24a.79.79,0,0,0,.34-.06,8.5,8.5,0,0,0,4.21-1.75.9.9,0,0,0,.35-.4,1.21,1.21,0,0,0-.08-.77,7,7,0,0,1-.34-2.69,1,1,0,0,1,.12-.48,1,1,0,0,1,.83-.37,9.38,9.38,0,0,1,2.89.2,1.24,1.24,0,0,0,.76,0c.52-.22.46-1,.31-1.55a.77.77,0,0,0-.27-.49.73.73,0,0,0-.44-.06l-3.56.22a.54.54,0,0,1-.33,0c-.25-.18-.08-.68-.35-.83s-.39,0-.55.19c-.57.51-3,.77-4.22,1-1.2-.2-3.69-.46-4.28-1-.15-.14-.36-.3-.54-.19s-.1.65-.36.83a.5.5,0,0,1-.32,0l-3.57-.22a.73.73,0,0,0-.44.06.77.77,0,0,0-.27.49C315.91,65.33,315.86,66.1,316.38,66.32Z" style="fill:#ebebeb"></path><path d="M317.35,60.05a2.06,2.06,0,0,0,1.17.21l2.16,0a.53.53,0,0,1,.4.12.77.77,0,0,1,.17.39l.48,2a28.4,28.4,0,0,0,3.87.52h0a33.81,33.81,0,0,0,4.29-.51l.48-2a.85.85,0,0,1,.16-.39.56.56,0,0,1,.41-.12l2.16,0a2.24,2.24,0,0,0,1.17-.21,1.2,1.2,0,0,0,.52-1.21c-.13-.6-.71-.79-1.2-.88l-3.09-.6c-.17-.94.11-2-.21-2.85a1.73,1.73,0,0,0-.24-.47h-8.5a2.2,2.2,0,0,0-.24.46c-.31.88,0,1.92-.2,2.86L318,58c-.49.09-1.08.28-1.21.88A1.2,1.2,0,0,0,317.35,60.05Z" style="fill:#ebebeb"></path><path d="M380,163.15s0-.18,0-.52,0-.85,0-1.51c0-1.34,0-3.31,0-5.87,0-5.14,0-12.66-.06-22.21,0-19.1-.07-46.35-.12-79l.23.22-105.43,0h0l.26-.26c0,40,0,77.48,0,109.1l-.22-.22L351,163l21.43.06,5.66,0,1.46,0h-1.41l-5.62,0-21.37.06-76.54.11h-.23v-.22c0-31.62,0-69.08,0-109.1v-.26h.27l105.43,0h.23v.23c-.05,32.7-.09,60-.12,79.13,0,9.54-.05,17-.06,22.16,0,2.54,0,4.5,0,5.83,0,.65,0,1.14,0,1.48S380,163.15,380,163.15Z" style="fill:#e0e0e0"></path></g><g id="freepik--ct-scan--inject-176"><path d="M683.51,459.86H467.63V83l200,4.82C754.38,135.63,744.34,390.3,683.51,459.86Z" style="fill:#e0e0e0"></path><ellipse cx="467.63" cy="271.45" rx="86.11" ry="188.41" style="fill:#ebebeb"></ellipse><path d="M496.74,459.86l1.15-.09,3.36-.22a46.6,46.6,0,0,0,12.44-3.47,60.16,60.16,0,0,0,16.84-11.5,107.7,107.7,0,0,0,16.88-21.17,177.75,177.75,0,0,0,14.51-29.5c2.19-5.5,4.14-11.31,6-17.32s3.57-12.29,5.06-18.78c6.15-25.91,9.48-55.18,9.56-85.9s-3.22-60-9.27-86S558.56,137.38,548,120.23A106.57,106.57,0,0,0,531.16,99a59.63,59.63,0,0,0-16.83-11.5,46.41,46.41,0,0,0-12.44-3.45l-3.36-.22-1.15-.09s.39,0,1.15,0l3.37.17a45.72,45.72,0,0,1,12.51,3.36,59.28,59.28,0,0,1,17,11.48A106.68,106.68,0,0,1,548.31,120c10.63,17.17,19.49,39.82,25.47,65.8s9.3,55.3,9.32,86.07-3.43,60.07-9.62,86c-1.49,6.5-3.27,12.75-5.08,18.81s-3.87,11.83-6.08,17.33a177.11,177.11,0,0,1-14.59,29.54,107.54,107.54,0,0,1-17,21.19,60,60,0,0,1-17,11.48,45.58,45.58,0,0,1-12.5,3.38l-3.38.17C497.13,459.86,496.74,459.86,496.74,459.86Z" style="fill:#263238"></path><path d="M467.63,459.86l1.15-.09,3.37-.22a46.9,46.9,0,0,0,12.46-3.48,60.1,60.1,0,0,0,16.86-11.54,107.88,107.88,0,0,0,16.9-21.23,179,179,0,0,0,14.51-29.57C534,391,535,388.12,536,385.24s1.94-5.87,2.91-8.87c1.8-6.06,3.56-12.32,5.05-18.82,6.14-26,9.44-55.3,9.51-86.09s-3.37-60.13-9.51-86.1c-1.49-6.51-3.26-12.77-5.05-18.83-1-3-1.9-6-2.91-8.87s-2-5.74-3.13-8.48a179.5,179.5,0,0,0-14.51-29.58,108.62,108.62,0,0,0-16.9-21.23,60.1,60.1,0,0,0-16.86-11.54,46.42,46.42,0,0,0-12.46-3.47l-3.37-.22-1.15-.1,1.15,0c.76,0,1.9.08,3.38.17a45.91,45.91,0,0,1,12.53,3.4,60,60,0,0,1,17,11.51,108.06,108.06,0,0,1,17,21.25A178.32,178.32,0,0,1,533.28,149c1.14,2.74,2.09,5.61,3.15,8.49s2,5.88,2.92,8.89c1.81,6.06,3.59,12.34,5.08,18.85,6.19,26,9.5,55.38,9.57,86.21s-3.39,60.2-9.57,86.2c-1.49,6.51-3.27,12.78-5.08,18.84-1,3-1.9,6-2.92,8.89s-2,5.75-3.15,8.49a178.32,178.32,0,0,1-14.6,29.61,107.34,107.34,0,0,1-17,21.25,60,60,0,0,1-17,11.51,45.46,45.46,0,0,1-12.53,3.4c-1.48.1-2.62.13-3.38.17S467.63,459.86,467.63,459.86Z" style="fill:#263238"></path><ellipse cx="460.64" cy="270.75" rx="70.93" ry="172.9" style="fill:#455a64"></ellipse><path d="M462,97.85a29.17,29.17,0,0,0-4.38.34c37.13,5.52,66.55,80.66,66.55,172.56s-29.42,167-66.55,172.56a29.17,29.17,0,0,0,4.38.34c39.18,0,70.94-77.41,70.94-172.9S501.22,97.85,462,97.85Z" style="fill:#263238"></path><ellipse cx="450.48" cy="269.17" rx="47.53" ry="95.74" style="fill:#e0e0e0"></ellipse><g style="opacity:0.30000000000000004"><path d="M472,183.76c-6.45-6.61-13.76-10.33-21.49-10.33-26.25,0-47.53,42.86-47.53,95.74s21.28,95.73,47.53,95.73c7.73,0,15-3.72,21.49-10.32-15.45-15.81-26-48.12-26-85.41S456.52,199.56,472,183.76Z"></path></g><path d="M727.49,213.32c0,.15-33.06.26-73.82.26s-73.83-.11-73.83-.26,33-.26,73.83-.26S727.49,213.18,727.49,213.32Z" style="fill:#263238"></path><path d="M712.61,399.36c0,.15-34,.26-75.92.26s-75.92-.11-75.92-.26,34-.26,75.92-.26S712.61,399.22,712.61,399.36Z" style="fill:#263238"></path><circle cx="603.74" cy="231.86" r="7.75" transform="translate(239.79 766.46) rotate(-76.76)" style="fill:#f5f5f5"></circle><circle cx="626.26" cy="231.86" r="7.75" transform="translate(19.48 510.74) rotate(-45)" style="fill:#f5f5f5"></circle><path d="M472,183.76a4.73,4.73,0,0,1-.3.37c-.22.25-.52.59-.9,1l-1.49,1.68c-.56.69-1.14,1.53-1.83,2.45a85.42,85.42,0,0,0-9.3,17.1A156.92,156.92,0,0,0,449.66,234c-1.17,5.32-2.05,11-2.78,16.85a160.16,160.16,0,0,0-1,18.31c0,6.29.42,12.42,1,18.32a165.88,165.88,0,0,0,2.51,16.9c.28,1.33.56,2.65.83,4l.95,3.8c.16.63.31,1.25.46,1.87l.54,1.81,1,3.55c.79,2.28,1.5,4.51,2.31,6.61l1.23,3.07c.2.5.4,1,.59,1.48s.44.95.65,1.42c.88,1.87,1.64,3.68,2.55,5.29s1.63,3.22,2.52,4.6,1.62,2.71,2.37,3.89l2.19,3.15.94,1.33c.32.4.61.78.89,1.12l1.39,1.76.85,1.09c.19.25.28.39.28.39l-.32-.35-.89-1.06-1.43-1.73-.92-1.11c-.3-.41-.61-.86-1-1.32l-2.23-3.13c-.77-1.18-1.55-2.49-2.42-3.88s-1.66-3-2.57-4.59-1.69-3.43-2.58-5.3l-.66-1.42c-.2-.49-.41-1-.61-1.48l-1.24-3.08c-.83-2.1-1.55-4.33-2.35-6.62L451.74,316l-.54-1.82c-.16-.62-.31-1.24-.47-1.87l-1-3.82q-.4-1.95-.84-4a163.33,163.33,0,0,1-2.55-16.94c-.59-5.91-1-12.06-1-18.37a158.63,158.63,0,0,1,1-18.36c.74-5.9,1.64-11.57,2.83-16.9a154,154,0,0,1,8.61-27.67,83.82,83.82,0,0,1,9.47-17.07c.71-.92,1.31-1.75,1.88-2.43l1.53-1.65.95-1A3.85,3.85,0,0,1,472,183.76Z" style="fill:#263238"></path></g><g id="freepik--Floor--inject-176"><path d="M737.44,466.33c0,.14-162.28.26-362.42.26s-362.46-.12-362.46-.26,162.25-.26,362.46-.26S737.44,466.19,737.44,466.33Z" style="fill:#263238"></path><rect x="29.6" y="454.91" width="678.89" height="9.9" style="fill:#e0e0e0"></rect><path d="M708.48,454.91c0,.14-152.08.32-339.64.39s-339.68,0-339.68-.14,152.05-.31,339.68-.38S708.48,454.76,708.48,454.91Z" style="fill:#263238"></path></g><g id="freepik--character-2--inject-176"><path d="M188.9,404,166.62,424.4l25.21,27.85c2.51-2.57-5.19-21.82-5.19-21.82L200.56,417Z" style="fill:#455a64"></path><path d="M180.05,420.73a1.54,1.54,0,0,0-2,.39,1.47,1.47,0,0,0,.37,2,1.61,1.61,0,0,0,2.12-.42,1.52,1.52,0,0,0-.61-2" style="fill:#fff"></path><path d="M166.62,424.4l2.32-2.15L192.17,450s.57,1.73-.44,2.38Z" style="fill:#263238"></path><path d="M187.19,430.76c-.14.12-.82-.51-1.86-.78s-1.94-.11-2-.29.91-.68,2.17-.33S187.34,430.67,187.19,430.76Z" style="fill:#fff"></path><path d="M188.63,434.77c-.11.15-.87-.23-1.87-.17s-1.72.48-1.83.34.51-.92,1.74-1S188.75,434.65,188.63,434.77Z" style="fill:#fff"></path><path d="M186.63,439.6c-.17-.12.23-.86,1.43-1.23s1.93,0,1.87.2-.81.13-1.68.41S186.77,439.72,186.63,439.6Z" style="fill:#fff"></path><path d="M190.25,427.54c-.18.06-.55-.74-1.3-1.46s-1.53-1.1-1.48-1.28,1.06,0,1.93.83S190.42,427.51,190.25,427.54Z" style="fill:#fff"></path><path d="M193,423.89c0,.05-.62-.41-1.25-1.41a8.28,8.28,0,0,1-.88-1.86,9.85,9.85,0,0,1-.3-1.19,2.58,2.58,0,0,1-.05-.71.81.81,0,0,1,.67-.72,1,1,0,0,1,.85.31,2.68,2.68,0,0,1,.4.59,6.22,6.22,0,0,1,.49,1.14,6.76,6.76,0,0,1,.32,2,3.13,3.13,0,0,1-.39,1.84c-.1,0,0-.72-.06-1.82a7.47,7.47,0,0,0-.43-1.88,5.86,5.86,0,0,0-.48-1c-.19-.37-.41-.62-.61-.58s-.1,0-.13.17a2.07,2.07,0,0,0,0,.53,9.2,9.2,0,0,0,.25,1.12,10.55,10.55,0,0,0,.7,1.81A11.52,11.52,0,0,1,193,423.89Z" style="fill:#fff"></path><path d="M192.6,423.89c-.07,0,.18-.74,1-1.59a6.21,6.21,0,0,1,1.7-1.19,6.72,6.72,0,0,1,1.17-.42A1.56,1.56,0,0,1,198,421a.88.88,0,0,1,.14.93,2.91,2.91,0,0,1-.38.61,4.34,4.34,0,0,1-2.92,1.56c-1.22.11-1.89-.31-1.86-.37a13.66,13.66,0,0,0,1.79-.08,4.28,4.28,0,0,0,1.71-.74,4,4,0,0,0,.78-.76c.26-.31.4-.64.27-.72a1.08,1.08,0,0,0-.9-.08,6.7,6.7,0,0,0-1.07.34,6.85,6.85,0,0,0-1.64,1C193.06,423.33,192.69,423.94,192.6,423.89Z" style="fill:#fff"></path><path d="M183.52,423.66l.28,30.19,37.56-.16c-.23-3.59-19.7-10.71-19.7-10.71l.62-19.35Z" style="fill:#455a64"></path><path d="M190,441.4a1.55,1.55,0,0,0-1,1.76,1.48,1.48,0,0,0,1.73,1.06,1.61,1.61,0,0,0,1.1-1.87,1.52,1.52,0,0,0-1.92-.9" style="fill:#fff"></path><path d="M183.8,453.91l-.05-3.23,36.13,1.23s1.67.73,1.48,1.91Z" style="fill:#263238"></path><path d="M202.27,442.79c0,.18-.92.27-1.82.86s-1.38,1.37-1.55,1.3.1-1.14,1.21-1.83S202.31,442.62,202.27,442.79Z" style="fill:#263238"></path><path d="M206.22,444.4c0,.18-.75.49-1.37,1.27s-.8,1.6-1,1.6-.3-1,.49-2S206.21,444.23,206.22,444.4Z" style="fill:#263238"></path><path d="M208.48,449.11c-.17,0-.43-.88,0-1.88s1.32-1.41,1.4-1.26-.45.69-.82,1.52S208.66,449.09,208.48,449.11Z" style="fill:#263238"></path><path d="M201.92,438.36c-.07.17-.92-.08-1.95,0s-1.85.4-1.94.24.68-.81,1.9-.88S202,438.22,201.92,438.36Z" style="fill:#263238"></path><path d="M182.64,251.4s-2.4,8.43-2.67,9c-2.47,5.46-9,18.95-9,18.95s-4.95,17.58-3.85,25.86,8.51,64.94,8.51,64.94-1.46,44.92,4.88,64.9l1.17,5.3,21.17-3.76h0l4.7-111.18,12.92-73.51Z" style="fill:#263238"></path><path d="M235.49,261.49s9.31,75.71,10.43,87.82S203.1,426,203.1,426l-18.54-21.9,28.28-52.58-9.52-52.37,12.54-47.25,17.83.22Z" style="fill:#263238"></path><path d="M177.3,418.11a14.58,14.58,0,0,0,.15,1.54c.13,1,.38,2.5.73,4.42.7,3.83,1.84,9.39,3.38,16.34l0,.15.15,0,21.18-3.71.16,0v-.16c.59-14.54,1.29-31.91,2-50.54.79-20,1.51-38.63,2.11-53.88v0c1.59-12.25,2.91-22.38,3.82-29.47.45-3.52.8-6.29,1-8.19.11-.93.19-1.65.25-2.16s.07-.74.07-.74,0,.25-.13.74-.18,1.22-.31,2.14c-.27,1.9-.65,4.66-1.14,8.18l-4,29.45h0c-.62,15.25-1.37,33.84-2.18,53.88-.73,18.63-1.41,36-2,50.54l.17-.19-21.17,3.81.18.12c-1.57-6.94-2.76-12.49-3.52-16.32-.37-1.91-.65-3.39-.81-4.39-.08-.5-.13-.88-.17-1.14S177.3,418.11,177.3,418.11Z" style="fill:#455a64"></path><path d="M232.77,113.81s4.68,17.49,5.08,29.86l.14,4.12s-10.32,8.57-19,9.1l-7.26-17.84Z" style="fill:#263238"></path><path d="M186.93,124.53c2-8.53,2.73-18.45,9.82-24,5.27-4.12,11.26-5.27,17.95-5a23.47,23.47,0,0,1,9.87,3.28c3.93,2.22,5.59,6.73,7.49,10.83,3.8,8.21,3.32,19.33.74,22.42l-34.31,18.12c-6.85-3.57-11.14-5-12.24-14.12A33.6,33.6,0,0,1,186.93,124.53Z" style="fill:#263238"></path><path d="M197.56,107.29l21.59-6.37c7-1,11.94,7.41,12.66,14.4.79,7.77,1.46,17.28.77,23.13-1.4,11.76-10.3,13.6-10.3,13.6s0,.17.05,3.65l.23,5.63a9.79,9.79,0,0,1-1.9,6.37c-3.18,4.12-9,4.67-15.83,2.14-4-1.47-6.73-4.42-7-8.44L194,111.61A4.12,4.12,0,0,1,197.56,107.29Z" style="fill:#c56b59"></path><path d="M228.48,127.15a1.49,1.49,0,0,1-1.39,1.56,1.44,1.44,0,0,1-1.6-1.29,1.5,1.5,0,0,1,1.39-1.57A1.45,1.45,0,0,1,228.48,127.15Z" style="fill:#263238"></path><path d="M229.94,122.36c-.18.21-1.35-.59-3-.52s-2.76.92-2.95.73.09-.44.59-.84a4.16,4.16,0,0,1,2.35-.83,4,4,0,0,1,2.36.67C229.84,121.93,230,122.27,229.94,122.36Z" style="fill:#263238"></path><path d="M214,127.4a1.49,1.49,0,0,1-1.38,1.56,1.44,1.44,0,0,1-1.6-1.29,1.5,1.5,0,0,1,1.39-1.57A1.44,1.44,0,0,1,214,127.4Z" style="fill:#263238"></path><path d="M214.08,122.55c-.18.21-1.35-.59-3-.52s-2.77.92-3,.73.09-.44.59-.84a4.16,4.16,0,0,1,2.35-.83,4,4,0,0,1,2.36.67C214,122.12,214.16,122.46,214.08,122.55Z" style="fill:#263238"></path><path d="M220.36,133a11.06,11.06,0,0,1,2.6-.58c.41-.05.79-.15.85-.44a2.06,2.06,0,0,0-.32-1.21l-1.34-3.08c-1.87-4.4-3.24-8-3.06-8.1s1.84,3.43,3.7,7.83l1.29,3.11a2.33,2.33,0,0,1,.28,1.61,1,1,0,0,1-.65.63,2.85,2.85,0,0,1-.7.12A10.75,10.75,0,0,1,220.36,133Z" style="fill:#263238"></path><path d="M222.22,152.05a30.76,30.76,0,0,1-16.14-3.56s4.53,8.22,16.18,6.67Z" style="fill:#954d3f"></path><path d="M215.15,136.23a2.58,2.58,0,0,1,2.11-1.26,3.37,3.37,0,0,1,3.13,1.4,2.15,2.15,0,0,1,.19,1.51c-.1.26,0,.13-.21.31a5.78,5.78,0,0,1-2.35,1.59,2.52,2.52,0,0,1-2.71-.87A2.6,2.6,0,0,1,215.15,136.23Z" style="fill:#954d3f"></path><path d="M215.37,134.38c.26,0,.34,1.72,1.89,2.9s3.41.9,3.44,1.14-.4.36-1.19.42a4.37,4.37,0,0,1-2.86-.86,3.79,3.79,0,0,1-1.48-2.43C215.07,134.82,215.25,134.38,215.37,134.38Z" style="fill:#263238"></path><path d="M214.69,116.65c-.12.45-1.74.4-3.61.81s-3.33,1.08-3.62.71c-.13-.18.09-.61.67-1.1a6.15,6.15,0,0,1,2.62-1.21,6.06,6.06,0,0,1,2.88.06C214.35,116.13,214.73,116.44,214.69,116.65Z" style="fill:#263238"></path><path d="M229.8,118c-.36.32-1.54-.23-3-.46s-2.77-.16-3-.58c-.1-.2.15-.53.75-.8a4.66,4.66,0,0,1,2.54-.24,4.54,4.54,0,0,1,2.3,1.08C229.85,117.47,230,117.87,229.8,118Z" style="fill:#263238"></path><path d="M218.79,99.66c0,.09,0,.17.05.26h0Z" style="fill:#263238"></path><path d="M203.69,156.77c-.33-3.07.9-6.15.54-9.21-.38-3.24-2.48-6-3.34-9.17-1.38-5,.51-10.42,1.21-15.63a12.4,12.4,0,0,0,7.6-4.39c2.34-2.73,3.76-6.12,5.14-9.44a15.79,15.79,0,0,1-3.18,9.08,4.28,4.28,0,0,0,3.64-1.18,9.62,9.62,0,0,0,2.14-3.32,25.94,25.94,0,0,0,2.07-9.35A33.6,33.6,0,0,1,218,117.81a5.9,5.9,0,0,1,2.54.09,2.77,2.77,0,0,0,2.42-.51,3,3,0,0,0,.66-1.56,34.92,34.92,0,0,0,.39-11.89,35.86,35.86,0,0,1,2.68,6.59,12.73,12.73,0,0,1,.05,7,1,1,0,0,0,1.45,0,2.47,2.47,0,0,0,.64-1.46,17.9,17.9,0,0,0-.39-5.92c1.17,2.07,1.56,4.47,2.21,6.76s1.67,4.63,3.66,5.94a31.49,31.49,0,0,0-.29-9,27.52,27.52,0,0,0-2.63-7.12,21.06,21.06,0,0,0-4.74-6.59c-3.44-3-4.88-1.72-7.08-.57l-.26.11c0-.06,0-.11,0-.16l-.1-.47a33,33,0,0,0-17.37.81,23.3,23.3,0,0,0-11.35,9.43l-.12.22c-4.89,8.82-8.12,19-8.35,41.15h0Z" style="fill:#263238"></path><path d="M199.57,157.43s12.66,9.57,18.83,8.48c4.94-.86,4.44-8.48,4.44-8.48l2,5.3,5.17,20.72-2.19,9.75-11.76-7.26Z" style="fill:#00BFA5"></path><path d="M242.75,197.41C241.43,184.12,225,161.12,225,161.12l-2.11-3.9,2.1,11.1s2.56,16.48,2.93,16.82l-14.49-13.63L196.83,154.4l-2.9,4.84-13.23,7.38.34,44,5.11,12.79s-16.94,38.25-18.91,52.5l-5.62,76.75h57.3l9.22-53.33,4.24,53.33,17.05-2c.78.53-7.5-86.4-7.85-96-.33-8.79-2.61-30.22-2.61-30.22S244.07,210.7,242.75,197.41Z" style="fill:#e0e0e0"></path><path d="M227.4,164.92s6.1,2.59,8.08,5.7,3.32,16.65,3.32,16.65L229.12,171Z" style="fill:#e0e0e0"></path><path d="M227.4,164.92a2.6,2.6,0,0,0,0,.49c0,.36.06.83.11,1.44.1,1.28.26,3.1.45,5.38v.06l.05,0,1.65.94-.07-.12c-.27,3.77-.63,8.57-1,14l.24-.15-13-4.71-4.16-1.5.12.21c.21-1.43.41-2.83.61-4.2l0-.3-.29.1-5,1.76.21.07c-3.91-5.55-7.24-10.29-9.61-13.67L195,160.87l-.76-1a3.66,3.66,0,0,0-.27-.35,2.14,2.14,0,0,0,.22.38l.71,1.06,2.69,3.95,9.51,13.75.07.11.13,0,5-1.75-.25-.2c-.2,1.37-.41,2.77-.61,4.19l0,.16.15.05,4.16,1.5,13,4.68.22.08,0-.23c.36-5.44.67-10.25.92-14v-.08l-.07,0-1.65-.92.05.09c-.23-2.28-.42-4.09-.55-5.37-.07-.61-.12-1.08-.16-1.43A2.62,2.62,0,0,0,227.4,164.92Z" style="fill:#263238"></path><g style="opacity:0.2"><polygon points="207.21 178.53 211.28 178.4 210.43 182.51 228.75 187.16 211.56 180.97 212.17 176.78 207.21 178.53"></polygon></g><path d="M213.43,263.76a7.94,7.94,0,0,1-.9.66,11.06,11.06,0,0,1-1.11.7c-.44.25-.93.56-1.52.83a20.35,20.35,0,0,1-1.91.87c-.7.31-1.47.56-2.28.83a30,30,0,0,1-5.42,1.11,31.11,31.11,0,0,1-5.54,0c-.84-.11-1.65-.19-2.39-.35s-1.43-.3-2.06-.46-1.17-.36-1.65-.51a12,12,0,0,1-1.23-.47,5.7,5.7,0,0,1-1-.47,8.05,8.05,0,0,1,1.06.35,11,11,0,0,0,1.23.41c.49.14,1,.33,1.66.46s1.3.31,2,.42,1.53.22,2.37.31a31.37,31.37,0,0,0,5.47,0,32.49,32.49,0,0,0,5.37-1.07c.81-.26,1.57-.5,2.26-.79s1.34-.56,1.92-.83,1.08-.55,1.53-.78a12.46,12.46,0,0,0,1.13-.65A7.37,7.37,0,0,1,213.43,263.76Z" style="fill:#263238"></path><path d="M186,264.84l0,.25.08.73c.07.67.16,1.62.28,2.84.23,2.48.55,6,.95,10.44a12.33,12.33,0,0,0,.88,3.31,10.39,10.39,0,0,0,1.79,3.23,6.38,6.38,0,0,0,3.34,2,10.66,10.66,0,0,0,2.05.29c.71.05,1.43.09,2.16.11a29.3,29.3,0,0,0,4.47-.15,15.84,15.84,0,0,0,4.48-1.12,10.78,10.78,0,0,0,3.89-2.71,11.77,11.77,0,0,0,2.32-4.31,23.91,23.91,0,0,0,.86-6.63c0-2.2-.15-4.35-.23-6.45-.21-4.19-.34-8.15-.26-11.77l.21.12a31.75,31.75,0,0,1-21.48,3.85c-.55-.1-1-.21-1.25-.27l-.32-.07-.1,0,.11,0,.32.05c.29,0,.71.14,1.26.22a32.26,32.26,0,0,0,21.32-4l.22-.13v.25c-.06,3.62.08,7.56.3,11.76.09,2.09.24,4.24.24,6.46a24,24,0,0,1-.88,6.73,11.94,11.94,0,0,1-2.39,4.42,10.93,10.93,0,0,1-4,2.8A16.37,16.37,0,0,1,202,288.2a29.78,29.78,0,0,1-4.51.13c-.73,0-1.45-.06-2.17-.11a11.55,11.55,0,0,1-2.11-.31,6.66,6.66,0,0,1-3.47-2.09A10.74,10.74,0,0,1,188,282.5a12.48,12.48,0,0,1-.87-3.38c-.36-4.4-.65-8-.85-10.45l-.21-2.84-.05-.74A.78.78,0,0,1,186,264.84Z" style="fill:#263238"></path><path d="M228.15,293.8a1.1,1.1,0,0,1,0-.27c0-.2,0-.47,0-.81,0-.72,0-1.76.08-3.09.08-2.7.21-6.59.36-11.38.34-9.61.8-22.87,1.32-37.52.26-7.33.54-14.31.62-20.66s0-12.07-.24-16.86-.61-8.67-.93-11.34c-.13-1.33-.3-2.36-.38-3.07,0-.34-.07-.6-.09-.8l0-.27a1,1,0,0,1,.06.27c0,.19.07.46.13.79.1.7.28,1.73.44,3.07.36,2.66.76,6.53,1,11.33s.4,10.53.32,16.89-.34,13.34-.6,20.66c-.55,14.65-1.05,27.91-1.42,37.52-.19,4.79-.35,8.67-.46,11.37-.07,1.33-.11,2.37-.15,3.1,0,.34,0,.6,0,.8A1.87,1.87,0,0,1,228.15,293.8Z" style="fill:#263238"></path><path d="M197.46,176l1-.42c0-.05-2.24-5.37-4.42-11a10.85,10.85,0,0,1-.93-5.55,2.13,2.13,0,0,1,2.18-2.06l.68-1.14c-1.9-.41-3.61,1.25-3.92,3a12,12,0,0,0,1,6.12C195.21,170.64,197.44,176,197.46,176Z" style="fill:#455a64"></path><path d="M195.86,188.47l1.37-.54c-1.13-2.89-2.66-8-2-9.45a4.23,4.23,0,0,1,2.94-1.94,4.89,4.89,0,0,1,4.3.88c1.57,1.32,3.94,6,4.72,7.7l1.33-.62c-.12-.26-3-6.4-5.1-8.2a6.38,6.38,0,0,0-5.57-1.2,5.66,5.66,0,0,0-3.95,2.77C192.79,180.29,195.34,187.12,195.86,188.47Z" style="fill:#455a64"></path><path d="M210.65,210.8c1.69,0,3.35-.9,4.95-2.7l-.55-.49c-1.76,2-3.56,2.77-5.37,2.35-7.32-1.73-12.89-22.07-13-22.28l-.71.19c.23.86,5.75,21,13.5,22.8A4.78,4.78,0,0,0,210.65,210.8Z" style="fill:#263238"></path><path d="M214.19,208.94h0a.88.88,0,0,0,1.14.08l1.59-1.18a1.06,1.06,0,0,0,.3-1.47h0a1.05,1.05,0,0,0-1.62-.16l-1.43,1.49A.89.89,0,0,0,214.19,208.94Z" style="fill:#263238"></path><path d="M207.54,211.47a5.73,5.73,0,0,0,5-2.23c4.5-6.32-4-23.85-4.35-24.59l-.66.32c.09.18,8.66,17.88,4.41,23.84-1.1,1.55-3.05,2.17-5.78,1.83l-.09.73A12.83,12.83,0,0,0,207.54,211.47Z" style="fill:#263238"></path><path d="M207.67,211.07h0a.89.89,0,0,1-.81.82l-2,.16a1.05,1.05,0,0,1-1.19-.9h0a1,1,0,0,1,1.11-1.19l2.06.17A.88.88,0,0,1,207.67,211.07Z" style="fill:#263238"></path><path d="M240.62,188.68l1.21-.21c-.48-.94-12.1-23.32-12.79-24.32-.12-.18-.26-.42-.43-.69a15.41,15.41,0,0,0-1.13-1.72c-1.14-1.41-2.41-2.76-3.86-3.18l1,1.7c.87.34,1,.9,2.06,2.16a13.25,13.25,0,0,1,1.05,1.59c.18.29.34.56.47.75C228.69,165.54,237.33,182.29,240.62,188.68Z" style="fill:#455a64"></path><path d="M237.42,193.94a5.87,5.87,0,1,0,5.87-5.88A5.87,5.87,0,0,0,237.42,193.94Z" style="fill:#263238"></path><path d="M237.42,193.94a5.87,5.87,0,1,0,5.87-5.88A5.87,5.87,0,0,0,237.42,193.94Z" style="fill:#263238"></path><path d="M239,193.94a4.25,4.25,0,1,0,4.25-4.25A4.24,4.24,0,0,0,239,193.94Z" style="fill:#e0e0e0"></path><polygon points="250.48 201.47 212.83 240.36 214.28 241.83 241.25 238.79 277.55 204.22 277.51 202.55 250.48 201.47" style="fill:#455a64"></polygon><g style="opacity:0.30000000000000004"><path d="M257.53,219.61a8.6,8.6,0,0,0-6.61-2.21,12.14,12.14,0,0,0-6.52,2.75,8.82,8.82,0,0,0-3.24,4.65c-.77,3.27,1.92,7.84,4.89,9.42h0c3.76-3,7.41-7.64,11.17-10.66a3.13,3.13,0,0,0,1.3-1.67A2.65,2.65,0,0,0,257.53,219.61Z"></path></g><path d="M277.4,204.14a3.21,3.21,0,0,1-.5,0h-1.44l-5.39-.06-18.77-.36.17-.07L242,213.46l-19.56,20.13c-2.49,2.54-4.52,4.6-6,6.06l-1.64,1.63a6.41,6.41,0,0,1-.59.55,4,4,0,0,1,.52-.62l1.57-1.69,5.86-6.17,19.45-20.23,9.46-9.77.07-.07h.1l18.76.54,5.4.2,1.43.07A2.8,2.8,0,0,1,277.4,204.14Z" style="fill:#263238"></path><path d="M253.83,215.55s3.66.07,4.84.66,4.46,4.08,4.46,4.08,0,2.38-.95,2.47a8.2,8.2,0,0,1,.19,1.61c.1,1.33.29,2.09-1.51,3.23,0,0,.19,2.18-.48,2.75A13.64,13.64,0,0,1,259,231.4s-.1,2.4-3.32,2.37l-3,1.33s-6.71-.63-6-1.42a31.56,31.56,0,0,0,2.33-4.72s-4.6-3.35-4.5-4.4.47-1.14.47-1.14-.19-2,1.42-2.18c0,0,1.24-2.47,2.47-2.56s9.59,2.94,9.59,2.94L255.26,219s-3.14-.47-3-1.51S253.83,215.55,253.83,215.55Z" style="fill:#c56b59"></path><path d="M253.28,228.05A45.1,45.1,0,0,1,249,226a44,44,0,0,1-4.24-2,22.39,22.39,0,0,1,8.48,4.1Z" style="fill:#954d3f"></path><path d="M257.62,225.14a33.33,33.33,0,0,1-5.44-1.76,34.47,34.47,0,0,1-5.28-2.23,32.93,32.93,0,0,1,5.45,1.76A34.69,34.69,0,0,1,257.62,225.14Z" style="fill:#954d3f"></path><path d="M205.74,248.36s5,5.78,5,7.65a31.51,31.51,0,0,1-19,2.76Z" style="fill:#c56b59"></path><path d="M180.7,166.62s-7.88,4.4-11.61,18c-4,14.54-14.47,46.74-9.78,51.82s32.5,22.34,32.5,22.34l16.24-12.14L182.32,226l8.18-31" style="fill:#e0e0e0"></path><path d="M190.5,195.07s0,.19-.12.55-.22.92-.39,1.61c-.37,1.43-.9,3.51-1.58,6.17-1.4,5.38-3.42,13.12-5.91,22.69l-.06-.2,25.77,20.55.24.2-.25.19L192,259l-.14.1-.15-.09c-4-2.5-8.2-5.17-12.43-7.92-5.78-3.79-11.42-7.5-16.61-11.46a26.85,26.85,0,0,1-3.67-3.24,5.09,5.09,0,0,1-.88-2.32,9.92,9.92,0,0,1-.15-1.19c0-.4-.05-.8,0-1.2a51.6,51.6,0,0,1,1-9.17c1.09-5.89,2.53-11.4,3.92-16.54s2.8-9.9,4.07-14.24c.63-2.17,1.22-4.24,1.79-6.2a54.22,54.22,0,0,1,1.8-5.48A34.68,34.68,0,0,1,175,172a24,24,0,0,1,4-4.21,12.56,12.56,0,0,1,1.23-.89,3.48,3.48,0,0,1,.45-.26l-.42.3c-.28.2-.69.5-1.19.93a24.9,24.9,0,0,0-3.94,4.26,34.89,34.89,0,0,0-4.41,8A56.91,56.91,0,0,0,169,185.6c-.56,2-1.14,4-1.76,6.21-1.24,4.35-2.62,9.11-4,14.25s-2.79,10.65-3.87,16.52a51.93,51.93,0,0,0-1,9.08c0,.39,0,.77.05,1.16a10.94,10.94,0,0,0,.14,1.15,8.17,8.17,0,0,0,.27,1.11,3.67,3.67,0,0,0,.52,1,26.56,26.56,0,0,0,3.58,3.14c5.17,3.94,10.81,7.65,16.58,11.43,4.23,2.76,8.42,5.42,12.42,7.92h-.28l16.25-12.12v.38l-25.7-20.63-.1-.08,0-.12c2.56-9.55,4.64-17.28,6.07-22.64.73-2.66,1.29-4.72,1.68-6.15.19-.69.34-1.22.45-1.6S190.5,195.07,190.5,195.07Z" style="fill:#263238"></path><path d="M172.93,226.88a11.28,11.28,0,0,1,9.22-.86c0,.16-2.1-.29-4.65,0S173,227,172.93,226.88Z" style="fill:#263238"></path></g><g id="freepik--character-1--inject-176"><path d="M85.09,298.18c10.54,1.37,39.17-3.13,66.54-7.73,1.51-.25,6.37-1.81,7.87-2.05l50.27-4.22-.66,37.72L161.8,309.48s-16.8,6.67-31.05,6.67c-12.54,0-39.42-2.19-39.42-2.19Z" style="fill:#ffbf9d"></path><path d="M400.2,318.61a33.15,33.15,0,0,1-25.42-9.56l13.49-5.27" style="fill:#263238"></path><path d="M426,281.92a20,20,0,0,1,2.17,13.41,42.4,42.4,0,0,1-4.75,13,21,21,0,0,1-4.51,6.29c-3.59,3.09-9.55,6.24-14.26,6.72-3.81.38-13.42-.7-17-2.17-3.24-1.35-5.94-8.19-6.86-11.58L416,274.7A15.84,15.84,0,0,1,426,281.92Z" style="fill:#263238"></path><path d="M420.83,276.71l1.65,7.47c-10-3.72-32.41-3.94-42.86-5.87,3.91-2.94,15.91-9.87,20.8-9.72S421.3,267.73,420.83,276.71Z" style="fill:#263238"></path><path d="M404.69,273.05c7.54.18,16.95,4.81,16.44,12.34l-3.72,17.5A12.88,12.88,0,0,1,406,313c-.28,0,.07,0-.15,0l-45-2.06-26.33-12h0l21.31-12.37,11.85-.47s1.23-9.67,13.69-12.14C387.49,272.86,396.32,272.84,404.69,273.05Z" style="fill:#ffbf9d"></path><path d="M394.62,278.83a1.61,1.61,0,0,0-1.56,1.61,1.53,1.53,0,0,0,1.51,1.6,1.61,1.61,0,0,0,1.57-1.61A1.55,1.55,0,0,0,394.62,278.83Z" style="fill:#263238"></path><path d="M399.86,275.13c-.21.2.74,1.39.8,3.12s-.75,3-.53,3.21.46-.13.85-.7a4.38,4.38,0,0,0,.68-2.58,4.13,4.13,0,0,0-.9-2.47C400.33,275.19,400,275,399.86,275.13Z" style="fill:#263238"></path><path d="M395.21,293.33a1.6,1.6,0,0,0-1.56,1.61,1.54,1.54,0,0,0,1.51,1.6,1.61,1.61,0,0,0,1.56-1.61A1.53,1.53,0,0,0,395.21,293.33Z" style="fill:#263238"></path><path d="M400.52,291.55c-.2.21.74,1.39.8,3.12s-.75,3-.53,3.21.47-.13.85-.7a4.45,4.45,0,0,0,.69-2.58,4.25,4.25,0,0,0-.91-2.47C401,291.61,400.61,291.45,400.52,291.55Z" style="fill:#263238"></path><path d="M386.72,286.69a11.67,11.67,0,0,0,.4-2.83c0-.44.1-.86.4-.95a2.19,2.19,0,0,1,1.32.25l3.41,1.17c4.86,1.63,8.84,2.8,8.91,2.6s-3.82-1.68-8.68-3.31l-3.43-1.12a2.55,2.55,0,0,0-1.74-.16,1.1,1.1,0,0,0-.62.75,3,3,0,0,0-.08.75A11.42,11.42,0,0,0,386.72,286.69Z" style="fill:#263238"></path><path d="M372.74,302.66s-8.77-3.73-8.08-16.32l2.95-.12A31.58,31.58,0,0,0,372.74,302.66Z" style="fill:#ff9a6c"></path><path d="M406.79,291.84c-.47.19-.18,1.91-.34,3.94s-.66,3.71-.23,4c.21.11.64-.19,1.07-.87a6.88,6.88,0,0,0,.43-6C407.39,292.12,407,291.76,406.79,291.84Z" style="fill:#263238"></path><path d="M405.17,275.48c-.38.32.07,1.49.14,2.92s-.16,2.66.26,2.92c.21.12.59-.09.95-.63a4.13,4.13,0,0,0,.55-2.41,4.05,4.05,0,0,0-.88-2.3C405.77,275.49,405.36,275.34,405.17,275.48Z" style="fill:#263238"></path><path d="M416.27,276a5.52,5.52,0,0,1,3.32,4.74,10.81,10.81,0,0,1-1.45,5.85c-4,7.64-14.28,11.89-18.45,19.45-1,1.85.08,4.17-1.31,5.77s-3.68,2.7-5.65,1.92a17.27,17.27,0,0,0,4.43,2.39,6,6,0,0,0,4.87-.4c1.08-.69,1.88-1.85,3.11-2.21s2.23.07,3.35,0a7.41,7.41,0,0,0,3.15-1.28,32.56,32.56,0,0,0,12.12-12.48,21.22,21.22,0,0,0,2.4-11.12,16.19,16.19,0,0,0-4.57-10.29c-1.61-1.59-3.27-3.26-5.32-2.32" style="fill:#263238"></path><path d="M396.82,311.69c.36.11,3,6.56-4,6.92-6.75.36-5.69-6.51-5.5-6.53S396.82,311.69,396.82,311.69Z" style="fill:#ffbf9d"></path><path d="M390,314s-.08.12-.16.32a1.17,1.17,0,0,0,0,.88,2.9,2.9,0,0,0,2.67,1.22,4,4,0,0,0,1.67-.41,1.4,1.4,0,0,0,.86-.93.6.6,0,0,0-.36-.68c-.19-.08-.32,0-.34-.07s.11-.15.39-.11a.72.72,0,0,1,.44.25.9.9,0,0,1,.2.64,1.67,1.67,0,0,1-1,1.28,4.11,4.11,0,0,1-1.86.5,3.05,3.05,0,0,1-3-1.57,1.27,1.27,0,0,1,.12-1.09C389.86,314.06,390,314,390,314Z" style="fill:#ff9a6c"></path><path d="M400.39,314.23a3.6,3.6,0,0,1,.21-.41c.16-.27.36-.68.68-1.17a22.76,22.76,0,0,1,3.17-3.77,63.08,63.08,0,0,1,5.61-4.69,52.64,52.64,0,0,0,6.71-5.85,21.3,21.3,0,0,0,2.69-3.71,17.38,17.38,0,0,0,1.61-3.95,19.38,19.38,0,0,0,.59-7.19,18.57,18.57,0,0,0-1.13-4.75c-.19-.55-.4-.95-.52-1.23a2.4,2.4,0,0,1-.17-.44,3,3,0,0,1,.23.41,10.71,10.71,0,0,1,.57,1.22,17.81,17.81,0,0,1,1.24,4.77,19.13,19.13,0,0,1-.54,7.28,17.48,17.48,0,0,1-1.61,4,22,22,0,0,1-2.73,3.77,52.11,52.11,0,0,1-6.77,5.86A71.62,71.62,0,0,0,404.6,309a25.28,25.28,0,0,0-3.22,3.69c-.33.48-.55.87-.72,1.13A2.74,2.74,0,0,1,400.39,314.23Z" style="fill:#455a64"></path><path d="M398.41,312.61c-1.83.18-3.78.35-5.45-.44s-2.87-2.89-2-4.53c.69-1.34,2.35-1.8,3.83-2.08,4.28-.81,8.61-1.28,12.88-2.13Z" style="fill:#263238"></path><path d="M419.55,277.52s.14.59.21,1.67a11.38,11.38,0,0,1-.63,4.5,14.84,14.84,0,0,1-1.33,2.86,31.37,31.37,0,0,1-2.09,3,34.65,34.65,0,0,1-5.86,5.89c-1.17.91-2.38,1.72-3.49,2.59a17.22,17.22,0,0,0-2.94,2.83,30.15,30.15,0,0,0-3.58,5.85c-.85,1.77-1.43,3.24-1.83,4.25q-.27.72-.45,1.17a3.12,3.12,0,0,0-.13.42s.08-.13.21-.39l.51-1.14c.44-1,1.06-2.45,1.93-4.19a31.07,31.07,0,0,1,3.61-5.75,17.7,17.7,0,0,1,2.89-2.76c1.11-.85,2.31-1.66,3.5-2.58a34,34,0,0,0,5.91-6,29.33,29.33,0,0,0,2.08-3,14.56,14.56,0,0,0,1.31-2.93,11.16,11.16,0,0,0,.53-4.6,9.36,9.36,0,0,0-.22-1.24A2.26,2.26,0,0,0,419.55,277.52Z" style="fill:#455a64"></path><path d="M402.59,312.63a3.45,3.45,0,0,0-.38.61l-.93,1.75-.31.59a1.77,1.77,0,0,0-.21.75.64.64,0,0,0,.12.45.6.6,0,0,0,.46.24,1.47,1.47,0,0,0,.84-.36l3.09-2.11-.25-.25a7,7,0,0,0-1.19,4.63,2.22,2.22,0,0,0,.13.61.83.83,0,0,0,.48.51.76.76,0,0,0,.68-.14,3,3,0,0,0,.4-.4,14.16,14.16,0,0,1,2.81-2.42,24,24,0,0,1,3.05-1.59,3.62,3.62,0,0,0-.9.25,13.43,13.43,0,0,0-2.29,1.11,13.86,13.86,0,0,0-2.92,2.41c-.23.26-.5.52-.71.44s-.34-.46-.36-.81a6.71,6.71,0,0,1,.19-2.3,6.87,6.87,0,0,1,.93-2.1l.56-.83-.82.58L402,316.4a1.3,1.3,0,0,1-.64.31c-.2,0-.32-.16-.31-.38a3.73,3.73,0,0,1,.45-1.23l.84-1.8A2.81,2.81,0,0,0,402.59,312.63Z" style="fill:#455a64"></path><path d="M383.49,288.32a3,3,0,0,1,1.13,2.68,2.75,2.75,0,0,1-1,1.9,1.68,1.68,0,0,1-2,.15,2.05,2.05,0,0,1-.56-2.18,6.22,6.22,0,0,1,1.23-2.14,1.83,1.83,0,0,1,.48-.48.54.54,0,0,1,.61,0" style="fill:#ff9a6c"></path><path d="M386.35,292.49c0-.27-1.77-.25-3-1.79s-1.1-3.47-1.35-3.48-.34.43-.36,1.25a4.56,4.56,0,0,0,1,2.9,3.8,3.8,0,0,0,2.55,1.39C385.92,292.82,386.36,292.62,386.35,292.49Z" style="fill:#263238"></path><path d="M357.35,285.64s-20.68-6.27-31.05-6.27-27.75,3.35-27.75,3.35l-29-2.28-49.46-2.05-46.44,1,.54,47,171.62-2.81S366,321.37,366,311.26Z" style="fill:#00BFA5"></path><path d="M193.42,320.74c.85.33,12.49-8.85,16.18-9.18s21.3-.33,21.3-.33v11.15s-5.68,4.6-9.09,3.94l-9.65-2.12-3-2.3s-7.64,3.63-9.94,3.63-2-1.69-2-1.69-2,1.81-3.24,1.33-.52-3.75-.52-3.75" style="fill:#ffbf9d"></path><polygon points="317.7 301.83 280.65 309.63 230.9 311.23 230.9 322.38 282.02 324.03 319.73 322.38 317.7 301.83" style="fill:#ffbf9d"></polygon><path d="M82.58,313.78a45.93,45.93,0,0,0-4.25,3.78,7.24,7.24,0,0,1-5.11,2.14,6.58,6.58,0,0,1-4.17-2.35c-1.09-1.21-1.92-2.64-2.91-3.94a67.11,67.11,0,0,0-9.79-10.15c-5.46-4.84-9.12-8.77-9.06-16.07a2.76,2.76,0,0,1,.85-2.33c1.06-.74,2.47.15,3.48,1,5.52,4.54,10.31,6.79,17.15,8.85,3.48,1.05,17,4.41,23,3.82l2.07,15.81S84.16,312.73,82.58,313.78Z" style="fill:#ffbf9d"></path><path d="M355.25,319.37l-.15.08-.45.22-.75.34c-.3.11-.66.2-1.07.33a43,43,0,0,1-7.2,1.28,225.31,225.31,0,0,1-25.67.92h-.21l0-.21c-.39-3.74-.81-7.7-1.24-11.83q-.33-3.11-.66-6.31l-.33-3.25a5.28,5.28,0,0,1,.1-1.72,2.21,2.21,0,0,1,1.06-1.46,6.25,6.25,0,0,1,3.19-.36l3.06.09,6,.2,11.33.36c3.59.16,7.07.06,10.25.85s5.94,2.56,7.2,5.1a13.81,13.81,0,0,1,1.35,7.26,10,10,0,0,1-2.09,5.15,11.19,11.19,0,0,1-2.63,2.36c-.34.21-.6.37-.79.46l-.28.14s.36-.23,1-.69a11.5,11.5,0,0,0,2.53-2.39,9.83,9.83,0,0,0,2-5.06,13.68,13.68,0,0,0-1.38-7.06c-1.23-2.41-3.92-4.13-7-4.85s-6.55-.64-10.16-.79l-11.33-.33-6-.19-3.07-.09a6,6,0,0,0-2.91.29c-.89.48-1,1.66-.9,2.69s.22,2.16.33,3.23q.33,3.21.64,6.32c.43,4.12.83,8.09,1.21,11.83l-.23-.22a236.75,236.75,0,0,0,25.62-.73,45.51,45.51,0,0,0,7.2-1.14c.4-.11.77-.19,1.08-.29l.75-.31.46-.17Z" style="fill:#263238"></path><path d="M285.05,304.22c-.12-.09,2.7-4.21,6.3-9.21s6.6-9,6.72-8.9-2.7,4.2-6.3,9.2S285.17,304.3,285.05,304.22Z" style="fill:#263238"></path><path d="M280.48,305.11c-.15,0,.71-3.08,1.16-6.94s.37-7,.53-7a7.32,7.32,0,0,1,.22,2.07,33.37,33.37,0,0,1-.23,5,34.15,34.15,0,0,1-1,4.92A6.57,6.57,0,0,1,280.48,305.11Z" style="fill:#263238"></path><rect x="212.92" y="354.3" width="185.9" height="100.13" style="fill:#e0e0e0"></rect><path d="M212.92,354.3v16.28s185.9-2.25,185.9,0V354.3Z" style="opacity:0.30000000000000004"></path><path d="M29.6,317.31v57.53H72.72a40.41,40.41,0,0,0,16.9-3.69l26.21-12A53.2,53.2,0,0,1,138,354.3H460.64v-37Z" style="fill:#e0e0e0"></path><path d="M29.6,317.31l431-.26h.26v37.51H448.47l-250.9,0-52,0h-6.12c-2,0-4,0-6,.2a53.53,53.53,0,0,0-11.5,2.3,89.88,89.88,0,0,0-10.52,4.39l-10,4.59-9.68,4.44A45.62,45.62,0,0,1,82,373.93a41.21,41.21,0,0,1-9.8,1.07H62.8l-33.2,0h-.12v-.13c.07-37.35.12-56.65.12-57.53,0,.88,0,20.18.12,57.53l-.12-.12,33.2,0h9.41a41,41,0,0,0,9.72-1.08,44.91,44.91,0,0,0,9.57-3.51l9.68-4.44,10-4.61a89.71,89.71,0,0,1,10.56-4.41,53.56,53.56,0,0,1,11.58-2.33c2-.18,4-.22,6-.21h6.12l52,0,250.9,0h12.17l-.26.26v-37l.26.26Z" style="fill:#263238"></path><rect x="41.62" y="327.9" width="406.79" height="18.18" rx="8.51" style="fill:#fafafa"></rect><path d="M439.91,346.08l.54,0a5.17,5.17,0,0,0,.67-.08,5.5,5.5,0,0,0,.91-.19,8,8,0,0,0,2.41-1.06,8.32,8.32,0,0,0,2.57-2.56,8.42,8.42,0,0,0,1.33-4.37,15.26,15.26,0,0,0-.11-2.68,8.32,8.32,0,0,0-.93-2.74,8.47,8.47,0,0,0-4.92-4,11,11,0,0,0-3.56-.37H435l-89.51.08-295.31.08a8.23,8.23,0,0,0-4.89,1.6,8.33,8.33,0,0,0-3,4.17,9.22,9.22,0,0,0-.38,2.56,13.39,13.39,0,0,0,.15,2.63,8.27,8.27,0,0,0,7.06,6.63,25.09,25.09,0,0,0,2.62.07h54.7l78.41,0,132.76.05,89.51.09,24.33,0,6.33,0,2.16,0-2.16,0-6.33,0-24.33.05-89.51.08-132.76.06H51.71a24.46,24.46,0,0,1-2.69-.08,8.75,8.75,0,0,1-7.5-7.05,13.12,13.12,0,0,1-.16-2.72,9.68,9.68,0,0,1,.4-2.72A8.88,8.88,0,0,1,45,329.34a8.79,8.79,0,0,1,5.2-1.7l295.31.07,89.51.09h3.85a11.13,11.13,0,0,1,3.62.39,8.63,8.63,0,0,1,5,4.1,8.5,8.5,0,0,1,.93,2.79,15.56,15.56,0,0,1,.1,2.7,8.54,8.54,0,0,1-4,7,7.74,7.74,0,0,1-2.44,1,5.29,5.29,0,0,1-.92.18,3.51,3.51,0,0,1-.67.06Z" style="fill:#263238"></path></g></svg>