<svg xmlns="http://www.w3.org/2000/svg" viewBox="0 0 661.35 438.67"><g id="freepik--background-complete--inject-256"><g><g><path d="M459.56,166.06l6.7,2.1c6.09,1.91,9.48,8.39,7.57,14.48l-17.64,56.32-44.34,131.96c-.99,2.95-4.15,4.56-7.12,3.63l-11.45-3.59c-2.95-.92-4.63-4.03-3.79-7l37.95-134,17.64-56.32c1.91-6.09,8.39-9.48,14.48-7.57Z" style="fill:#ebebeb;"></path><path d="M459.56,166.06l6.7,2.1c6.09,1.91,9.48,8.39,7.57,14.48l-17.64,56.32c-12.94,6.35-28.75-9-28.75-9l17.64-56.32c1.91-6.09,8.39-9.48,14.48-7.57Z" style="fill:#c7c7c7;"></path><g><path d="M403.12,358.03c1.37,.43,2.13,1.88,1.7,3.25-.43,1.37-1.88,2.13-3.25,1.7-1.37-.43-2.13-1.88-1.7-3.25,.43-1.37,1.88-2.13,3.25-1.7Z" style="fill:#c7c7c7;"></path><path d="M406.74,346.47c1.37,.43,2.13,1.88,1.7,3.25-.43,1.37-1.88,2.13-3.25,1.7-1.37-.43-2.13-1.88-1.7-3.25,.43-1.37,1.88-2.13,3.25-1.7Z" style="fill:#c7c7c7;"></path></g><g><path d="M433.12,262.24c4.11,1.29,5.29,9.23,2.62,17.74-2.67,8.51-8.16,14.37-12.27,13.08-4.11-1.29-5.29-9.23-2.62-17.74,2.67-8.51,8.16-14.37,12.27-13.08Z" style="fill:#fff;"></path><g><path d="M420.11,278.18l14.61,4.58c-.35,.88-.74,1.72-1.14,2.5l-13.96-4.37c.12-.87,.27-1.78,.49-2.7Z" style="fill:#c7c7c7;"></path><path d="M423.02,270.04l13.96,4.37c-.12,.87-.27,1.78-.49,2.7l-14.61-4.58c.35-.88,.74-1.72,1.14-2.5Z" style="fill:#c7c7c7;"></path></g></g></g><g><path d="M614.63,99.23l-4.96,9.36c-2.13,4.03-6.76,5.45-10.79,3.31-3.74-1.98-5.45-6.76-3.31-10.79l7.94-14.97c.07-.14,.22-.06,.3-.21q-.07-.22,0-.36c1.98-3.74,7.05-5.3,10.79-3.32,9.07,4.81,20.23,1.5,24.96-7.42,4.81-9.07,1.2-20.01-7.87-24.82-5.9-3.13-12.76-2.7-18.02,.59-3.84,2.39-8.77,1.25-11.16-2.6-2.25-3.77-1.18-8.55,2.67-10.94,9.91-6.18,22.9-7.04,33.99-1.17,16.7,8.85,23.2,29.63,14.35,46.33-7.55,14.25-23.82,20.94-38.88,17.01Zm-16.71,31.52l-1.37,2.59c-2.14,4.03-6.76,5.45-10.8,3.32-3.74-1.98-5.45-6.76-3.31-10.79l1.37-2.59c2.06-3.89,7.05-5.3,10.79-3.31,4.03,2.14,5.38,6.9,3.32,10.79Z" style="fill:#ebebeb;"></path><path d="M559.71,39.17l2.49-9.27c1.07-3.99,4.87-6.18,8.86-5.1,3.7,1,6.18,4.87,5.11,8.86l-3.99,14.83c-.04,.14-.18,.1-.22,.25q.11,.18,.07,.32c-1,3.71-5.16,6.11-8.86,5.11-8.98-2.41-18.17,2.76-20.55,11.6-2.41,8.98,2.98,17.92,11.97,20.34,5.84,1.57,11.82-.19,15.79-4.16,2.91-2.89,7.49-2.88,10.38,.04,2.74,2.87,2.77,7.32-.15,10.2-7.51,7.46-18.81,10.84-29.78,7.89-16.54-4.45-26.48-21.49-22.04-38.02,3.79-14.12,16.81-23.31,30.91-22.88Zm8.39-31.22l.69-2.57c1.07-3.99,4.87-6.18,8.87-5.11,3.7,1,6.18,4.87,5.1,8.87l-.69,2.57c-1.03,3.85-5.16,6.1-8.86,5.11-3.99-1.07-6.15-5.01-5.11-8.86Z" style="fill:#ebebeb;"></path></g><g><g><rect x="16.84" y="29.66" width="168.46" height="223.77" transform="translate(-15.59 12.54) rotate(-6.59)" style="fill:#ebebeb;"></rect><g style="opacity: .1;"><rect x="16.84" y="29.66" width="168.46" height="223.77" transform="translate(-15.59 12.54) rotate(-6.59)" style="fill:#020100;"></rect></g><rect x="12.29" y="30.19" width="168.46" height="223.77" transform="translate(-15.68 12.02) rotate(-6.59)" style="fill:#ebebeb;"></rect></g><g><rect x="23.88" y="39.85" width="148.72" height="201.6" transform="translate(-17.13 13.67) rotate(-7.32)" style="fill:#ebebeb;"></rect><rect x="21.61" y="40.12" width="148.72" height="201.6" transform="translate(-12.74 9.58) rotate(-5.36)" style="fill:#dbdbdb;"></rect><g><g><rect x="21.61" y="40.12" width="148.72" height="201.6" transform="translate(-15.55 11.95) rotate(-6.59)" style="fill:#fff;"></rect><path d="M181.41,232.51c-.12,.06-147.75,17.2-147.87,17.25-.04-.03-23.23-200.34-23.26-200.41l-.03-.25,.25-.03c.15-.06,147.78-16.98,147.92-17.03,.08,.17,22.93,200.28,22.99,200.47h0Zm0,0l-23.33-200.25c1.26,.2-147.85,17.3-147.53,17.31l.22-.28,23.05,200.28c-1.05-.09,147.84-17.11,147.58-17.06h0Z" style="fill:#dbdbdb;"></path></g><g><g><path d="M137.76,99.59c3.19-.83,6.44-1.21,9.74-1.13-3.19,.83-6.44,1.21-9.74,1.13h0Z" style="fill:#c7c7c7;"></path><path d="M115.66,102.14c6.23-1.18,12.59-1.91,18.93-2.19-6.23,1.18-12.59,1.91-18.93,2.19h0Z" style="fill:#c7c7c7;"></path><path d="M76.11,106.71c11.49-1.78,23.11-3.12,34.71-4.01-11.49,1.78-23.12,3.12-34.71,4.01h0Z" style="fill:#c7c7c7;"></path><path d="M36.67,111.27c11.85-1.82,23.85-3.21,35.81-4.14-11.86,1.82-23.85,3.21-35.81,4.14h0Z" style="fill:#c7c7c7;"></path></g><g><path d="M133.67,108.73c4.88-1.03,9.83-1.6,14.82-1.71-4.88,1.03-9.83,1.6-14.82,1.71h0Z" style="fill:#c7c7c7;"></path><path d="M89.53,113.83c12.94-1.95,26.02-3.46,39.07-4.52-12.94,1.95-26.02,3.46-39.07,4.52h0Z" style="fill:#c7c7c7;"></path><path d="M65.09,116.65c6.66-1.23,13.44-2.01,20.21-2.34-6.66,1.23-13.44,2.01-20.21,2.34h0Z" style="fill:#c7c7c7;"></path><path d="M37.66,119.82c7.78-1.36,15.69-2.27,23.58-2.73-7.79,1.36-15.69,2.27-23.58,2.73h0Z" style="fill:#c7c7c7;"></path></g><g><path d="M130.33,117.78c6.3-1.19,12.73-1.93,19.14-2.21-6.3,1.19-12.73,1.93-19.14,2.21h0Z" style="fill:#c7c7c7;"></path><path d="M103.6,120.87c7.43-1.32,14.99-2.19,22.52-2.6-7.43,1.32-14.99,2.19-22.52,2.6h0Z" style="fill:#c7c7c7;"></path><path d="M60.21,125.89c13.01-1.96,26.16-3.48,39.28-4.54-13.01,1.96-26.17,3.48-39.28,4.54h0Z" style="fill:#c7c7c7;"></path><path d="M38.65,128.38c5.54-1.1,11.21-1.76,16.86-1.95-5.54,1.1-11.21,1.75-16.86,1.95h0Z" style="fill:#c7c7c7;"></path></g><g><path d="M138.8,125.47c3.83-.9,7.73-1.36,11.67-1.35-3.83,.91-7.73,1.35-11.67,1.35h0Z" style="fill:#c7c7c7;"></path><path d="M118.09,127.86c5.51-1.1,11.14-1.75,16.76-1.94-5.51,1.1-11.14,1.75-16.76,1.94h0Z" style="fill:#c7c7c7;"></path><path d="M87.77,131.37c8.59-1.45,17.31-2.46,26.01-3.01-8.59,1.45-17.31,2.46-26.01,3.01h0Z" style="fill:#c7c7c7;"></path><path d="M69.95,133.43c4.29-.96,8.63-1.46,13.02-1.51-4.29,.96-8.63,1.46-13.02,1.51h0Z" style="fill:#c7c7c7;"></path><path d="M39.64,136.93c8.28-1.42,16.69-2.39,25.08-2.9-8.28,1.42-16.69,2.39-25.08,2.9h0Z" style="fill:#c7c7c7;"></path></g><g><path d="M132.31,134.89c6.3-1.19,12.73-1.93,19.14-2.21-6.3,1.19-12.73,1.93-19.14,2.21h0Z" style="fill:#c7c7c7;"></path><path d="M112.03,137.23c5.47-1.09,11.07-1.74,16.65-1.92-5.48,1.09-11.07,1.74-16.65,1.92h0Z" style="fill:#c7c7c7;"></path><path d="M94.18,139.3c4.65-1,9.36-1.55,14.11-1.63-4.65,1-9.36,1.54-14.11,1.63h0Z" style="fill:#c7c7c7;"></path><path d="M61.2,143.11c9.71-1.58,19.56-2.72,29.38-3.4-9.72,1.58-19.56,2.72-29.38,3.4h0Z" style="fill:#c7c7c7;"></path><path d="M40.63,145.49c5.28-1.07,10.62-1.69,16-1.85-5.28,1.08-10.62,1.69-16,1.85h0Z" style="fill:#c7c7c7;"></path></g><g><path d="M110.25,146.11c6.53-1.21,13.18-1.98,19.82-2.29-6.53,1.21-13.18,1.98-19.82,2.29h0Z" style="fill:#c7c7c7;"></path><path d="M87.4,148.75c6.31-1.19,12.74-1.93,19.16-2.21-6.31,1.19-12.74,1.93-19.16,2.21h0Z" style="fill:#c7c7c7;"></path><path d="M71.92,150.54c3.86-.91,7.78-1.36,11.74-1.36-3.86,.91-7.78,1.36-11.74,1.36h0Z" style="fill:#c7c7c7;"></path><path d="M41.62,154.04c8.57-1.45,17.26-2.45,25.93-3-8.57,1.45-17.26,2.45-25.93,3h0Z" style="fill:#c7c7c7;"></path></g><g><path d="M142.22,159.75c4.01-.92,8.08-1.4,12.2-1.41-4.01,.93-8.08,1.4-12.2,1.41h0Z" style="fill:#c7c7c7;"></path><path d="M128.9,161.29c3.51-.87,7.09-1.28,10.7-1.24-3.51,.87-7.09,1.28-10.7,1.24h0Z" style="fill:#c7c7c7;"></path><path d="M102.83,164.3c7.43-1.32,14.99-2.19,22.52-2.6-7.43,1.32-14.99,2.19-22.52,2.6h0Z" style="fill:#c7c7c7;"></path><path d="M86.07,166.24c4.16-.94,8.38-1.43,12.65-1.46-4.16,.95-8.38,1.43-12.65,1.46h0Z" style="fill:#c7c7c7;"></path><path d="M62.59,168.95c6.36-1.19,12.85-1.94,19.32-2.23-6.37,1.2-12.85,1.94-19.32,2.23h0Z" style="fill:#c7c7c7;"></path><path d="M43.6,171.15c4.78-1.01,9.62-1.58,14.51-1.68-4.78,1.02-9.62,1.57-14.51,1.68h0Z" style="fill:#c7c7c7;"></path></g><g><path d="M134.35,169.33c6.94-1.26,14.01-2.08,21.06-2.43-6.95,1.26-14.01,2.08-21.06,2.43h0Z" style="fill:#c7c7c7;"></path><path d="M109.53,172.19c7.02-1.27,14.17-2.1,21.29-2.46-7.02,1.27-14.17,2.1-21.29,2.46h0Z" style="fill:#c7c7c7;"></path><path d="M94,173.99c3.85-.91,7.77-1.36,11.72-1.36-3.85,.91-7.77,1.36-11.72,1.36h0Z" style="fill:#c7c7c7;"></path><path d="M72.01,176.53c6.04-1.16,12.21-1.87,18.36-2.12-6.05,1.16-12.21,1.87-18.36,2.12h0Z" style="fill:#c7c7c7;"></path><path d="M44.58,179.7c7.78-1.36,15.69-2.27,23.58-2.73-7.79,1.36-15.69,2.27-23.58,2.73h0Z" style="fill:#c7c7c7;"></path></g><g><path d="M97.44,182.26c5.94-1.15,12-1.85,18.04-2.09-5.94,1.15-12,1.85-18.04,2.09h0Z" style="fill:#c7c7c7;"></path><path d="M85.01,183.7c3.07-.82,6.2-1.18,9.37-1.08-3.07,.82-6.2,1.18-9.37,1.08h0Z" style="fill:#c7c7c7;"></path><path d="M65.21,185.99c5.17-1.06,10.41-1.67,15.68-1.81-5.17,1.06-10.41,1.66-15.68,1.81h0Z" style="fill:#c7c7c7;"></path><path d="M45.57,188.26c5.1-1.05,10.26-1.65,15.47-1.79-5.1,1.05-10.26,1.65-15.47,1.79h0Z" style="fill:#c7c7c7;"></path></g><path d="M48.55,213.97c14.36-2.11,28.86-3.79,43.33-5.01-14.36,2.11-28.87,3.79-43.33,5.01h0Z" style="fill:#c7c7c7;"></path><path d="M106.65,207.25c17.19-2.44,35.41-4.54,52.72-6.09-17.22,2.43-35.42,4.55-52.72,6.09h0Z" style="fill:#c7c7c7;"></path><path d="M70.57,90.63c13.26-1.99,26.67-3.54,40.04-4.63-13.27,1.99-26.67,3.54-40.04,4.63h0Z" style="fill:#ebebeb;"></path><path d="M68.5,72.69c13.26-1.99,26.67-3.54,40.04-4.63-13.27,1.99-26.67,3.54-40.04,4.63h0Z" style="fill:#ebebeb;"></path><path d="M110.47,202.9c1.03-.9,2.1-1.77,3.21-2.58,1.12-.8,2.24-1.61,3.55-2.12,.16-.07,.34-.1,.51-.16,.14-.07,.46-.05,.59,.12,.27,.32,.3,.69,.36,1.03,.08,.7,.06,1.39,.03,2.08-.08,1.38-.26,2.74-.48,4.1-.45,2.71-1.01,5.41-1.82,8.05-.21,.66-.43,1.32-.76,1.95-.09,.16-.18,.32-.32,.47-.07,.07-.16,.17-.34,.2-.09,.02-.2-.02-.26-.06l-.14-.11c-.29-.34-.35-.71-.42-1.06-.18-1.42,.01-2.8,.25-4.16,.25-1.36,.61-2.7,1.1-3.99,.5-1.29,1.07-2.57,2.01-3.63,.48-.51,1.08-.94,1.78-1.12,.35-.09,.72-.12,1.08-.03,.4,.1,.63,.43,.84,.68,.21,.27,.42,.54,.66,.75,.25,.21,.56,.3,.86,.18,.6-.23,1.1-.75,1.6-1.2,.25-.24,.49-.48,.75-.71,.13-.11,.26-.23,.42-.32,.14-.08,.34-.23,.56-.09,.3,.3,.28,.67,.45,.96,.12,.31,.46,.46,.75,.36,.54-.34,.94-.95,1.35-1.48,.41-.55,.79-1.12,1.18-1.68,.77-1.13,1.53-2.28,2.32-3.4,.4-.56,.8-1.12,1.24-1.65,.22-.27,.45-.53,.71-.77,.13-.12,.27-.24,.43-.33,.09-.04,.17-.09,.29-.1,.12-.02,.26,.05,.33,.13,.26,.36,.24,.72,.27,1.07,0,.35-.01,.7-.05,1.04-.07,.69-.18,1.37-.32,2.05-.28,1.35-.63,2.69-1.19,3.97-.15,.32-.3,.64-.55,.93-.11,.13-.31,.32-.57,.31-.19,0-.39-.03-.57-.09-.71-.25-1.29-.77-1.57-1.51-.06-.19-.09-.42,0-.65,.05-.12,.14-.22,.23-.28,.11-.08,.25-.11,.34-.12,.41-.03,.74,.06,1.09,.13,.68,.16,1.34,.36,2,.56,.66,.2,1.31,.41,1.97,.59,.33,.09,.66,.17,.98,.23,.16,.03,.32,.05,.46,.05,.13,0,.24-.04,.36-.12,.48-.32,.75-.99,1.21-1.56,.23-.28,.54-.58,.98-.65,.11-.02,.27-.04,.43,.09,.16,.13,.18,.29,.19,.4,.02,.22-.02,.39-.04,.57-.06,.32-.05,.71,.04,.72,.11,.08,.5-.03,.78-.13,.6-.23,1.12-.64,1.62-1.1,.25-.23,.5-.47,.8-.69,.3-.2,.64-.43,1.11-.4,.84,.13,1.34,.67,1.89,1.07,.27,.21,.54,.42,.8,.55,.13,.06,.25,.07,.27,.04,.11-.06,.24-.18,.36-.29,.49-.45,.95-.96,1.39-1.47,.87-1.04,1.68-2.14,2.28-3.34,.28-.59,.54-1.25,.46-1.84-.07-.61-.73-.82-1.4-.85-1.33-.1-2.7,.13-3.99,.52-.65,.2-1.28,.45-1.87,.77-.29,.16-.57,.35-.81,.57-.23,.21-.42,.5-.32,.74,.1,.24,.42,.41,.72,.52,.31,.11,.65,.18,.98,.27,.66,.15,1.34,.27,2.01,.35,2.72,.32,5.47,.01,8.2-.16v.05c-2.72,.24-5.47,.64-8.23,.35-.69-.07-1.37-.18-2.05-.33-.34-.08-.67-.15-1.01-.26-.32-.13-.7-.27-.89-.67-.17-.45,.14-.83,.38-1.06,.26-.25,.56-.45,.86-.62,.61-.35,1.26-.61,1.92-.82,1.32-.42,2.71-.67,4.12-.59,.34,.03,.72,.06,1.08,.23,.36,.16,.65,.54,.71,.94,.11,.79-.19,1.47-.47,2.11-.61,1.27-1.44,2.39-2.33,3.45-.45,.53-.91,1.04-1.43,1.52-.14,.12-.26,.23-.45,.35-.28,.16-.54,.05-.71-.02-.36-.17-.62-.39-.9-.61-.53-.4-1.09-.89-1.63-.96-.51-.02-1.04,.52-1.54,.97-.51,.46-1.08,.93-1.77,1.2-.35,.09-.67,.32-1.21,.09-.27-.17-.32-.48-.32-.66,0-.2,.02-.38,.05-.55,.02-.17,.05-.34,.04-.46,0-.06-.03-.08,0-.06,.03,.01,0,0-.06,0-.25,.04-.48,.23-.68,.48-.42,.48-.66,1.18-1.33,1.65-.16,.11-.39,.19-.6,.19-.2,0-.38-.02-.56-.05-.35-.06-.69-.15-1.02-.24-.67-.19-1.32-.4-1.98-.6-.65-.2-1.31-.41-1.96-.56-.32-.07-.67-.15-.95-.13-.22,0-.32,.22-.23,.5,.19,.56,.72,1.06,1.29,1.26,.15,.05,.3,.08,.44,.08,.09,.02,.18-.06,.29-.18,.2-.23,.36-.53,.5-.84,.56-1.23,.92-2.56,1.22-3.88,.14-.67,.26-1.34,.34-2.01,.04-.34,.06-.68,.06-1.01,0-.32-.03-.7-.18-.9-.12-.17-.48,.1-.7,.31-.25,.23-.47,.48-.69,.74-.44,.52-.85,1.07-1.25,1.63-.8,1.11-1.57,2.25-2.35,3.38-.39,.56-.79,1.13-1.2,1.68-.43,.53-.79,1.13-1.43,1.52-.38,.14-.8-.09-.94-.43-.17-.3-.2-.71-.41-.89-.09-.07-.25,.01-.39,.1-.14,.09-.26,.2-.39,.31-.25,.23-.49,.47-.74,.71-.5,.47-.97,.99-1.66,1.27-.35,.15-.79,.04-1.06-.2-.28-.23-.49-.52-.71-.78-.21-.26-.43-.54-.72-.59-.31-.07-.64-.04-.96,.04-.64,.17-1.2,.57-1.65,1.06-.88,1.01-1.44,2.29-1.92,3.55-.46,1.28-.81,2.61-1.04,3.95-.22,1.33-.39,2.72-.21,4.03,.05,.32,.15,.65,.31,.83l.06,.05s-.02,0-.02,0c0,0,.04-.02,.09-.07,.09-.1,.17-.24,.25-.38,.3-.59,.53-1.23,.74-1.88,.83-2.6,1.42-5.28,1.89-7.98,.23-1.35,.42-2.71,.52-4.07,.04-.68,.07-1.36,0-2.03-.04-.32-.1-.68-.28-.89-.1-.09-.18-.12-.35-.06-.16,.05-.32,.07-.48,.14-1.26,.48-2.41,1.25-3.54,2.02-1.12,.78-2.21,1.62-3.27,2.49l-.03-.04Z" style="fill:#263238;"></path><g><path d="M80.19,198.48c-.46,.1-.87-.19-.99-.59-.05-.17-.04-.36,.03-.54,.27-.66-.35-1.31-1-1.13-.04,.01-.07,.02-.11,.04-.49,.22-1.02-.07-1.15-.54-.03-.12-.05-.24-.02-.38,.12-.64-.49-1.12-1.05-.96-.09,.03-.18,.07-.27,.13-.48,.36-1.15,.09-1.3-.44-.02-.06-.02-.14-.03-.21-.02-.58-.58-.92-1.07-.78-.14,.04-.28,.12-.39,.24-.44,.49-1.25,.3-1.43-.33v-.03c-.13-.5-.64-.73-1.06-.61-.19,.06-.37,.18-.49,.39-.11,.2-.29,.33-.49,.39-.37,.11-.8-.04-.99-.44-.19-.4-.62-.54-.99-.43-.25,.07-.47,.25-.56,.54-.21,.64-1.05,.79-1.45,.26-.23-.3-.59-.39-.9-.3-.3,.09-.56,.35-.6,.72-.04,.37-.3,.63-.61,.72-.25,.07-.54,.03-.77-.17-.24-.2-.51-.24-.76-.16-.36,.1-.65,.44-.6,.89,.05,.44-.24,.79-.61,.9-.19,.06-.42,.04-.62-.07-.65-.35-1.41,.27-1.2,.98v.03c.17,.48-.13,.94-.56,1.06-.14,.04-.3,.05-.46,0-.65-.19-1.21,.43-1.04,1.02,.02,.07,.05,.13,.09,.2,.29,.49,0,1.08-.49,1.23-.09,.03-.19,.04-.3,.03-.62-.04-1.02,.55-.87,1.07,.03,.12,.1,.23,.19,.33,.42,.47,.19,1.2-.38,1.37-.04,.01-.08,.02-.12,.03-.54,.08-.82,.61-.69,1.06,.05,.17,.16,.33,.32,.45,.16,.12,.27,.28,.31,.44,.11,.4-.08,.87-.53,1.02-.45,.16-.63,.63-.52,1.03,.06,.22,.21,.42,.46,.52h0l1.52-.43c.07-5.58,3.76-10.69,9.4-12.3,5.65-1.61,11.48,.77,14.49,5.47l1.52-.43h0c.15-.23,.18-.48,.12-.7-.11-.4-.51-.7-.98-.6Zm1.39,8.91c-.07,5.58-3.76,10.69-9.41,12.3-5.64,1.61-11.48-.77-14.48-5.47l-1.53,.44c-.15,.22-.18,.47-.11,.7,.11,.4,.51,.7,.98,.59,.46-.1,.87,.19,.99,.59,.05,.17,.04,.36-.03,.55-.27,.66,.34,1.31,.99,1.12,.04-.01,.08-.02,.12-.04,.49-.22,1.02,.08,1.15,.54,.03,.12,.04,.25,.01,.38-.11,.64,.49,1.12,1.05,.96,.09-.03,.18-.07,.27-.13,.48-.36,1.15-.09,1.3,.44,.02,.06,.02,.14,.03,.21,.02,.59,.58,.93,1.07,.79,.14-.04,.28-.13,.39-.25,.44-.49,1.25-.3,1.43,.33v.04c.14,.5,.64,.73,1.06,.6,.19-.06,.37-.18,.49-.39,.11-.2,.3-.33,.49-.38,.37-.11,.8,.04,.99,.43,.19,.4,.62,.55,.98,.44,.25-.07,.46-.26,.56-.55,.09-.28,.31-.47,.56-.54,.31-.09,.67,0,.9,.29,.23,.29,.58,.38,.89,.29,.31-.09,.57-.35,.61-.72,.03-.37,.3-.63,.61-.72,.25-.07,.54-.03,.76,.16,.24,.2,.52,.24,.77,.17,.37-.1,.66-.45,.61-.9-.05-.43,.24-.79,.61-.89,.19-.06,.42-.05,.62,.06,.65,.35,1.4-.25,1.2-.96v-.04c-.16-.48,.13-.94,.56-1.07,.14-.04,.3-.05,.46,0,.66,.19,1.22-.43,1.05-1.03-.02-.06-.05-.13-.09-.2-.29-.49,0-1.08,.49-1.23,.09-.03,.19-.04,.3-.03,.62,.05,1.02-.53,.87-1.06-.03-.12-.1-.23-.19-.34-.42-.46-.19-1.2,.4-1.37,.04-.01,.08-.02,.12-.03,.54-.07,.83-.6,.7-1.06-.05-.17-.16-.33-.32-.45-.16-.12-.27-.27-.32-.45-.11-.4,.08-.87,.53-1.02,.45-.16,.63-.63,.52-1.02-.06-.22-.21-.42-.46-.53l-1.53,.44Z" style="fill:#ebebeb;"></path><path d="M56.87,206.74h-.33c.21-5.24,3.73-9.72,8.75-11.15,5.03-1.44,10.38,.5,13.32,4.83l-.28,.19c-2.86-4.21-8.06-6.09-12.96-4.69-4.89,1.4-8.31,5.75-8.51,10.83Z" style="fill:#ebebeb;"></path><path d="M69.98,219.22c-4.42,.51-8.8-1.45-11.36-5.21l.28-.19c2.85,4.2,8.05,6.09,12.94,4.69,4.89-1.4,8.32-5.75,8.51-10.82h.33c-.2,5.23-3.72,9.71-8.75,11.14-.65,.18-1.3,.31-1.95,.39Z" style="fill:#ebebeb;"></path><path d="M55.01,212.71l-.06-.14c-.16-.41-.31-.84-.45-1.33-.14-.48-.24-.93-.32-1.36l-.03-.15,.15-.04,27.91-7.98,.06,.14c.16,.41,.31,.84,.45,1.32,.14,.49,.25,.94,.32,1.37l.03,.15-.15,.04-27.91,7.98Zm-.47-2.74c.07,.37,.17,.76,.29,1.18,.12,.42,.25,.8,.38,1.16l27.47-7.85c-.07-.37-.17-.76-.29-1.19h0c-.12-.42-.24-.8-.38-1.15l-27.47,7.85Z" style="fill:#ebebeb;"></path></g></g></g></g><g><rect x="58.41" y="28.16" width="52.76" height="19.89" transform="translate(-3.82 9.99) rotate(-6.59)" style="fill:#c7c7c7;"></rect><path d="M98.66,17.64l-32.53,3.76-.43,8.9,35.89-4.15-2.93-8.51Zm-15.3,8.14c-1.06,.12-2.02-.63-2.14-1.7-.12-1.06,.64-2.02,1.7-2.14,1.06-.12,2.02,.64,2.14,1.7,.12,1.06-.63,2.02-1.7,2.14Z" style="fill:#c7c7c7;"></path><polygon points="101.6 26.16 65.7 30.3 65.8 28.31 100.94 24.25 101.6 26.16" style="fill:#a6a6a6;"></polygon></g></g></g></g><g id="freepik--Floor--inject-256"><path d="M11.04,435.93c205.34-.61,435.69-.62,641.03,0-205.34,.62-435.69,.61-641.03,0h0Z" style="fill:#263238;"></path></g><g id="freepik--Sample--inject-256"><g><g><path d="M427.56,198.91c-37.75,48.53-104.95,60.64-156.73,30.72l-40.57,21.95,14.07-42.56c-41.74-42.81-46.54-110.93-8.79-159.47C276.79-3.46,353.21-13.01,406.23,28.23c53.03,41.25,62.57,117.66,21.33,170.68Z" style="fill:#fff;"></path><path d="M427.56,198.91c-36.07,47.59-105.4,61.23-156.84,30.91,.93-.08-40.5,21.91-40.33,22l-.58,.31,.21-.62,14.03-42.58c-32.56-31.6-43.8-86.05-26.26-129.11C244.12,11.01,328.01-18.67,391.77,18.25c64.08,35.85,81.44,123.12,35.8,180.67h0Zm0,0c45.39-57.51,27.98-144.6-36.06-180.21-63.6-36.54-146.5-6.92-172.83,61.47-17.41,43.21-6.86,95.71,26.01,128.78-.05,.16-14.11,42.55-14.17,42.72l-.37-.31c.21,0,40.61-22.15,40.8-21.92,51.27,30.39,120.51,16.88,156.62-30.53h0Z" style="fill:#263238;"></path></g><g style="opacity: .3;"><circle cx="331.55" cy="124.24" r="110.74" style="fill:#ebebeb;"></circle><path d="M418.97,192.23c-26.52,34.99-74.61,50.99-116.83,38.98-76.14-20.8-106.82-112.96-58.38-175.27C292.22-6.34,389.11,.72,428,69.4c22.02,37.97,18.36,88.52-9.03,122.83h0Zm0,0c27.25-34.33,30.8-84.81,8.7-122.65C388.85,1.45,292.58-5.48,244.54,56.55c-48.31,61.82-17.89,153.44,57.7,174.3,42.11,12.1,90.16-3.75,116.73-38.62h0Z" style="fill:#263238;"></path></g><g><path d="M275.94,56.54c-5.13-10.45,22.47-34.63,69.03-31.3,33.22,2.37,59.74,22.42,57.08,35.66-1.53,7.66-24.25,14.39-38.5,9.89-15.85-5.01-28.42-12.28-40.53-13.4-12.11-1.12-42.44,8.6-47.08-.85Z" style="fill:#fff;"></path><path d="M263.16,62.5c7.69-.62,12.81,17.75,10.35,23.1-2.46,5.35-18.24,14.69-24.72,8.8-6.48-5.89,.69-30.8,14.37-31.9Z" style="fill:#fff;"></path></g><path d="M280.98,67.12c2.37-2.13,8.65,2.62,9.18,4.99,.53,2.37-2.48,6.61-6.08,6.29s-7.31-7.51-3.09-11.29Z" style="fill:#fff; opacity: .4;"></path><path d="M385.33,210.66c-4.13-3.18-27.27,5.01-51.19,4.96-17.42-.03-51.02-11.59-52.32-7.15-1.16,3.96,30.22,21.45,54.28,21.1,24.07-.35,53.48-15.64,49.23-18.91Z" style="fill:#030402; opacity: .05;"></path><g><path d="M334.9,68.11c-29.7,26.87-3.86,78.2,23.88,83.28,27.74,5.08,64.55-22.95,56.72-55.45-6.93-28.77-46.87-58.36-80.61-27.84Z" style="fill:#00BFA5;"></path><g style="opacity: .1;"><path d="M334.9,68.11c-29.7,26.87-3.86,78.2,23.88,83.29,27.75,5.08,64.55-22.95,56.73-55.46-6.93-28.77-46.88-58.36-80.61-27.83Zm77.5,28.26c7.31,30.36-27.06,56.53-52.97,51.79-25.91-4.75-50.04-52.69-22.3-77.78,31.5-28.5,68.8-.87,75.27,25.99Z" style="fill:#030402;"></path></g><g style="opacity: .1;"><path d="M348.95,82.47c-17.29,15.64-2.25,45.52,13.9,48.48,16.15,2.96,37.57-13.36,33.02-32.28-4.03-16.75-27.28-33.97-46.92-16.2Z" style="fill:#030402;"></path></g><g style="opacity: .1;"><path d="M335.31,83.35c-1.33,1.21-.17,3.51,1.07,3.74,1.25,.23,2.9-1.03,2.55-2.49-.31-1.29-2.1-2.62-3.62-1.25Z" style="fill:#030402;"></path></g><g style="opacity: .1;"><path d="M401.83,85.8c-1.33,1.21-.17,3.51,1.07,3.74,1.25,.23,2.9-1.03,2.55-2.49-.31-1.29-2.1-2.62-3.62-1.25Z" style="fill:#030402;"></path></g><g style="opacity: .1;"><path d="M391.48,78.04c-.96,.87-.12,2.53,.77,2.69,.9,.16,2.09-.74,1.83-1.79-.22-.93-1.51-1.89-2.6-.9Z" style="fill:#030402;"></path></g><g style="opacity: .1;"><path d="M342.09,131.42c-.96,.87-.12,2.53,.77,2.69,.9,.16,2.09-.74,1.83-1.79-.22-.93-1.51-1.89-2.6-.9Z" style="fill:#030402;"></path></g><g style="opacity: .1;"><path d="M334.03,91.56c.28,.85,1.57,.79,1.93,.27,.36-.52,.12-1.53-.62-1.67-.65-.12-1.62,.43-1.3,1.4Z" style="fill:#030402;"></path></g><g style="opacity: .1;"><path d="M397.2,127.91c.28,.85,1.57,.79,1.93,.27,.36-.52,.12-1.53-.62-1.67-.65-.12-1.62,.43-1.3,1.4Z" style="fill:#030402;"></path></g><g style="opacity: .1;"><path d="M391.58,85.04c.28,.85,1.57,.79,1.93,.27,.36-.52,.12-1.53-.62-1.67-.65-.12-1.62,.43-1.3,1.4Z" style="fill:#030402;"></path></g><g style="opacity: .2;"><path d="M342.46,76.03c-2.09-1.81,2.88-8.75,13.38-12.34,7.49-2.56,15.14-.64,15.79,2.51,.37,1.82-3.97,5.4-7.51,5.73-3.93,.37-7.36-.05-10.11,.83-2.75,.88-9.66,4.91-11.55,3.27Z" style="fill:#fff;"></path><path d="M374.76,68.12c-.08-1.83,4.33-2.89,5.57-2.26,1.25,.63,3.33,4.46,1.87,5.95-1.46,1.49-7.31-.43-7.45-3.69Z" style="fill:#fff;"></path></g></g><g><g><path d="M301.14,127.6c5.74-2.89,9.5-7.75,8.44-10.75-1.08-3.06-7.02-4.4-13.31-3.06-5.66,1.22-9.01,5.41-7.28,10.31,1.74,4.93,6.97,6.1,12.15,3.5Z" style="fill:#c7c7c7;"></path><path d="M290.16,121.17c-2.17,1.29-4.82,1.32-7.92,1.1-8.78-.93-12.18,3.84-13.25,11.88-.87,5.16-1.9,13.34-8.9,11.48-4.18-1.01-8.38-4.59-13.12-3.91-4.94,.84-6.91,6.04-10.62,8.64,3.77-2.33,5.98-7.32,10.71-7.92,4.8-.32,8.13,3.24,12.67,4.6,8.17,2.59,10.46-6.49,11.63-12.39,1.3-6.5,3.4-10.26,10.63-9,2.91,.36,6.69,.67,9.99-1.06l-1.82-3.42h0Z" style="fill:#c7c7c7;"></path></g><g><path d="M322.68,125.3c5.19-3.81,11.22-4.95,13.42-2.65,2.24,2.35,.74,8.25-3.31,13.25-3.65,4.49-8.91,5.57-12.49,1.81-3.6-3.78-2.27-8.98,2.39-12.41Z" style="fill:#c7c7c7;"></path><path d="M323.42,138c-2.13,1.34-3.36,3.7-4.58,6.56-3.16,8.24-8.94,9.11-16.6,6.42-4.99-1.56-12.75-4.36-14.27,2.72-.99,4.19,.29,9.55-2.46,13.47-2.99,4.02-8.52,3.42-12.52,5.55,3.79-2.3,9.24-2.01,11.92-5.95,2.46-4.13,.8-8.72,1.65-13.38,1.4-8.46,10.52-6.37,16.32-4.75,6.38,1.79,10.68,1.63,12.84-5.39,1-2.75,2.44-6.27,5.48-8.42l2.23,3.17h0Z" style="fill:#c7c7c7;"></path></g><g><path d="M325.09,158.4c4.81-4.27,10.72-5.96,13.12-3.87,2.44,2.13,1.49,8.15-2.08,13.5-3.22,4.81-8.36,6.36-12.27,2.95-3.94-3.44-3.09-8.74,1.24-12.58Z" style="fill:#c7c7c7;"></path><path d="M327,170.98c-2,1.53-3.01,3.99-3.96,6.95-2.39,8.5-8.07,9.9-15.94,7.92-5.11-1.1-13.09-3.17-13.96,4.02-.61,4.26,1.17,9.48-1.22,13.64-2.61,4.28-8.17,4.19-11.96,6.67,3.56-2.64,9.02-2.84,11.32-7.02,2.07-4.34,0-8.75,.42-13.48,.62-8.55,9.9-7.31,15.81-6.23,6.52,1.19,10.79,.64,12.29-6.54,.74-2.83,1.85-6.46,4.68-8.89l2.51,2.96h0Z" style="fill:#c7c7c7;"></path></g></g><g><rect x="239.32" y="7.5" width="13.16" height="51.98" transform="translate(95.7 -164.07) rotate(45)" style="fill:#00BFA5;"></rect><rect x="239.32" y="7.5" width="13.16" height="51.98" transform="translate(48.35 183.69) rotate(-45)" style="fill:#00BFA5;"></rect></g></g></g><g id="freepik--Tubes--inject-256"><g><g><g><g style="opacity: .5;"><path d="M365.3,267.24l.53,136.33c.03,7.7,6.31,13.91,14.01,13.88,7.7-.03,13.91-6.31,13.88-14.01l-.53-136.33-27.89,.13Z" style="fill:#ebebeb;"></path><path d="M365.3,267.24c.22,31.83,.66,97.46,.81,128.57,.09,2.8-.14,7.09,.23,9.82,.9,6.49,6.97,11.59,13.5,11.47,6.52,.03,12.51-5.12,13.35-11.6,.36-2.7,.07-7.02,.15-9.82-.09-30.86-.21-97.04-.27-128.56,.73,.13-27.92,.16-27.77,.13h0Zm0,0l27.88-.24h.12v.12c.19,31.83,.58,97.44,.74,128.55-.06,2.88,.22,7.06-.13,9.93-.85,6.84-7.21,12.26-14.07,12.2-6.86,.1-13.22-5.26-14.14-12.08-.37-2.85-.13-7.03-.21-9.94-.09-30.87-.16-97.02-.19-128.54h0Z" style="fill:#263238;"></path></g><path d="M367.07,301.42l.38,102.06c.03,6.8,5.58,12.3,12.38,12.27,6.8-.03,12.3-5.58,12.27-12.38l-.38-102.06-24.65,.11Z" style="fill:#00BFA5;"></path><rect x="360.93" y="256.76" width="36.62" height="18.37" transform="translate(759.67 530.18) rotate(179.74)" style="fill:#455a64;"></rect></g><g><g style="opacity: .5;"><path d="M278.92,267.24l.53,136.33c.04,7.7,6.31,13.91,14.01,13.88,7.7-.03,13.91-6.31,13.88-14.01l-.53-136.33-27.89,.13Z" style="fill:#ebebeb;"></path><path d="M278.92,267.24c.22,31.83,.66,97.46,.81,128.57,.09,2.8-.14,7.09,.23,9.82,.9,6.49,6.97,11.59,13.5,11.47,6.52,.04,12.51-5.12,13.35-11.6,.36-2.7,.07-7.02,.15-9.82-.09-30.86-.21-97.04-.27-128.56,.73,.13-27.92,.16-27.77,.13h0Zm0,0l27.88-.24h.12v.12c.19,31.83,.58,97.44,.74,128.55-.06,2.88,.22,7.06-.13,9.93-.85,6.84-7.21,12.26-14.07,12.2-6.86,.1-13.22-5.26-14.14-12.08-.37-2.85-.13-7.03-.21-9.94-.09-30.87-.16-97.02-.19-128.54h0Z" style="fill:#263238;"></path></g><path d="M280.69,301.42l.38,102.06c.03,6.8,5.58,12.3,12.38,12.27,6.8-.03,12.3-5.58,12.27-12.38l-.38-102.06-24.65,.11Z" style="fill:#00BFA5;"></path><polygon points="285.22 401.92 283.51 401.92 283.51 265.95 290.05 265.95 285.22 401.92" style="fill:#fff; opacity: .5;"></polygon><rect x="274.54" y="256.76" width="36.62" height="18.37" transform="translate(586.91 530.57) rotate(179.74)" style="fill:#455a64;"></rect></g><g><g style="opacity: .5;"><path d="M322.34,267.24l.53,136.33c.03,7.7,6.31,13.91,14.01,13.88,7.7-.03,13.91-6.31,13.88-14.01l-.53-136.33-27.89,.13Z" style="fill:#ebebeb;"></path><path d="M322.34,267.24c.22,31.83,.66,97.46,.81,128.57,.09,2.8-.14,7.09,.23,9.82,.9,6.49,6.97,11.59,13.5,11.47,6.52,.04,12.51-5.12,13.35-11.6,.36-2.7,.07-7.02,.15-9.82-.09-30.86-.21-97.04-.27-128.56,.73,.13-27.92,.16-27.77,.13h0Zm0,0l27.88-.24h.12v.12c.19,31.83,.58,97.44,.74,128.55-.06,2.88,.22,7.06-.13,9.93-.85,6.84-7.21,12.26-14.07,12.2-6.86,.1-13.22-5.26-14.14-12.08-.37-2.85-.13-7.03-.21-9.94-.09-30.87-.16-97.02-.19-128.54h0Z" style="fill:#263238;"></path></g><path d="M324.11,301.42l.38,102.06c.03,6.8,5.58,12.3,12.38,12.27,6.8-.03,12.3-5.58,12.27-12.38l-.38-102.06-24.65,.11Z" style="fill:#00BFA5;"></path><polygon points="328.64 401.92 326.93 401.92 326.93 265.95 333.47 265.95 328.64 401.92" style="fill:#fff; opacity: .5;"></polygon><rect x="317.96" y="256.76" width="36.62" height="18.37" transform="translate(673.74 530.38) rotate(179.74)" style="fill:#455a64;"></rect></g></g><g><g><path d="M263.79,329.34l.04,13.21h145.52v-13.21h-16.37v4.42c0,2.18-6.16,3.94-13.74,3.94s-13.73-1.76-13.73-3.94v-4.42h-15.5v4.42c0,2.18-6.14,3.94-13.73,3.94s-13.73-1.76-13.73-3.94v-4.42h-15.51v4.42c0,2.18-6.14,3.94-13.73,3.94s-13.73-1.76-13.73-3.94v-4.42h-15.79Z" style="fill:#00BFA5;"></path><path d="M263.79,329.34l.04,13.21h145.52v-13.21h-16.37v4.42c0,2.18-6.16,3.94-13.74,3.94s-13.73-1.76-13.73-3.94v-4.42h-15.5v4.42c0,2.18-6.14,3.94-13.73,3.94s-13.73-1.76-13.73-3.94v-4.42h-15.51v4.42c0,2.18-6.14,3.94-13.73,3.94s-13.73-1.76-13.73-3.94v-4.42h-15.79Z" style="fill:#030402; opacity: .2;"></path></g><g><rect x="263.79" y="342.55" width="145.56" height="5.32" transform="translate(673.14 690.42) rotate(180)" style="fill:#00BFA5;"></rect><rect x="263.79" y="342.55" width="145.56" height="5.32" transform="translate(673.14 690.42) rotate(180)" style="fill:#030402; opacity: .4;"></rect></g></g><g><g><rect x="409.34" y="276.61" width="7.23" height="159.32" transform="translate(825.92 712.54) rotate(180)" style="fill:#00BFA5;"></rect><rect x="263.79" y="426.04" width="145.56" height="9.89" transform="translate(673.14 861.98) rotate(180)" style="fill:#00BFA5;"></rect><rect x="256.56" y="276.61" width="7.23" height="159.32" transform="translate(520.35 712.54) rotate(180)" style="fill:#00BFA5;"></rect></g><g style="opacity: .4;"><rect x="409.34" y="276.61" width="7.23" height="159.32" transform="translate(825.92 712.54) rotate(180)" style="fill:#030402;"></rect><rect x="263.79" y="426.04" width="145.56" height="9.89" transform="translate(673.14 861.98) rotate(180)" style="fill:#030402;"></rect><rect x="256.56" y="276.61" width="7.23" height="159.32" transform="translate(520.35 712.54) rotate(180)" style="fill:#030402;"></rect></g></g></g></g><g id="freepik--Microscope--inject-256"><g><path d="M11.04,435.93H31.31s4.84-74.6,49.99-78.33c23.89-1.97,45.92,15.03,63.06,34.15-16.98-19.27-47.08-44.15-75.78-44.15-43.23,0-57.55,88.33-57.55,88.33Z" style="fill:#263238;"></path><polygon points="144.81 204.89 113.73 141.52 103.21 155.75 129.87 204.89 144.81 204.89" style="fill:#263238;"></polygon><g><rect x="72.71" y="174.45" width="76" height="18.24" transform="translate(0 367.14) rotate(-117.81)" style="fill:#455a64;"></rect><polygon points="120.38 221.44 110.71 218.81 81.51 164.75 84.91 154.21 120.38 221.44" style="fill:#37474f;"></polygon></g><g><g><rect x="201.85" y="209.65" width="13.13" height="48.13" rx="2.65" ry="2.65" transform="translate(493.7 362.83) rotate(156.08)" style="fill:#37474f;"></rect><rect x="164.88" y="231.85" width="13.13" height="48.13" rx="2.65" ry="2.65" transform="translate(431.95 420.31) rotate(156.07)" style="fill:#37474f;"></rect><rect x="185.45" y="223.36" width="18.23" height="61.98" rx="3.59" ry="3.59" transform="translate(475.56 407.95) rotate(156.08)" style="fill:#37474f;"></rect></g><rect x="114.9" y="38.93" width="18.23" height="61.98" rx="3.59" ry="3.59" transform="translate(265.72 83.54) rotate(156.07)" style="fill:#37474f;"></rect><rect x="87.63" y="51.02" width="18.23" height="61.98" rx="3.59" ry="3.59" transform="translate(218.43 117.75) rotate(156.08)" style="fill:#37474f;"></rect><path d="M206.84,212.84L141.57,76.96s-18.63,.64-50.9,23.01l69.33,135.56s23.12-4.77,46.84-22.69Z" style="fill:#37474f;"></path><path d="M147.03,246.88s61.5-18.14,78.4-34.78l-5.38-12.13c-47.52,7.28-78.4,34.78-78.4,34.78l5.38,12.13Z" style="fill:#455a64;"></path><path d="M88.33,103.83s24.34-20.75,57.39-26.99l-5.65-12.01c-34.92-.6-57.39,26.99-57.39,26.99l5.65,12.01Z" style="fill:#455a64;"></path><path d="M133.66,185.57s26.9-17.8,50.08-23.55c1.42-.35,1.9-2.2,1.27-3.53l-6.32-13.44c-.62-1.33-2.11-1.63-3.53-1.27-31.21,7.92-50.08,23.55-50.08,23.55-1.33,.62-1.9,2.2-1.27,3.53l6.32,13.44c.62,1.33,2.2,1.9,3.53,1.27Z" style="fill:#455a64;"></path></g><g><path d="M90.3,169.01l-4.86-2.17s-67.87,30.1-64.35,111.02c2.33,53.61,41.44,90.67,41.44,90.67,0,0-47.57-61.36-29.78-118.18,17.78-56.81,57.56-81.35,57.56-81.35Z" style="fill:#455a64;"></path><path d="M26.57,283.44c3.9,49.44,35.96,85.09,35.96,85.09h48.67c22.31-29.36,57.82-46.52,57.82-46.52l-38.89,6.81-3.47-1.78-6.84-3.5s-9.86,15.08-24.69,14.74c-2.75-.06-5.69-.63-8.78-1.97-17.33-7.48-26.07-53.47-17.97-80.94,8.08-27.47,43.58-44.43,43.58-44.43l-21.65-41.94c-38.73,17.37-67.62,65.01-63.73,114.43Z" style="fill:#37474f;"></path><path d="M95.11,338.31s12.74,4.32,31.54-11.26l-6.84-3.5s-9.86,15.08-24.69,14.74h-.01Z" style="fill:#455a64;"></path></g><path d="M31.31,435.93H176.46c-3.62-5.66-9.9-15.86-18.22-27.08,0,0-.18-.25-.53-.73-.22-.29-.45-.59-.66-.88-.13-.17-.27-.36-.42-.56-.42-.55-.84-1.09-1.26-1.64-.1-.15-.22-.31-.35-.46-.45-.57-.9-1.16-1.36-1.73-.73-.94-1.54-1.94-2.43-3.03-.62-.77-1.24-1.52-1.89-2.29-.99-1.19-2.06-2.45-3.19-3.75-.57-.67-1.16-1.34-1.79-2.03-17.15-19.12-39.17-36.13-63.06-34.15-45.15,3.73-49.99,78.33-49.99,78.33Z" style="fill:#455a64;"></path><g><rect x="135.35" y="305.52" width="143.17" height="18.13" transform="translate(439.33 610.85) rotate(175.23)" style="fill:#263238;"></rect><rect x="103.91" y="312.8" width="31.74" height="18.13" transform="translate(265.94 632.64) rotate(175.22)" style="fill:#37474f;"></rect></g><g><path d="M147.82,423.98c0,2.71,2.2,4.91,4.91,4.91s4.91-2.2,4.91-4.91-2.2-4.91-4.91-4.91-4.91,2.2-4.91,4.91Z" style="fill:#263238;"></path><path d="M45.8,423.98c0,2.71,2.2,4.91,4.91,4.91s4.91-2.2,4.91-4.91-2.2-4.91-4.91-4.91-4.91,2.2-4.91,4.91Z" style="fill:#263238;"></path><path d="M86.26,373.44c0,2.71,2.2,4.91,4.91,4.91s4.91-2.2,4.91-4.91-2.2-4.91-4.91-4.91-4.91,2.2-4.91,4.91Z" style="fill:#263238;"></path><path d="M124.01,109.84c0,2.71,2.2,4.91,4.91,4.91s4.91-2.2,4.91-4.91-2.2-4.91-4.91-4.91-4.91,2.2-4.91,4.91Z" style="fill:#263238;"></path><path d="M166.54,199.98c0,2.71,2.2,4.91,4.91,4.91s4.91-2.2,4.91-4.91-2.2-4.91-4.91-4.91-4.91,2.2-4.91,4.91Z" style="fill:#263238;"></path><path d="M76.6,201.7c0,2.71,2.2,4.91,4.91,4.91s4.91-2.2,4.91-4.91-2.2-4.91-4.91-4.91-4.91,2.2-4.91,4.91Z" style="fill:#263238;"></path><path d="M113.34,343.66c0,2.71,2.2,4.91,4.91,4.91s4.91-2.2,4.91-4.91-2.2-4.91-4.91-4.91-4.91,2.2-4.91,4.91Z" style="fill:#263238;"></path></g></g></g><g id="freepik--character-2--inject-256"><g><g><g><g><path d="M428.97,435.49c2.61,.84,77.01-.12,79.81-1.96,1.08-.68,1.57-11.53,1.79-24.65,0-.14,0-.27,0-.41,.05-2.7,.09-5.49,.09-8.31,0-.39,0-.78,.01-1.16l-3.61-38.6-49.77,.5,4.91,38.23,.06,1.51,.3,7.91,.03,.81s-28.31,13.11-31.19,15.45c-2.85,2.34-5.05,9.84-2.44,10.67Z" style="fill:#ad6359;"></path><path d="M428.97,435.49c2.61,.84,77.01-.12,79.81-1.96,1.08-.68,1.57-11.53,1.79-24.65,0-.14,0-.27,0-.41,.05-2.7,.09-5.49,.09-8.31,0-.39,0-.78,.01-1.16l-48.47,.14,.06,1.51,.3,7.91,.03,.81s-28.31,13.11-31.19,15.45c-2.85,2.34-5.05,9.84-2.44,10.67Z" style="fill:#ebebeb;"></path><g><path d="M428.96,435.48c1.34,.43,21.56,.39,41.31-.01,3.97-.08,7.92-.17,11.69-.27,14.09-.39,25.73-.97,26.81-1.67,1.07-.67,1.56-11.22,1.78-24.1,0-.18,.01-.36,.01-.55,0-.14,0-.28,.01-.42h-.06l-47.95,.09,.02,.82s-28.32,13.1-31.18,15.44c-2.86,2.34-5.05,9.84-2.45,10.68Z" style="fill:#00BFA5;"></path><path d="M428.96,435.48c1.34,.43,21.56,.39,41.31-.01,3.97-.08,7.92-.17,11.69-.27,14.09-.39,25.73-.97,26.81-1.67,1.07-.67,1.56-11.22,1.78-24.1,0-.18,.01-.36,.01-.55,0-.14,0-.28,.01-.42h-.06l-47.95,.09,.02,.82s-28.32,13.1-31.18,15.44c-2.86,2.34-5.05,9.84-2.45,10.68Z" style="fill:#030402; opacity: .4;"></path><g><path d="M429.77,432.59c12.54-.47,63.15-1.19,75.58-.7,.1,0,.1,.07,0,.08-12.42,.74-63.03,1.04-75.58,.82-.26,0-.27-.2,0-.21Z" style="fill:#263238;"></path><path d="M457.23,408.76c4.92-.99,10.97-.31,14.78,3.16,.15,.13-.04,.34-.21,.29-4.89-1.47-9.45-2.4-14.55-2.83-.36-.03-.38-.55-.03-.62Z" style="fill:#263238;"></path><path d="M453.69,410.95c4.92-.99,10.97-.31,14.79,3.16,.15,.13-.05,.34-.21,.29-4.89-1.47-9.45-2.4-14.55-2.83-.36-.03-.38-.55-.03-.62Z" style="fill:#263238;"></path><path d="M450.16,413.14c4.92-.99,10.97-.31,14.79,3.16,.15,.13-.05,.34-.21,.29-4.89-1.47-9.45-2.4-14.55-2.83-.36-.03-.38-.55-.03-.62Z" style="fill:#263238;"></path></g><path d="M470.28,435.47c3.97-.08,7.92-.17,11.69-.27,14.09-.39,25.73-.97,26.81-1.67,1.07-.67,1.56-11.22,1.78-24.1,0-.18,.01-.36,.01-.55,0-.14,0-.28,.01-.42h-.06c-6.57,4.61-29.72,20.02-40.24,27.02Z" style="fill:#030402; opacity: .1;"></path></g></g><g><path d="M459.3,408.72h53.58s-10.79-125.14-10.37-127.33c.53-2.8,3.7-15.47,7.91-32.01,1.32-5.18,2.74-10.73,4.22-16.49,3.99-15.57,8.4-32.58,12.23-47.39,5.76-22.18,10.25-39.41,10.25-39.41h-45.41s-5.29,16.78-11.96,38.6c-10.87,35.47-25.39,84.3-26.82,96.17-2.32,19.17,6.36,127.86,6.36,127.86Z" style="fill:#263238;"></path><g><path d="M461.68,399.57c8.18-.17,5.83-.24,14.02-.32,4.01-.04,30.32-.27,34.07,.35,.08,.01,.08,.15,0,.17-3.74,.62-30.06,.39-34.07,.35-8.18-.08-5.83-.15-14.02-.32-.15,0-.15-.24,0-.24Z" style="fill:#37474f;"></path><path d="M492.44,273.74c1.76-7.75,4.38-15.34,6.67-22.94,4.64-15.45,9.33-30.88,14.02-46.32,2.35-7.72,4.69-15.43,7.07-23.14,1.2-3.89,2.39-7.79,3.61-11.67,1.19-3.8,2.55-7.57,3.63-11.41,.44-1.56,.68-.7,.12,1.28-1.13,4-2.25,8-3.41,11.98-2.31,7.89-4.63,15.78-6.97,23.67-4.64,15.7-9.35,31.38-14.06,47.06-2.36,7.86-4.73,15.72-7.09,23.58-1.13,3.76-2.23,7.53-2.9,11.41-.69,4.04-.73,8.12-.47,12.2,.51,8.2,1.46,16.38,2.22,24.56,.76,8.2,1.52,16.39,2.28,24.59,1.51,16.31,3.02,32.62,4.49,48.93,.19,2.07,.37,4.14,.53,6.21,.05,.69-.99,.64-1.07-.03-1.76-16.13-3.12-32.31-4.63-48.46-1.51-16.07-3.01-32.15-4.52-48.22-.38-4.04-.81-8.08-.81-12.14,0-3.76,.47-7.48,1.3-11.14Z" style="fill:#37474f;"></path></g></g><path d="M496.88,146.08c3.15,24.39,9.16,70.12,13.54,103.29,10.24-40.2,26.71-103.29,26.71-103.29h-40.25Z" style="fill:#37474f;"></path></g><g><g><path d="M485.73,436.21c2.61,.85,77.01,.16,79.82-1.67,1.08-.68,1.61-11.52,1.88-24.65,0-.14,0-.27,0-.41,.06-2.7,.11-5.49,.12-8.31,0-.39,0-.78,.02-1.16,.17-18.94-1.19-38.6-1.19-38.6l-48.63,.32,1.36,38.24,.05,1.51,.27,7.92,.03,.81s-28.36,13-31.24,15.34c-2.86,2.33-5.09,9.82-2.48,10.66Z" style="fill:#ad6359;"></path><path d="M485.73,436.21c2.61,.85,77.01,.16,79.82-1.67,1.08-.68,1.61-11.52,1.88-24.65,0-.14,0-.27,0-.41,.06-2.7,.11-5.49,.12-8.31,0-.39,0-.78,.02-1.16l-48.47-.04,.05,1.51,.27,7.92,.03,.81s-28.36,13-31.24,15.34c-2.86,2.33-5.09,9.82-2.48,10.66Z" style="fill:#ebebeb;"></path><g><path d="M485.73,436.21c2.61,.85,77.01,.16,79.82-1.67,1.08-.68,1.61-11.52,1.88-24.65,0-.14,0-.27,0-.41l-48-.09,.03,.81s-28.36,13-31.24,15.34c-2.86,2.33-5.09,9.82-2.48,10.66Z" style="fill:#00BFA5;"></path><path d="M485.73,436.21c2.61,.85,77.01,.16,79.82-1.67,1.08-.68,1.61-11.52,1.88-24.65,0-.14,0-.27,0-.41l-48-.09,.03,.81s-28.36,13-31.24,15.34c-2.86,2.33-5.09,9.82-2.48,10.66Z" style="fill:#030402; opacity: .4;"></path><g><path d="M486.55,433.31c12.54-.42,63.15-.95,75.58-.42,.1,0,.1,.07,0,.08-12.42,.69-63.03,.81-75.58,.55-.26,0-.27-.2,0-.21Z" style="fill:#263238;"></path><path d="M514.09,409.58c4.93-.97,10.97-.27,14.77,3.22,.15,.13-.05,.34-.21,.29-4.88-1.49-9.44-2.43-14.54-2.89-.36-.03-.38-.55-.03-.62Z" style="fill:#263238;"></path><path d="M510.54,411.76c4.93-.97,10.97-.27,14.77,3.22,.15,.13-.05,.34-.21,.29-4.88-1.49-9.44-2.43-14.54-2.89-.36-.03-.38-.55-.03-.62Z" style="fill:#263238;"></path><path d="M507,413.94c4.93-.97,10.97-.27,14.77,3.22,.15,.13-.05,.34-.21,.29-4.88-1.49-9.44-2.43-14.54-2.89-.36-.03-.38-.55-.03-.62Z" style="fill:#263238;"></path></g></g></g><g><path d="M493.2,146.08s1.05,21.73,6.02,38.93c.4,1.42,.83,2.82,1.3,4.17,0,0,5.18,1.88,13.09,6.73,0,0,.52,17.48,1.05,36.98,.58,21.79,1.18,46.1,1.06,51.26-.46,19.29,2.41,125.36,2.41,125.36l53.57,.22s-9.69-118.45-9.62-125.52c.1-11.36-2.59-61.56-4.68-98.17-1.27-22.56-2.32-39.95-2.32-39.95h-61.88Z" style="fill:#263238;"></path><g><path d="M519.96,399.97c8.18-.14,5.83-.21,14.02-.26,4.01-.02,30.33-.14,34.06,.5,.08,.01,.08,.15,0,.17-3.74,.6-30.06,.26-34.07,.21-8.18-.11-5.83-.17-14.02-.38-.15,0-.15-.24,0-.24Z" style="fill:#37474f;"></path><path d="M550.57,153.84c.99,29.89,2.03,59.78,3.37,89.65,1.34,29.98,3.15,59.94,5.66,89.85,1.4,16.71,2.72,40.21,4.53,56.88,.01,.11-.16,.15-.17,.04-3.9-29.65-6.07-66.31-7.99-96.14-1.92-29.83-3.22-59.71-4.23-89.59-.58-16.9-1.02-33.8-1.52-50.7,0-.24,.36-.22,.37,.02Z" style="fill:#37474f;"></path><g><path d="M498.29,187.88c5.33,2.12,10.44,5.01,15.31,8.02,.19,.12,.05,.42-.16,.32-5.17-2.51-10.44-4.93-15.47-7.72-.39-.22-.1-.78,.31-.62Z" style="fill:#37474f;"></path><path d="M497.99,169.45c.35,1.9,.82,3.79,1.23,5.68,.39,1.78,.67,3.59,1.14,5.34,.46,1.7,1.18,3.26,2.49,4.48,.7,.65,1.46,1.22,2.21,1.81,.4,.32,.83,.63,1.25,.95-.05-.25-.1-.51-.14-.77-.13-.72-.25-1.44-.37-2.17-.27-1.6-.53-3.21-.77-4.82-.48-3.16-.93-6.35-1.59-9.48-.03-.13,.16-.18,.2-.05,.79,3.1,1.66,6.17,2.34,9.29,.34,1.53,1.54,9.1,1.59,9.64,.05,.55,.1,1.11,.12,1.66,.02,.55,.13,1.16,0,1.7-.03,.14-.2,.12-.26,.02h0c-.28-.48-.34-1.11-.48-1.64-.14-.54-.26-1.09-.36-1.64-.04-.2-.06-.4-.09-.6-.75-.45-1.44-1.05-2.14-1.56-.75-.54-1.52-1.07-2.23-1.67-1.36-1.15-2.21-2.55-2.72-4.25-.53-1.76-.69-3.62-.89-5.44-.24-2.15-.42-4.31-.72-6.46-.02-.13,.17-.18,.2-.05Z" style="fill:#37474f;"></path></g></g></g></g></g><g><g><path d="M503.57,91.53c-17.47,20.94-35.43,58.38-30.27,66.26,5.75,8.77,28.45-17.15,28.21-18.73-.18-1.19,6.08-24.85,11.67-43.42,5.59-18.56-5.29-9.29-9.61-4.11Z" style="fill:#455a64;"></path><path d="M513.18,95.64c-5.59,18.58-11.84,42.24-11.66,43.43,.23,1.57-22.46,27.5-28.22,18.72-.04-.07-.09-.14-.12-.21l38.79-72.86,.67-1.26,.79,1.22h0l1.21,1.86c.28,1.66-.1,4.54-1.47,9.1Z" style="fill:#030402; opacity: .1;"></path></g><path d="M557.97,174.45l-75.62-4.21s-1.3-3.93,0-8.31c5.52-18.64,22.57-67.19,27.61-76.67,2.65-4.99,15.35-5.71,20.36-.99,12.56,11.81,27.47,66.5,29.68,77.88,1.33,6.84-2.03,12.31-2.03,12.31Z" style="fill:#455a64;"></path><g><path d="M507.74,88.18s.06-.04,.06,0c.05,3.58,.42,11.85,5.96,10.92,2.23-.38,4.17-1.94,5.78-3.45,1.65-1.55,3.09-3.31,4.37-5.17,1.42-2.07,2.88-4.23,3.93-6.51,.05-.1,.19-.01,.14,.09-1.16,2.28-2.08,4.62-3.46,6.79-1.32,2.09-2.86,4.05-4.7,5.71-1.72,1.55-3.8,3.12-6.17,3.41-2.26,.27-4.01-1-4.84-3.04-1.08-2.68-1.29-5.9-1.07-8.75Z" style="fill:#263238;"></path><g><g><path d="M513.16,95.34c4.05,.08,10.14-7.89,11.73-13.22,.11-.37-1.13-3.71-2.45-7.84-.79-2.51-1.61-5.32-2.17-7.94l-15.58,7.52s2.79,5.15,3.75,9.72c.08,.38,.11,.75,.12,1.1,0,.05,0,.11,.01,.18,.11,2.11,.68,10.39,4.59,10.48Z" style="fill:#ad6359;"></path><path d="M508.56,84.68s0,.11,.01,.18c.53-.03,1.1-.13,1.71-.26,9.46-2.25,9.21-14.37,8.94-17.74l-3.89,1.88-10.63,5.13s2.8,5.15,3.74,9.72c.08,.38,.12,.74,.13,1.1Z" style="fill:#263238;"></path></g><g><path d="M515.45,45.57c3.68,5.03,6.38,22.32,3.65,27.34-3.97,7.28-13.29,11.1-20.19,5.68-6.69-5.25-9.81-27.85-6.49-32.7,4.89-7.15,17.59-7.75,23.03-.32Z" style="fill:#ad6359;"></path><path d="M519.09,72.91c-3.97,7.28-13.29,11.1-20.18,5.68-2.06-1.61-3.77-4.87-5.07-8.74,3.91,2.46,5.56-.94,5.56-.94l1.99-.78c5,2.31,9.27-.06,11.44-1.67,1.63-1.21,4.05-5.28,4.05-5.28l3.29,3.2c.17,3.63-.13,6.8-1.08,8.51Z" style="fill:#263238; opacity: .2;"></path><path d="M519.89,59.18c-2.22,1.4-4.19-.26-5.27-1.58-1.07-1.32-3.32-10.68-5.18-12.59-1.86-1.91-4.75-2.41-6.57-1.22-1.81,1.19-3.6,4.58-5.11,4.89-1.51,.31-2.82-2.77-3.85-2.46-2.25,.68-3.11,6.84-2.77,9.44,0,0-3.57-10.22,7.4-14.66,10.23-4.15,15.75,1.51,17.68,4.99,3.2,5.78,3.66,13.2,3.66,13.2Z" style="fill:#263238;"></path><g><path d="M506.29,69.63c-2.11,.15-3.19,.79-4.32,1.29-.14,.02-.46,.01-.52-.1h0s-.64-2.43-.64-2.43c-.27,.25-1.66,1.45-1.77,.99-.89-3.8-1.87-8.04-1.95-12.01,0-.13,.19-.16,.21-.03,1,3.62,1.35,7.4,2.29,11.05,.46-.35,1.19-.96,1.64-1.08,.13,0,.55,2.6,.7,2.97,0,0,1.76-1.24,4.43-.9,.6,.08,.69,.2-.08,.25Z" style="fill:#263238;"></path><g><path d="M503.46,61.67s.1,.04,.11,.09c.15,1.17,.52,2.48,1.64,2.7,.03,0,.04,.07,0,.07-1.31,.03-1.79-1.72-1.74-2.86Z" style="fill:#263238;"></path><path d="M504.3,60.28c1.85-.44,2.6,3.29,.89,3.7-1.69,.4-2.44-3.33-.89-3.7Z" style="fill:#263238;"></path></g><g><path d="M496.86,62.77s-.08,.07-.07,.12c.27,1.15,.39,2.51-.58,3.1-.03,.02-.02,.08,.02,.06,1.24-.44,1.07-2.24,.63-3.29Z" style="fill:#263238;"></path><path d="M495.58,61.77c-1.89,.23-1.28,3.99,.47,3.77,1.72-.21,1.11-3.97-.47-3.77Z" style="fill:#263238;"></path></g><path d="M505.39,56.51c-.49-.21-.98-.33-1.48-.49-.57-.18-1.01-.39-1.61-.21-.32,.09-.55,.53-.49,.85,.14,.75,.79,1.15,1.46,1.39,.74,.27,1.37,.29,2.11,.03,.72-.25,.65-1.29,0-1.57Z" style="fill:#263238;"></path><path d="M492.99,59.59c.37-.39,.77-.68,1.18-1.03,.46-.39,.78-.75,1.4-.82,.33-.04,.72,.27,.78,.59,.16,.75-.28,1.36-.81,1.85-.57,.53-1.15,.8-1.93,.85-.76,.05-1.1-.93-.62-1.44Z" style="fill:#263238;"></path><path d="M507.66,70.62c-.06,.39-.06,.86-.38,1.15-.31,.27-.8,.41-1.19,.52-.04,.01-.04,.06,0,.08,.52,.18,1.2,.02,1.58-.39,.37-.39,.31-.92,.12-1.39-.03-.07-.11-.03-.12,.03Z" style="fill:#263238;"></path></g><g><path d="M515.36,60.46s1.97-6.5,4.8-5.97c2.83,.53,2.56,9.12,.08,11.09-2.48,1.97-4.35-.29-4.35-.29l-.54-4.83Z" style="fill:#ad6359;"></path><path d="M520.03,56.95s.07,.04,.04,.07c-1.72,1.45-2.16,3.62-2.27,5.76,.35-.92,1.02-1.59,2.23-1.21,.06,.02,.04,.12-.02,.12-.87,.09-1.4,.42-1.74,1.25-.24,.59-.31,1.25-.42,1.87-.03,.21-.38,.22-.38,0v-.05c-.87-2.5-.07-6.67,2.56-7.81Z" style="fill:#263238;"></path></g></g></g><g><path d="M508.46,84.58l5.48,9.16,10.2-14.31,4.08,3.43s-8.78,21.56-9,20.68l-5.37-7.8-4.89,6.79-1.86-14.81,1.36-3.15Z" style="fill:#fff;"></path><path d="M507.63,95.27c-.23-2.46-.52-4.92-.63-7.39,0-.09,.12-.15,.16-.05,.86,2.27,1.67,11.66,2.03,13.89l.02-.03c.2-.29,4.58-6.02,4.64-5.95,1.09,1.2,5.02,6.88,5.31,7.4,1.39-3.42,6.8-15.93,8.56-19.23,.05-.1,.19-.05,.16,.06-1.14,3.56-8.26,20.37-8.41,20.35-.09,.09-4.96-6.89-5.63-8.25-.7,1.21-5.03,7.57-5.1,7.21-.51-2.42-.88-5.57-1.11-8.02Z" style="fill:#263238;"></path></g></g><g><path d="M536.39,90.06c12.18,15.38,31.78,58.82,18.34,65.09-3.68,1.71-12.48-5.2-17.46-14.13-2.51-4.51-8.46-39.09-8.83-44.39-1.02-14.3,3.24-12.52,7.95-6.58Z" style="fill:#455a64;"></path><g><path d="M528.89,101.29c3.11,13.15,5.36,27.23,8.11,40.47-4.13-13.14-6.29-26.84-8.11-40.47h0Z" style="fill:#263238;"></path><path d="M528.11,103.3c.85,1.55,1.31,3.17,1.98,4.8-1.25-1.25-1.79-3.07-1.98-4.8h0Z" style="fill:#263238;"></path></g></g><g><path d="M475.16,159.36c7.16,1.9,14.84-1.54,40.51-15.82,3.55-1.98-.51-31.36-4.76-30.46-5.66,1.2-24.99,12.3-26.25,13.23-10.63,7.87-14.36,31.76-9.5,33.05Z" style="fill:#ad6359;"></path><g><path d="M502.29,123.04s5.05-8.67,9.12-12.4c5.44-5,12.2-7.07,15.09-7.77,6.02-1.46,21.59-.82,22.19,3.69,.54,4.09-15.34,2.63-15.34,2.63,0,0,16.43-1.19,16.18,3.85-.25,5.04-18.59,2.3-18.59,2.3,0,0,16.91-.84,15.83,4.32-.82,3.9-17.57,2.35-17.57,2.35,0,0,14.54-.62,13.87,3.42-.74,4.47-16.29,4.01-16.29,4.01-3.43,10-9.15,13.35-13.51,15.25-1.05,.46-10.99-21.67-10.99-21.67Z" style="fill:#ad6359;"></path><g><path d="M527.63,109.24c1.93-.21,3.87-.43,5.81-.47,1.94-.04,3.88,0,5.81,.14,4.74,.35,7.65,1.31,7.47,1.27-4.41-.94-11.35-.91-13.28-.88-1.93,.04-3.87-.02-5.8,.01-.05,0-.04-.07,0-.07Z" style="fill:#263238;"></path><path d="M527.64,116.24c2.47-.16,4.92-.41,7.39-.46,2.47-.05,4.81,.12,7.27,.23,.19,0,.12,.11-.07,.11-2.47-.02-4.75,.15-7.21,.16-2.46,0-4.93-.08-7.39,.02-.04,0-.04-.06,0-.06Z" style="fill:#263238;"></path><path d="M526.56,122.25c3.76-.44,7.6-.18,11.36,.16,.19,.02,.09,.14-.11,.13-3.78-.12-6.74-.25-11.24-.15-.07,0-.09-.12-.01-.13Z" style="fill:#263238;"></path></g></g><g><path d="M505.21,114.5l6.79,35.67s-33.93,14.79-38.42,8.18c-4.04-5.95,2.7-25.11,8.71-30.35,6.02-5.24,22.92-13.5,22.92-13.5Z" style="fill:#455a64;"></path><path d="M483.05,159.6c7.35-1.99,14.64-4.19,21.79-6.81,2.38-.88,4.74-1.8,7.08-2.78l-.11,.21c-.2-1.4-.43-2.79-.61-4.2,.35,1.37,.65,2.75,.98,4.13,.04,.18,.06,.12-.11,.21-9.18,4.4-19,7.51-29.02,9.25h0Z" style="fill:#263238;"></path><path d="M501.43,136.12c-.48-2.37-.96-4.74-1.47-7.11-.5-2.36-.92-4.76-1.59-7.08-.03-.1-.2-.1-.19,.02,.23,2.31,.72,4.63,1.11,6.93,.42,2.44,.86,4.87,1.3,7.3,.88,4.81,1.94,9.58,3.08,14.34,.03,.12,.19,.07,.17-.04-.7-4.8-1.47-9.58-2.43-14.35Z" style="fill:#263238;"></path></g></g><g><g><path d="M555.95,154.05c-2.24,3.68-30.51,3.43-52.5-2.45-4.19-1.12,4.12-34.75,8.43-33.05,13.83,5.45,23.25,9.3,30.34,13.99,7.5,4.96,15.2,19.09,13.72,21.51Z" style="fill:#ad6359;"></path><g><g><path d="M490.88,118.68c-.33-3.13-4.96-8.13-6.56-12.22-1.6-4.09,.73-9.12,2.43-8.75,1.71,.38,1.79,2.4,6.18,7.34,2.82,3.18,11.13,6.83,15.62,13.22,2.26,3.21-17.35,3.53-17.68,.41Z" style="fill:#ad6359;"></path><path d="M490.88,118.68c-.33-3.13-4.96-8.13-6.56-12.22-1.6-4.09,.73-9.12,2.43-8.75,1.71,.38,1.79,2.4,6.18,7.34,2.82,3.18,11.13,6.83,15.62,13.22,2.26,3.21-17.35,3.53-17.68,.41Z" style="fill:#ad6359;"></path><path d="M490.88,118.68c-.33-3.13-4.96-8.13-6.56-12.22-1.6-4.09,.73-9.12,2.43-8.75,1.71,.38,1.79,2.4,6.18,7.34,2.82,3.18,11.13,6.83,15.62,13.22,2.26,3.21-17.35,3.53-17.68,.41Z" style="opacity: .1;"></path></g><path d="M472.33,114.58c-.06,2.92,2.21,3.84,2.21,3.84,0,0-2.27,1.32-2.95,3.76-.77,2.79,3.26,5.23,3.26,5.23,0,0-2.02,1.82-2.48,4.46-.47,2.74,3.24,5.78,3.24,5.78,0,0-.82,2.66,.29,5.29,2.28,5.42,25.33,8.32,28.56,8.84l10.19-31.88s-19.81-12.41-25.44-12.28c-4.74,.11-16.8,3.15-16.89,6.96Z" style="fill:#ad6359;"></path><g><path d="M474.63,118.31c5.01-1.33,10.32-1.45,15.45-1.52,.11,0,.11,.18,0,.18-5.1,0-10.33,1.38-15.42,1.59-.14,0-.17-.21-.03-.24Z" style="fill:#263238;"></path><path d="M475,127.02c1.14-.27,2.37-.16,3.53-.11,1.25,.05,2.5,.12,3.75,.2,2.5,.18,5,.41,7.48,.71,.11,.01,.12,.19,0,.18-2.49-.17-4.99-.3-7.48-.37-1.25-.03-2.5-.05-3.75-.07-1.16-.01-2.39,.07-3.53-.2-.17-.04-.17-.3,0-.34Z" style="fill:#263238;"></path><path d="M475.72,137.65c.98-.27,2.18-.02,3.18,.07,1.14,.1,2.27,.2,3.41,.29,2.28,.18,4.55,.36,6.83,.46,.11,0,.12,.18,0,.18-2.32-.09-4.64-.15-6.95-.27-1.14-.06-2.28-.12-3.41-.18-.97-.06-2.18-.02-3.08-.44-.05-.02-.04-.1,.01-.11Z" style="fill:#263238;"></path></g></g><path d="M515.54,118.56l-8,36.85s39.86,6.25,48.85-1.37c1.92-1.63-6.69-17.68-13.97-22.13-7.28-4.45-26.87-13.35-26.87-13.35Z" style="fill:#455a64;"></path><path d="M519.92,139.6c.48-2.37,.96-4.75,1.41-7.12,.46-2.36,1.01-4.75,1.29-7.14,.01-.11-.15-.17-.18-.06-.69,2.22-1.14,4.55-1.67,6.82-.56,2.41-1.1,4.82-1.64,7.24-1.06,4.78-1.93,9.58-2.73,14.41-.02,.12,.14,.14,.17,.03,1.22-4.7,2.37-9.4,3.34-14.17Z" style="fill:#263238;"></path></g><path d="M550.55,140.16c-2.13-2.74-4.53-5.29-7.26-7.37-5.82-3.69-12.22-6.55-18.43-9.57-3.14-1.46-6.27-2.98-9.45-4.34l.45-.19c-.1,.23-.55,1.37-.64,1.58-.23-.1-1.84-.77-2.11-.88-3.03-1.97-6.1-3.91-9.24-5.69-3.14-1.76-6.31-3.53-9.7-4.79,1.72,.55,3.4,1.25,5.05,1.99,4.94,2.27,9.65,5.01,14.23,7.93-.3-.14,1.78,.72,1.72,.69l-.44,.19c.09-.24,.55-1.38,.63-1.59,3.32,1.4,6.58,2.89,9.82,4.45,6.23,3.09,12.61,5.95,18.38,9.87,2.75,2.17,4.97,4.9,6.99,7.73h0Z" style="fill:#263238;"></path><path d="M559.25,145.95c.18,5.62-2.31,9.61-8.09,10.51-14.37,2.96-29.37,2.12-43.69-.72l-.34-.07c.03-.08,.62-2.87,.68-3.06l.26,.4-5.66-1.28c-6.06-.88-24.22-3.24-26.69-9.33,2.47,5.84,20.78,7.88,26.84,8.71l5.65,1.25,.33,.07-.07,.33-.58,2.73-.27-.41c14.26,2.71,29.13,3.64,43.46,.98,5.7-.83,8.15-4.48,8.18-10.1h0Z" style="fill:#263238;"></path></g></g></g></g><g id="freepik--character-3--inject-256"><g><g><g><g><path d="M620.56,334.47s23.55,41.65,23.57,41.68c3.78,8.4,6.95,15.83,8.23,19.83,0,.02,.02,.04,.02,.07,.48,1.51,.7,2.51,.55,2.87-.01,.03-.01,.05-.03,.08-1.74,2.82-67.98,35.01-70.67,35.36-2.69,.36-3.88-7.29-2.31-10.59,1.59-3.31,21.43-26.98,21.43-26.98l-23.13-41.82,42.33-20.5Z" style="fill:#f7a9a0;"></path><path d="M582.23,434.35c2.67-.34,68.92-32.53,70.67-35.36,.02-.02,.02-.05,.03-.06,.14-.37-.06-1.37-.56-2.88,0-.03,0-.05-.02-.06-1.01-3.17-3.2-8.48-5.94-14.71l-.02-.02c-15.68,16.33-58.75,41.48-59.81,38.32-.93-2.77,4.71-10.47,6.06-12.27-5.55,6.76-11.87,14.65-12.74,16.45-1.57,3.3-.39,10.95,2.32,10.59Z" style="fill:#263238;"></path></g><g><path d="M638.68,362.45l-47.47,25.35s-59.92-85.4-61.12-107.83c-1.66-30.99,25.33-129.46,25.33-129.46l41.67-.19s-17.16,101.17-15.76,118.43c.73,9.03,57.35,93.7,57.35,93.7Z" style="fill:#37474f;"></path><g><path d="M587.06,377.98c2.44-1.76,24.95-14.8,42.08-23.13,.12-.06,.19,.11,.09,.17-5.2,3.43-38.78,21.83-42.04,23.14-.11,.04-.24-.1-.13-.18Z" style="fill:#263238;"></path><path d="M575.47,247.13c1.96-14.8,4.12-29.59,6.58-44.32,2.47-14.8,5.08-29.58,8.17-44.26,.38-1.79,.77-3.58,1.16-5.37,.06-.28,.48-.2,.43,.08-2.6,14.56-5.28,29.12-7.67,43.72-2.39,14.6-4.62,29.23-6.63,43.88-.5,3.63-.98,7.26-1.45,10.89-.48,3.75-1.03,7.52-1.08,11.31-.04,3.64,.53,7.18,1.81,10.59,1.26,3.35,3.05,6.46,4.86,9.53,7.63,12.92,41.83,69.36,42.72,71,.06,.11-.09,.22-.16,.11-8.2-12.73-33.66-53.4-41.4-66.53-3.49-5.92-7.5-11.92-8.64-18.83-1.18-7.18,.35-14.69,1.29-21.82Z" style="fill:#263238;"></path></g></g></g><g><g><path d="M587.63,362.45s.48,48.15,.48,48.18c-.25,9.21-.64,17.28-1.23,21.43,0,.02,0,.04-.01,.07-.22,1.57-.47,2.57-.76,2.83-.02,.02-.03,.04-.06,.06-2.79,1.78-76.45,1.89-79.02,1.03-2.58-.85-.32-8.25,2.54-10.54,2.88-2.28,31.05-14.94,31.05-14.94l-.02-48.11h47.03Z" style="fill:#f7a9a0;"></path><path d="M507.03,436.05c2.57,.86,76.23,.75,79.02-1.04,.03,0,.03-.03,.06-.05,.28-.26,.53-1.26,.76-2.83v-.06c.45-3.2,.79-8.71,1.04-15.29-21.96,7.36-69.75,10.56-69.31,7.32,.45-3.28,11.32-8.51,11.32-8.51l-.23-.06c-8.26,3.83-18.46,8.65-20.12,9.97-2.85,2.29-5.12,9.69-2.53,10.54Z" style="fill:#263238;"></path></g><g><path d="M555.42,150.51s0,.01,.02,.04c.28,.87,15.45,42.43,16.88,43.09,1.62,.75-33.5,59.74-35.58,87.15-1.33,17.53,1.28,116.73,1.28,116.73h51.35s-2.47-89.19-3.64-117.44c-.46-10.96,35.26-65.52,35.69-99.49,.14-10.71-7.56-30.27-7.56-30.27l-58.43,.19Z" style="fill:#37474f;"></path><g><path d="M585.42,279.32c0-.45,.36-.6,.39-.13,1.16,15.29,1.43,30.5,2.16,45.82,.73,15.27,.31,18.96,1,34.23,.39,8.64,.02,17.31,.22,25.96,0,.13-.2,.15-.21,.02-1.6-15.25-3.55-97.24-3.56-105.9Z" style="fill:#263238;"></path><path d="M536.73,281.4c.11-3.77,.36-7.55,1.04-11.26,.66-3.63,1.81-7.15,3.17-10.57,2.84-7.15,6.19-14.13,9.4-21.12,3.25-7.09,6.56-14.14,9.98-21.14,1.92-3.94,3.86-7.87,5.81-11.79,1.97-3.97,4.1-7.87,6.17-11.79,.08-.15,.32-.04,.25,.12-3.29,7.07-6.54,14.15-9.83,21.22-3.29,7.07-6.52,14.16-9.76,21.25-3.18,6.98-6.37,13.96-9.36,21.01-1.44,3.38-2.78,6.81-3.66,10.39-.91,3.66-1.29,7.42-1.5,11.18-.5,8.77-.74,17.57-1.6,26.31-.01,.11-.19,.1-.19-.01-.26-7.92-.14-15.89,.1-23.81Z" style="fill:#263238;"></path><path d="M541.72,387.38c2.99-.39,25.74-1.17,44.77-.36,.13,0,.12,.18,0,.2-6.2,.55-41.25,.79-44.74,.39-.12-.01-.16-.2-.02-.22Z" style="fill:#263238;"></path><g><path d="M565.21,191.34c5.49,1.28,10.88,3.35,16.06,5.57,.2,.09,.11,.4-.11,.33-5.39-1.69-10.87-3.27-16.16-5.25-.42-.16-.21-.74,.22-.64Z" style="fill:#263238;"></path><path d="M560.04,156.14c0-.18,.31-.25,.32-.06,.59,6.13,1.53,11.48,2.63,17.16,.51,2.63,4.16,17.11,8.66,15.57,.75-.26,1.07-1.06,1.07-2.23,0-1.41-.7-3.08-1.07-4.44-.83-3.02-1.55-6.07-2.14-9.15-1.09-5.75-1.71-11.55-1.59-17.4,0-.19,.28-.21,.3-.01,.82,8.03,1.85,16.02,3.86,23.85,.97,3.76,3.48,9.32-.45,10.32-4.01,1.02-7.63-8.35-8.4-10.94-2.14-7.22-3.01-15.15-3.19-22.66Z" style="fill:#263238;"></path><path d="M571.57,189.21c.52,.94,.96,1.94,1.35,2.94,.3,.78,.69,1.61,.69,2.46,0,.16-.21,.2-.31,.1-.61-.63-.94-1.54-1.32-2.33-.45-.91-.91-1.8-1.34-2.72-.28-.61,.61-1.03,.93-.45Z" style="fill:#263238;"></path></g><path d="M580.16,294.4c-.26-7.3-1.07-14.95,1.32-22,1.19-3.49,2.99-6.73,4.68-9.99,1.78-3.43,3.53-6.88,5.24-10.35,6.86-13.86,13.32-27.93,19.1-42.28,2.78-6.91,5.27-14,6.26-21.41,1.04-7.76,.3-15.69-1.43-23.29-.43-1.9-.89-3.79-1.41-5.67-.04-.14,.17-.22,.21-.08,2.31,7.2,3.9,14.69,4,22.27,.1,7.31-1.5,14.41-3.86,21.29-2.46,7.17-5.54,14.13-8.58,21.07-3.13,7.15-6.38,14.25-9.75,21.29-3.36,7-6.94,13.89-10.49,20.8-1.72,3.34-3.28,6.77-3.94,10.49-.67,3.79-.57,7.66-.42,11.49,.61,16.15,2,69.9,2.2,86,.03,2.05,.05,4.09,.07,6.13,0,.18-.27,.21-.28,.02-1.02-16.07-2.34-69.69-2.91-85.79Z" style="fill:#263238;"></path><path d="M591.68,160.97c0-.11,.18-.09,.19,.01,.61,4.44,.95,9.05,3.1,13.09,1.97,3.7,5.4,6.08,9.15,7.75,2.16,.96,4.41,1.73,6.67,2.46,.16,.05,.13,.31-.05,.27-4.25-.88-8.56-1.87-12.26-4.26-3.95-2.55-5.98-6.64-6.63-11.21-.38-2.69-.34-5.41-.16-8.11Z" style="fill:#263238;"></path></g></g></g></g><g><path d="M554.66,84.76c-.44,3.73-.89,7.47-1.19,11.22-.18,2.29-.22,4.56-.19,6.84,.66,.8,1.46,1.59,2.44,2.34-.01-.58-.02-1.16-.02-1.72-.04-2.73,.14-5.41,.36-8.12,0-.09,.13-.06,.12,.03-.13,2.79-.06,5.62,.04,8.42,.02,.61,.06,1.22,.1,1.83,.78,.55,1.66,1.08,2.66,1.58-.04-.67-.07-1.34-.09-1.99-.07-1.55-.11-3.09-.11-4.64,0-3.05,.19-6.09,.51-9.11,.01-.13,.17-.08,.17,.04-.15,3.12-.21,6.27-.16,9.4,.02,1.48,.06,2.97,.14,4.45,.04,.71,.1,1.42,.15,2.14,1.49,.7,3.21,1.32,5.21,1.85,5.1,1.35,10.57,.81,15.64-.41,4.34-1.05,8.54-3.07,12.05-6.28-1.37-2.27-2.36-4.94-3.05-7.47-.02-.09,.08-.12,.11-.05,.68,1.66,1.43,3.28,2.23,4.87,.38,.75,.79,1.47,1.2,2.19,.05-.05,.1-.1,.15-.15,.34-.33,.69-.68,1.04-1.05-.8-1.48-1.46-3.09-2.1-4.65-.91-2.24-1.69-4.52-2.23-6.91-.04-.16,.15-.24,.2-.09,.87,2.19,1.68,4.41,2.57,6.59,.63,1.53,1.35,3.02,2.02,4.54,1-1.19,1.82-2.62,1.72-4.36-.08-1.43-.74-2.72-1.27-3.98-.61-1.41-6.04-12.75-7.47-28.15-.24-2.55-1.21-4.89-2.89-6.57-1.44-1.43-3.18-2.28-4.98-2.74-.03-.07-9.71-9.49-20.49-2.78-12.23,7.62-10.79,38.97-9.83,43.3,.39,1.77,1.72,4.58,3.24,6.77-.01-1.93,.1-3.86,.25-5.72,.31-3.88,.96-7.68,1.63-11.5,.02-.12,.18-.08,.16,.04Z" style="fill:#263238;"></path><g><path d="M617.21,157.35l-64.43,2.06,4.37-22.6s-4.24-6.25-2.98-12.66c1.77-9,15.46-28.85,16.52-29.88,4.27-4.12,12.36-4.12,15.75-1.02,22.5,20.56,30.77,64.1,30.77,64.1Z" style="fill:#00BFA5;"></path><g><path d="M574.32,133.82c-2.51,.09-5.04,.27-7.52,.77-1.23,.25-2.45,.56-3.67,.91-.61,.17-1.22,.32-1.83,.46-.63,.15-1.3,.28-1.94,.25-.06,0-.06,.09,0,.1,.62,.07,1.21,.13,1.84,.11,.6-.02,1.19-.12,1.78-.23,1.25-.24,2.5-.55,3.75-.8,2.53-.51,5.05-1.03,7.6-1.34,.12-.01,.11-.24-.01-.23Z" style="fill:#263238;"></path><path d="M580.28,136.81c-2.02-.4-4.1-.7-6.16-.84-1.04-.07-2.07-.07-3.11-.04-.5,.01-.99,.04-1.49,.07-.55,.03-1.09,.15-1.63,.17-.06,0-.07,.1,0,.1,.51,0,1.03,.08,1.54,.11,.52,.03,1.03,.05,1.55,.08,1.03,.06,2.06,.12,3.1,.17,2.07,.09,4.13,.2,6.19,.37,.11,0,.12-.17,.01-.19Z" style="fill:#263238;"></path></g></g><g><g><path d="M581.44,92.94c0,1.16-3.56,9.53-8.63,10.48-1.65,.31-3.73-8.65-3.73-8.65l-.3-.63-4.25-8.76,9.22-9.54,1.35-1.29s1.01,2.47,2.23,5.57c.06,.14,.11,.29,.17,.44,.07,.17,.15,.34,.21,.5,.19,.46,.38,.93,.56,1.4,.14,.36,.27,.71,.41,1.09,.14,.38,.27,.75,.41,1.13,1.32,3.78,2.35,7.77,2.36,8.26Z" style="fill:#f7a9a0;"></path><path d="M578.14,82.18c-1.88,6.35-5.84,10.15-9.21,12.28l-.16-.31-4.25-8.77,9.23-9.54,1.35-1.29s1.01,2.47,2.23,5.56c.05,.15,.12,.28,.18,.45,.07,.17,.14,.33,.2,.5,.15,.37,.31,.73,.45,1.12Z" style="fill:#263238;"></path></g><g><path d="M550.96,67.76c-4.84,16.4,4.44,21.15,7.97,22.19,3.21,.94,14.27,3.75,20.77-12.06,6.51-15.81,.41-23.25-6.82-25.79-7.23-2.55-17.09-.73-21.93,15.67Z" style="fill:#f7a9a0;"></path><path d="M579.22,78.15c-2.81-.29-2.38-6.22-2.38-6.22,0,0-5.63-1.01-6.01-9.45,0,0-.57,3.79,1.27,7.15,0,0-9.74-2.87-12.4-11.94,0,0,.89,4.54,2.18,6.33,0,0-3.95-1.92-5.36-5.68,0,0-2.62,4.48-4.2,5.56,0,0,3.59-17.3,19.34-12.51,0,0,9.96,2.51,12.12,11.15,2.16,8.64-4.56,15.61-4.56,15.61Z" style="fill:#263238;"></path><g><path d="M575.48,77.52s4.33-4.86,6.58-3.25c2.25,1.61-1.45,8.96-4.4,9.68-2.95,.72-3.66-2-3.66-2l1.48-4.42Z" style="fill:#f7a9a0;"></path><path d="M580.95,76.34s.05,.07,0,.08c-2.07,.57-3.33,2.28-4.29,4.1,.68-.66,1.52-.97,2.42-.15,.05,.04-.01,.12-.07,.1-.79-.27-1.39-.2-2.02,.39-.44,.41-.78,.96-1.12,1.46-.11,.17-.42,.03-.33-.16l.02-.04c.25-2.53,2.63-5.83,5.37-5.76Z" style="fill:#263238;"></path></g><g><path d="M553.21,65.71c.36-.19,.73-.31,1.11-.46,.43-.17,.75-.35,1.22-.25,.25,.05,.46,.38,.43,.63-.07,.58-.54,.92-1.05,1.15-.55,.25-1.04,.3-1.62,.14-.56-.15-.57-.95-.09-1.21Z" style="fill:#263238;"></path><path d="M565.09,68.74c-.33-.24-.68-.41-1.03-.62-.4-.23-.69-.46-1.17-.43-.26,.01-.51,.3-.52,.55-.02,.59,.39,1,.86,1.3,.51,.33,.98,.45,1.58,.38,.58-.06,.71-.86,.28-1.18Z" style="fill:#263238;"></path><g><g><path d="M561.8,71.65s.08,.07,.07,.12c-.27,1.16-.39,2.53,.59,3.12,.03,.02,.02,.08-.02,.06-1.25-.44-1.08-2.26-.64-3.31Z" style="fill:#263238;"></path><path d="M563.08,70.64c1.9,.23,1.29,4.02-.47,3.8-1.73-.21-1.13-4,.47-3.8Z" style="fill:#263238;"></path></g><path d="M563.8,70.96c.3,.27,.56,.7,.95,.8,.45,.12,.87-.22,1.23-.55,.04-.03,.06,0,.06,.05-.11,.73-.5,1.43-1.3,1.41-.72-.02-1.13-.74-1.2-1.5-.01-.14,.14-.32,.26-.21Z" style="fill:#263238;"></path></g><g><g><path d="M555.13,70.32s-.1,.04-.11,.09c-.14,1.18-.5,2.51-1.62,2.73-.03,0-.04,.07,0,.07,1.32,.02,1.78-1.75,1.73-2.89Z" style="fill:#263238;"></path><path d="M554.27,68.94c-1.87-.43-2.59,3.33-.86,3.73,1.7,.39,2.43-3.37,.86-3.73Z" style="fill:#263238;"></path></g><path d="M553.44,69.03c-.34,.14-.7,.45-1.06,.4-.42-.05-.64-.52-.83-.96-.02-.05-.06-.02-.07,.03-.16,.72-.06,1.51,.6,1.78,.61,.25,1.19-.28,1.5-.96,.06-.13,0-.35-.14-.29Z" style="fill:#263238;"></path></g><path d="M561.78,81.75c-.3,.26-.61,.62-1.04,.63-.41,0-.89-.21-1.26-.38-.04-.02-.08,.02-.06,.06,.28,.47,.91,.8,1.46,.74,.54-.06,.84-.51,1-.99,.02-.07-.07-.1-.11-.06Z" style="fill:#263238;"></path><path d="M559.79,79.99c-1.91-.83-2.91-.66-4.12-.74-.13-.05-.41-.2-.41-.33h0s.54-2.42,.54-2.42c-.35,.1-2.12,.52-2.01,.06,.96-3.74,2.02-7.89,3.76-11.41,.05-.12,.24-.05,.2,.07-.78,3.63-2.19,7.1-3.03,10.73,.56-.1,1.48-.3,1.93-.2,.12,.06-.71,2.53-.74,2.93,0,0,1.86-.38,4.04,1.13,.49,.34,.51,.49-.19,.19Z" style="fill:#263238;"></path></g></g></g><g><g><path d="M591.79,114.39c-.92,28.56-14.68,54.88-26.04,54.06-11.11-.8-25.05-15.59-28.38-36.4-.54-3.36,24-10.27,25.36-6.9,1.9,4.71,2.87,8.7,3.16,8.36,1.01-1.17,9.78-17.7,15.35-27.72,7.77-13.96,10.89-2.14,10.55,8.59Z" style="fill:#f7a9a0;"></path><path d="M569.58,157.47c.34-1.55,.4-3.22,.44-4.8,.05-1.59,.04-3.2-.16-4.78-.76-6.09-2.68-11.68-4.03-14.58-.03-.06-.1-.03-.08,.03,.28,.83,2.8,9.91,3.36,14,.21,1.56,.27,3.14,.33,4.72,.03,.9,.05,1.8,.04,2.7,0,.9-.08,1.8-.07,2.69,0,.09,.14,.12,.16,.02Z" style="fill:#263238;"></path><g><path d="M562.77,124.84s-2.78-10.34-4.92-17.02c-1.19-3.73-3.81-9.93-5.93-12.27-3.18-3.5-18.73-16.08-21.86-12.38-2.84,3.35,3.08,6.74,3.08,6.74,0,0-6.11-4.31-7.91-.12-1.81,4.23,6.33,7.89,6.33,7.89,0,0-6.17-5.03-7.66-.37-1.29,4.04,7.62,9.28,7.62,9.28,0,0-5.9-5.99-7.63-1.98-1.91,4.43,10.46,13.96,10.46,13.96-.6,7.49,1.83,14.6,4.22,19.16,.57,1.08,24.2-12.89,24.2-12.89Z" style="fill:#f7a9a0;"></path><g><path d="M529.53,96.39c.63,.32,1.24,.65,1.87,.96,1.23,.62,2.42,1.24,3.57,2,1.11,.74,2.18,1.52,3.23,2.34,1.11,.86,2.14,1.85,3.27,2.68,.09,.07,0,.19-.1,.12-1.07-.87-2.3-1.57-3.46-2.32-1.15-.73-2.3-1.45-3.46-2.17-1.13-.7-2.21-1.47-3.32-2.21-.55-.37-1.12-.71-1.69-1.05-.53-.32-1.13-.6-1.6-1.01-.05-.04,0-.11,.06-.1,.57,.15,1.11,.48,1.63,.74Z" style="fill:#263238;"></path><path d="M531.84,89.04c1.14,.33,5.6,2.85,6.71,3.56,2.13,1.38,4.15,2.95,5.97,4.72,.06,.06-.02,.17-.1,.12-2.14-1.37-4.27-2.77-6.4-4.16-1.04-.68-5.85-3.64-6.32-4.01-.11-.09,.01-.26,.14-.23Z" style="fill:#263238;"></path><path d="M527.18,103.24c1.07,.37,5.24,2.77,6.25,3.47,.95,.66,4.53,3.83,5.41,4.91,.06,.07-.03,.18-.1,.12-1.92-1.49-3.81-3.02-5.8-4.42-.97-.68-4.99-3.18-5.86-3.91-.08-.07,0-.2,.1-.17Z" style="fill:#263238;"></path></g></g></g><g><path d="M571.03,122.9l19.93,11.2s3.5-19.08,2.02-28.58c-1.47-9.51-6.11-10.93-10.91-3.38-4.8,7.55-11.04,20.76-11.04,20.76Z" style="fill:#00BFA5;"></path><path d="M590.96,128.07c-1.08-1.11-9.95-6.84-16.73-10.04-.1-.05-.18,.09-.08,.16,.7,.44,15.21,9.55,16.7,10.09,.12,.04,.19-.13,.11-.21Z" style="fill:#263238;"></path><path d="M576.49,110.08c.03-.06,.12-.02,.11,.05-.17,.79-.45,1.55-.71,2.31-.06,.18-.13,.35-.19,.52,.99-1.65,2.01-3.29,3.03-4.91,.05-.08,.17,0,.12,.07-3.27,5.77-4.46,8.86-7.57,14.71,.55,.37,1.1,.74,1.66,1.11,.13,.09,.02,.28-.12,.21-.66-.34-1.33-.67-1.99-1.01-.09-.05-.15-.19-.12-.29,1.45-4.1,2.09-4.94,4.29-8.7,.18-.62,.36-1.24,.58-1.84,.27-.75,.54-1.52,.92-2.22Z" style="fill:#263238;"></path><path d="M594.48,117.22c0-.07-.09-.08-.12-.02-.3,.75-.5,1.53-.72,2.3-.05,.18-.09,.36-.14,.54,.12-1.93,.21-3.85,.29-5.76,0-.09-.14-.1-.14-.01-.57,6.61-1.91,13.29-2.65,19.87,0,0-1.13-.67-1.88-1.07-.14-.07-.17,.21-.04,.3,.69,.5,1.39,1.18,2.12,1.28,.1,.01,.23-.07,.26-.17,1.12-4.2,1.64-8.71,1.95-13.06,.2-.61,.4-1.22,.57-1.84,.2-.77,.42-1.55,.5-2.35Z" style="fill:#263238;"></path></g></g></g></g></g><g id="freepik--character-1--inject-256"><g><g><g><g><path d="M251.29,438.46c-2.58,.81-77.81-.82-80.55-2.65-1.06-.68,5.39-71.94,5.39-71.94l47.71,.91-5.43,47.67s27.76,13.15,30.57,15.49c2.79,2.32,4.89,9.73,2.31,10.53Z" style="fill:#eb9481;"></path><path d="M251.29,438.46c-2.57,.8-77.81-.82-80.55-2.66-.33-.21-.43-7.44,.76-16.86,13.64,2.29,62.34,9.76,66.13,7.53,2.64-1.55,.3-3.98-1.86-5.62,6.22,3.1,12.02,6.08,13.22,7.08,2.79,2.32,4.88,9.73,2.31,10.53Z" style="fill:#263238;"></path><path d="M220.5,438.35c-22.08-.48-48.17-1.48-49.77-2.54-.43-.28,.38-12.19,1.49-26.25l48.28,28.79Z" style="fill:#030402; opacity: .2;"></path></g><g><g><path d="M219.75,401.02l-46.84-.66s9.28-112.19,8.89-114.34c-.49-2.76-33.73-133.07-33.73-133.07h44.7s35.25,121.45,36.52,133.15c2.05,18.9-9.55,114.92-9.55,114.92Z" style="fill:#00BFA5;"></path><path d="M219.75,401.02l-46.84-.66s9.28-112.19,8.89-114.34c-.49-2.76-33.73-133.07-33.73-133.07h44.7s35.25,121.45,36.52,133.15c2.05,18.9-9.55,114.92-9.55,114.92Z" style="fill:#030402; opacity: .6;"></path></g><g><path d="M177.13,389.78c2.77-.2,5.57-.17,8.34-.2,2.78-.04,5.56-.05,8.33-.02,5.55,.06,11.11,.14,16.66,.3,1.52,.04,3.04,.09,4.56,.16,1.63,.08,3.24,.35,4.86,.41,.13,0,.12,.2,0,.2-1.36,.01-2.73,.22-4.09,.26-1.41,.04-2.83,.05-4.25,.05-2.78,0-5.56,0-8.33-.03-5.55-.05-11.11-.12-16.66-.35-3.13-.13-6.3-.17-9.42-.48-.18-.02-.18-.27,0-.29Z" style="fill:#263238;"></path><path d="M157.91,163.47c4,14.16,7.66,28.45,11.24,42.73,3.59,14.28,7.15,28.57,10.71,42.86,1.78,7.15,3.56,14.29,5.33,21.44,1.73,6.96,3.74,13.95,4.17,21.14,.44,7.31-.49,14.68-1.11,21.95-.62,7.31-1.23,14.63-1.87,21.94-1.28,14.63-2.51,29.27-4.1,43.87-.2,1.83-.39,3.65-.58,5.48-.02,.16-.26,.15-.25,0,.97-14.64,1.98-29.27,3.15-43.9,.58-7.32,1.18-14.63,1.79-21.94,.6-7.3,1.45-14.62,1.68-21.95,.23-7.39-1.12-14.47-2.9-21.6-1.75-6.99-3.5-13.98-5.25-20.98-3.58-14.29-7.16-28.57-10.7-42.86-3.97-16-7.93-32.03-11.44-48.15-.02-.09,.11-.12,.13-.03Z" style="fill:#263238;"></path></g><path d="M148.08,152.95s14.26,55.9,24.24,95.25l19.02-95.25h-43.26Z" style="fill:#030402; opacity: .2;"></path></g></g><g><g><path d="M195.11,437.29c-2.58,.81-77.81-.82-80.55-2.65-1.06-.68,2.87-71.98,2.87-71.98l47.08,.91-2.28,47.71s27.76,13.15,30.57,15.49c2.79,2.32,4.89,9.73,2.31,10.53Z" style="fill:#eb9481;"></path><path d="M195.11,437.29c-2.57,.8-77.81-.82-80.55-2.66-.33-.21-.25-7.26,0-16.87,13.64,2.29,63.09,9.77,66.88,7.54,2.64-1.55,.3-3.98-1.86-5.62,6.22,3.1,12.02,6.08,13.21,7.08,2.79,2.32,4.88,9.73,2.31,10.53Z" style="fill:#263238;"></path></g><g><g><path d="M191.34,152.93s-2.53,31.61-7.74,39.54c0,0-5.12,1.78-12.97,6.46,0,0-3.22,84.55-3.16,89.63,.21,19-4.65,111.51-4.65,111.51l-49.28-.45s14.27-160.77,17.12-197.57c0,0-2.15-11.76-1.69-17.7,1.13-14.4,6.56-31.41,6.56-31.41l55.8-.02Z" style="fill:#00BFA5;"></path><path d="M191.34,152.93s-2.53,31.61-7.74,39.54c0,0-5.12,1.78-12.97,6.46,0,0-3.22,84.55-3.16,89.63,.21,19-4.65,111.51-4.65,111.51l-49.28-.45s14.27-160.77,17.12-197.57c0,0-2.15-11.76-1.69-17.7,1.13-14.4,6.56-31.41,6.56-31.41l55.8-.02Z" style="fill:#030402; opacity: .6;"></path></g><g><path d="M174.72,182.99c.18-1.18,.36-2.37,.54-3.55,.33-2.17,.77-4.32,1.15-6.48,.86-4.9,1.76-9.81,2.85-14.67,.03-.12,.22-.09,.21,.03-.19,1.96-.42,3.92-.7,5.87-.28,1.95-.47,3.92-.74,5.87-.55,3.87-1.09,7.75-1.74,11.6-.25,1.48-1.18,4.14,.96,4.61,1.69,.36,2.93-1.3,3.43-2.69,.61-1.7,.82-3.58,1.14-5.34,.35-1.95,.66-3.91,.93-5.88,.6-4.28,1.27-8.54,1.96-12.81,.02-.12,.22-.09,.21,.03-.14,4.39-.37,8.74-.95,13.11-.28,2.08-.59,4.16-.94,6.23-.33,1.93-.58,4.02-1.43,5.8-.67,1.4-1.92,2.67-3.54,2.84-.03,0-.07,0-.1,0,.04,.03,.06,.07,.06,.12-.02,.69,0,1.4-.08,2.09-.07,.68-.21,1.37-.34,2.04-.13,.68-.3,1.38-.53,2.04-.11,.32-.23,.63-.38,.94-.15,.32-.37,.56-.55,.86-.08,.12-.22,.05-.23-.07h-.01c.01-.11,.01-.23,.01-.34,0-.02,0-.04,0-.06h0c0-.2,0-.4,.04-.61,.05-.33,.12-.66,.2-.99,.14-.66,.33-1.32,.5-1.97,.18-.65,.32-1.31,.49-1.96,.17-.67,.39-1.33,.55-2.01,0-.03,.03-.05,.05-.06-1.26,.02-2.53-.65-2.98-1.87-.33-.88-.18-1.81-.04-2.71Z" style="fill:#263238;"></path><path d="M166.82,199.97c1.35-1.11,2.95-2.03,4.44-2.93,1.63-.98,3.32-1.87,5.07-2.62,3.42-1.48,6.94-2.5,10.46-3.66,.1-.03,.18,.14,.07,.18-3.41,1.36-6.69,3.16-9.99,4.78-1.62,.79-3.27,1.55-4.92,2.28-1.66,.73-3.31,1.59-5.01,2.21-.13,.05-.23-.15-.13-.23Z" style="fill:#263238;"></path><path d="M144.25,173.58c2.4-.01,10.72-.61,13.18-3.36,1.42-1.59,2.37-3.59,3.08-5.55,.79-2.2,1.37-4.45,1.87-6.73,.02-.11,.19-.07,.19,.03,.08,2.56-.29,5.17-.97,7.65-.58,2.11-1.36,4.47-3.07,5.94-1.79,1.56-4.23,2.1-6.52,2.39-2.59,.32-5.18,.24-7.76-.11-.16-.02-.16-.26,0-.26Z" style="fill:#263238;"></path><path d="M196.99,174.22c-.74-.01-2.92-1.53-3.18-1.92-1.81-2.74-2.26-11.43-2.41-13.72,0-.11-.06-.07-.06,.03-.02,2.56,.09,5.17,.3,7.65,.18,2.11,.42,4.46,.95,5.94,.55,1.56,3.61,2.63,4.41,2.28,.05-.02,.05-.26,0-.26Z" style="fill:#263238;"></path><path d="M117.69,390.48c2.77-.2,5.57-.17,8.34-.2,2.78-.04,5.56-.04,8.33-.02,5.55,.05,11.11,.14,16.66,.3,1.52,.04,3.04,.09,4.56,.16,1.63,.08,3.24,.35,4.86,.41,.13,0,.12,.2,0,.2-1.36,.01-2.73,.22-4.09,.26-1.41,.04-2.83,.05-4.25,.05-2.78,0-5.56,0-8.33-.03-5.55-.05-11.11-.12-16.66-.35-3.13-.13-6.3-.17-9.42-.48-.18-.02-.18-.27,0-.29Z" style="fill:#263238;"></path><path d="M123.45,384.33h-.03c-.32-.02-.56-.29-.55-.6l14.76-183.08c-.13-.8-3.14-11.03-3.41-16.25-.28-5.52,5.43-27.05,5.67-27.96,.08-.31,.4-.49,.7-.41,.31,.08,.49,.4,.41,.7-.06,.22-5.91,22.26-5.63,27.6,.28,5.4,3.39,16.09,3.4,16.18,0,.04-14.75,183.27-14.75,183.27-.02,.31-.27,.55-.57,.55Z" style="fill:#263238;"></path></g></g></g></g><g><g><path d="M181.96,44.23s-10.23-4.62-19.76,5.28c-11.33,11.78-4.74,41.77-5.25,45.16-.52,3.39-1.89,4.29-2.16,7.31-.27,3.02,2.35,4.78,2.73,5.82,.38,1.04-2.2,6.72-2.2,6.72,0,0,16.72,8.59,26.87,5.81,10.15-2.78,21.18-9.18,21.18-9.18,0,0-2.58-3.13-2.7-4.69-.12-1.56,1.55-3.79,1.2-6.61-.35-2.83-4.92-5.97-5.47-7.46-.55-1.49-.43-29.89-3.63-39.57-3.2-9.68-10.8-8.59-10.8-8.59Z" style="fill:#263238;"></path><path d="M203.83,110.3c-.95-1.01-1.89-2.06-2.55-3.32-.15-.32-.3-.67-.27-1.06,.34-2.32,2.18-4.48,1.62-6.89-.65-1.83-2.58-3.24-3.92-4.6-.75-.78-1.64-1.58-1.91-2.72-.06-.41-.07-.73-.1-1.09-.49-11.76-.5-23.69-3.3-35.19-.71-2.67-1.58-5.36-3.28-7.58,1.86,2.1,2.86,4.82,3.71,7.46,3.25,11.44,3.37,23.47,3.69,35.27,.01,.33,.03,.71,.07,.99,.22,.92,1,1.63,1.65,2.33,1.4,1.5,3.32,2.93,3.95,4.98,.56,2.59-1.36,4.7-1.89,7.07-.04,.31,.07,.63,.2,.95,.58,1.25,1.46,2.36,2.33,3.42h0Z" style="fill:#263238;"></path><path d="M154.4,113.12c.56-1.49,1.38-3.38,1.83-4.88v-.05c-.09-.21-.3-.39-.46-.59-1.42-1.51-2.66-3.42-2.61-5.58-.03-2.53,1.55-4.79,2.21-7.07,.49-1.58,.27-3.14,.11-4.75-1.4-13.72-3.35-29.99,6.46-40.82,1.12-1.22,2.45-2.22,3.91-2.99-1.41,.84-2.68,1.91-3.74,3.14-9.16,11.1-7.03,26.88-5.85,40.59,.17,1.65,.36,3.42-.21,5.02-.76,2.41-2.31,4.36-2.37,6.88-.07,1.6,.62,3.14,1.56,4.41,.36,.5,.78,.95,1.14,1.46,.05,.08,.11,.17,.12,.28-.53,1.71-1.38,3.3-2.1,4.93h0Z" style="fill:#263238;"></path></g><g><g><path d="M176.69,105.16c16.56,18.25,36.25,37.33,46.43,36.84,7.92-.38,37.58-13.47,46.95-28.97,2.07-3.42-25.25-16.26-27.18-14.21-5.69,6.03-22.69,14.08-23.92,13.46-1.63-.82-21.03-11.91-34.25-18.74-17.79-9.2-16.59,2.19-8.03,11.62Z" style="fill:#eb9481;"></path><g><path d="M275.29,109.45c-3.34,5.23-14.35,13.26-17.75,14.17-3.4,.91-17.67-17.35-16.78-20.85,.89-3.5,13.49-20.24,19.49-22.28,5.99-2.04,18.5,23.54,15.04,28.96Z" style="fill:#eb9481;"></path><path d="M242.4,99.54s1.6-7.91,.61-14.95c-.84-5.92-2.75-14.62,.42-15.19,6.5-1.17,11.26,20.52,11.26,20.52,0,0,.56,9.91-5.78,11.63-3.98,1.08-6.51-2.02-6.51-2.02Z" style="fill:#eb9481;"></path><g><path d="M251.65,85.47c1.53,2.91,3.84,1.5,3.84,1.5,0,0-5.02,3.93-3.79,7.35,1.19,3.29,5.85,.97,6.19,.8-.26,.21-4.78,3.95-3.19,7.26,1.65,3.44,5.93,.3,6.2,.1-.19,.28-2.59,3.98-.81,6.22,3.06,3.85,9.47-5.45,13.41-6,0,0,1.7,6.57,1.79,6.75,0,0,6.28-8.72,5.24-13.99-.55-2.78-3.25-2.82-3.25-2.82,0,0,2.34-2.59,1.17-5.23-.6-1.36-3.31-1.6-3.31-1.6,0,0,1.78-2.15,.6-4.44-.94-1.83-3.51-1.79-3.51-1.79,0,0,11.12-8.91,9.12-12.1-3.44-5.49-26.16,14.91-28.95,14.28-1.38-.32-1.41,2.45-.74,3.72Z" style="fill:#eb9481;"></path><g><path d="M271.82,79.53c.06-.02,.04-.1-.02-.09-5.92,.79-12.18,3.47-16.53,7.61-.14,.14-.35,1.03-.18,.89,4.24-3.55,10.66-6.58,16.72-8.41Z" style="fill:#263238;"></path><path d="M275.21,85.74c.07-.02,.03-.13-.04-.12-6.09,.85-13.06,4.06-17.52,9.42-.15,.18-.11,.5,.09,.3,3.23-3.34,12-8,17.47-9.61Z" style="fill:#263238;"></path><path d="M260.72,102.96c4.47-4.97,10.09-8.01,16.31-10.3,.08-.03,.03-.14-.04-.13-3.35,.29-7.16,2.17-10,3.88-2.72,1.64-4.85,3.66-6.44,6.41-.06,.11,.08,.26,.17,.16Z" style="fill:#263238;"></path></g><path d="M255.38,86.95c-.17,.16,.55,.27,.39,.44-1.79,1.84-4.83,5.3-3.66,7.1,.94,1.44,3.52,1.17,4.48,.68l2.4-1.24-1.82,1.99c-.79,.87-1.51,1.9-1.98,2.98-.47,1.07-.65,2.26-.19,3.22,.46,1.01,1.39,1.58,2.47,1.4,1.07-.14,2.19-.75,3.09-1.45l2.53-1.95-1.74,2.66c-.47,.72-.89,1.55-1.16,2.38-.27,.83-.4,1.71-.18,2.46,.22,.74,.84,1.36,1.56,1.46,.76,.12,1.64-.2,2.44-.58,1.63-.8,3.11-1.96,4.63-3.04,.76-.55,1.52-1.1,2.31-1.61,.79-.49,1.62-1.02,2.56-1.15-.92,.22-1.66,.82-2.41,1.36-.74,.57-1.45,1.17-2.17,1.77-1.43,1.2-2.88,2.4-4.57,3.35-.85,.44-1.79,.89-2.91,.79-1.16-.11-2.08-1.03-2.39-2.07-.32-1.06-.14-2.12,.14-3.06,.3-.95,.71-1.82,1.25-2.67l.78,.71c-1.06,.83-2.21,1.52-3.64,1.75-.7,.11-1.51,0-2.17-.41-.66-.41-1.12-1-1.42-1.66-.62-1.37-.3-2.89,.24-4.08,.56-1.22,1.31-2.27,2.22-3.24l.57,.76c-1.23,.58-4.09,1.2-5.83-.85-1.87-3.01,3.18-7.46,4.17-8.2Z" style="fill:#263238;"></path></g></g></g><g><path d="M239.82,100.5l21.43,28.28s-29.15,15.65-40,14.11c-10.84-1.55-34.95-23.85-46.37-39.27-11.69-15.78,.1-16.08,9.4-10.73,9.3,5.36,34.12,18.53,34.84,18.54,.72,0,20.69-10.93,20.69-10.93Z" style="fill:#ebebeb;"></path><path d="M243.17,117.51c-1.42-1.96-2.86-3.91-4.3-5.85-1.44-1.93-2.82-3.95-4.4-5.77-.07-.08-.22,0-.16,.1,1.18,2.01,2.59,3.91,3.91,5.83,1.4,2.04,2.81,4.07,4.23,6.09,2.81,4.01,5.77,7.89,8.79,11.74,.07,.1,.2-.01,.14-.11-2.64-4.07-5.34-8.09-8.2-12.02Z" style="fill:#263238;"></path><path d="M174.89,103.62c11.43,15.42,35.53,37.72,46.36,39.27,2.53,.36,6.06-.21,9.96-1.31l-56.81-51.79c-4.88,.03-6.95,3.81,.48,13.84Z" style="opacity: .1;"></path></g></g><g><path d="M193.08,140.01l2.39,18.43-61.46-3.17s13.74-50.56,24.16-60.81c8.28-8.15,17.48-7.06,23.07-.8,1.41,1.58,15.31,24.06,16.74,33.12,1.24,7.99-4.9,13.24-4.9,13.24Z" style="fill:#00BFA5;"></path><g style="opacity: .1;"><path d="M179.62,137.43c2.03,.05,4.09,.22,6.16,.79,1.03,.29,2.06,.65,3.09,1.06,.51,.2,1.02,.37,1.54,.54,.53,.17,1.09,.32,1.6,.27,.05,0,.07,.12,.02,.13-.49,.1-.95,.2-1.46,.19-.48-.01-.98-.12-1.47-.25-1.04-.27-2.09-.63-3.14-.92-2.11-.59-4.21-1.18-6.31-1.51-.1-.02-.12-.3-.03-.3Z" style="fill:#020100;"></path><path d="M170.11,139.74c2.59-.32,5.24-.5,7.84-.48,1.31,0,2.61,.11,3.92,.24,.62,.07,1.25,.14,1.87,.23,.68,.09,1.36,.29,2.04,.38,.07,0,.07,.14,0,.13-.65-.06-1.31,0-1.96,0-.65-.01-1.31-.03-1.96-.05-1.31-.03-2.61-.04-3.92-.08-2.62-.08-5.22-.14-7.84-.12-.14,0-.13-.23,0-.25Z" style="fill:#020100;"></path></g><g><path d="M167.42,88.95s6.82,40.64,7.07,43.81c.24,3.18,8.34,81.84-8.28,100.83-9.17,10.49-43.58,15.09-43.58,15.09,0,0,4.47-61.66,6.78-77.24,2.21-14.89,11.61-48.78,24.37-72.19,4.21-7.72,9.11-9.47,13.64-10.31Z" style="fill:#ebebeb;"></path><path d="M162,188.2s-6.5,.89-11.87,.86c-5.55-.03-11.06-.6-12.64-.63-.15,0-.22,.47-.12,.48,2.07,.28,8.43,.94,12.66,.96,4.23,.02,9.88-.62,11.56-1.03-.03,1.18-.03,2.09-.04,3.27-3.92,.74-11.47,2.01-23.66,.38-.03-.5,.05-3.11-.06-3.83-.02-.11-.47-.13-.49,.04-.1,.7-.42,6.99-.43,8.27-.04,3.15,.12,12.05,.9,13.78,1.76,3.91,9.35,3.96,11.46,3.99,2.12,.03,8.88,.27,11.44-2.2,1.36-1.32,1.69-8.53,1.53-14.9-.08-3.05-.05-9.38-.23-9.43Zm-12.12,25.74c-6.72-.03-9.64-1.45-10.66-2.86-1.2-1.64-1.29-4.49-1.36-7.64-.06-2.46,.06-10.2,.05-10.36,3.91,.81,14.24,1.94,23.64-.19,0,3.67,0,6.6-.03,10.26-.01,2.66-.2,7.11-1.55,8.65-1.13,1.29-5.23,2.15-10.09,2.13Z" style="fill:#dbdbdb;"></path></g><g><path d="M181.24,93.65s9.1,22.74,10.19,29.8c1.1,7.07,.57,16.64,.57,16.64,0,0,8.37,71.64,10.32,77.56,1.95,5.92,15.92,15.24,15.92,15.24,0,0-15.05-55.42-19.92-74.04-1.22-4.66-2.44-19.09-2.44-19.09,0,0,3.89-4.41,3.04-12.22-.85-7.81-13.09-27.92-17.68-33.89Z" style="fill:#ebebeb;"></path><path d="M183.61,99.14c.71,1.34,8.84,14.07,10.35,16.69l.04-.54c-1.08,1.23-2.15,2.47-3.21,3.73l-.25,.3,.23,.34,3.9,5.81-.09-.3c.01,3.6-2,19.22-1.9,21.02,.09-1.8,2.83-17.41,2.83-21v-.16l-.09-.13-3.9-5.81-.03,.63c1.06-1.26,2.1-2.52,3.14-3.8l.21-.26-.17-.28c-1.56-2.59-10.24-14.96-11.06-16.22Z" style="fill:#dbdbdb;"></path></g></g><g><path d="M180.77,93.16c.86,1.31,5.24,13.89,4.45,14.54-.79,.65-11.99,1.16-13.14,.4-1.15-.76-4.09-15.89-4.03-16.87s12.71,1.92,12.71,1.92Z" style="fill:#eb9481;"></path><g><g><path d="M168.06,91.23c.15,1.19,4.89,9.3,10.22,9.62,1.74,.1,2.7-9.35,2.7-9.35l.23-.68,3.22-9.54-10.7-8.58-1.56-1.15s-.71,2.67-1.56,6c-.04,.15-.08,.31-.12,.47-.05,.19-.11,.36-.15,.54-.13,.5-.27,1-.39,1.51-.09,.39-.19,.76-.27,1.17-.1,.41-.18,.81-.28,1.21-.86,4.04-1.4,8.27-1.35,8.77Z" style="fill:#eb9481;"></path><path d="M170.62,77.55c1.98,8.07,7.85,11.9,10.59,13.27l3.22-9.54-10.7-8.58-1.56-1.15s-.71,2.67-1.56,6Z" style="fill:#263238;"></path></g><g><path d="M197.68,62.69c4.24,17.15-5.55,21.63-9.25,22.54-3.36,.83-14.9,3.22-20.89-13.4-5.99-16.62,.64-24.02,8.22-26.31,7.58-2.3,17.68,.03,21.92,17.18Z" style="fill:#eb9481;"></path><g><path d="M167.69,72.78c3.72-2.21,3.51-6.31,3.51-6.31,4.65-2.53,6.91-6.55,7.14-6.96-.08,.38-.69,3.08-1.04,4.45,10.99-3.15,13.65-12.04,13.65-12.04,3.97,3.28,4.92,5.53,5.55,6.63,0,0-.57-6.87-4.53-11.14-4.85-5.22-10.65-3.6-10.65-3.6,0,0-8.94-1.77-15,6.22-6.52,8.61,1.37,22.74,1.37,22.74Z" style="fill:#263238;"></path><path d="M185.63,61.31c-1.69,1.17-3.61,2.04-5.54,2.65-.02,0-.02-.02,0-.02,3.07-1.19,5.74-3.11,7.75-5.74,.85-1.11,1.55-2.32,2.1-3.6,.57-1.35,1.1-2.93,1.08-4.41,0-.11,.17-.11,.17,0,.02,1.56,.02,2.99-.47,4.49-.46,1.42-1.19,2.78-2.14,3.94-.84,1.04-1.84,1.93-2.94,2.7" style="fill:#263238;"></path></g><g><path d="M195.56,61.61c-.41,.06-.8,.04-1.22,.05-.47,.01-.84,.07-1.25-.19-.22-.14-.3-.51-.19-.74,.27-.53,.83-.69,1.4-.73,.61-.04,1.09,.08,1.59,.43,.48,.34,.21,1.1-.33,1.18Z" style="fill:#263238;"></path><path d="M183.47,63.59c.4-.11,.76-.28,1.14-.42,.44-.17,.8-.26,1.08-.65,.15-.21,.08-.59-.11-.76-.45-.39-1.04-.31-1.57-.13-.58,.2-.98,.49-1.3,1.01-.31,.5,.23,1.1,.76,.96Z" style="fill:#263238;"></path><g><g><path d="M186.7,66.74s-.08,.07-.07,.12c.22,1.18,.28,2.57-.73,3.13-.03,.02-.02,.08,.02,.06,1.28-.39,1.19-2.23,.79-3.31Z" style="fill:#263238;"></path><path d="M185.44,65.67c-1.93,.16-1.48,4,.31,3.86,1.76-.14,1.31-3.99-.31-3.86Z" style="fill:#263238;"></path></g><path d="M184.71,65.96c-.31,.26-.6,.68-1,.77-.46,.1-.87-.26-1.22-.61-.04-.04-.07,0-.06,.05,.08,.74,.45,1.46,1.25,1.48,.73,.02,1.17-.7,1.27-1.46,.02-.14-.13-.33-.25-.23Z" style="fill:#263238;"></path></g><g><g><path d="M193.14,65.54s.1,.04,.11,.09c.16,1.19,.55,2.53,1.69,2.74,.04,0,.04,.07,0,.07-1.34,.04-1.83-1.74-1.8-2.89Z" style="fill:#263238;"></path><path d="M193.99,64.13c1.88-.47,2.67,3.33,.93,3.76-1.71,.42-2.51-3.37-.93-3.76Z" style="fill:#263238;"></path></g><path d="M194.77,64.17c.38,.15,.78,.46,1.19,.41,.47-.05,.74-.52,.96-.97,.02-.05,.06-.02,.07,.03,.16,.72,.04,1.53-.72,1.8-.69,.25-1.34-.29-1.67-.98-.06-.13,.01-.35,.17-.29Z" style="fill:#263238;"></path></g><path d="M185.68,76.68c.29,.28,.58,.66,1.02,.69,.42,.03,.91-.16,1.29-.32,.04-.02,.08,.02,.05,.06-.31,.46-.96,.76-1.52,.67-.54-.09-.82-.56-.96-1.05-.02-.07,.07-.1,.11-.06Z" style="fill:#263238;"></path><path d="M191.62,71.39s.17,1.76,.23,2.6c0,.08-3.07-.07-4.26,.35-.41,.14-.65-.07-.13-.28,1.59-.68,3.71-.64,3.71-.64-.01-.15-.52-2.81-.39-2.83,.46-.07,1.39,.18,1.95,.3-.66-3.71-1.91-7.29-2.52-10.99-.02-.13,.17-.19,.22-.07,1.58,3.65,2.43,7.91,3.21,11.73,.1,.47-1.68-.04-2.03-.16Z" style="fill:#263238;"></path><g><path d="M189.33,73.79s-.3,2-1.41,2.44c-1.27,.5-2.07-1-.77-2,.68-.53,2.17-.44,2.17-.44Z" style="fill:#263238;"></path><path d="M189,74.94c-.21,.52-.57,1.09-1.09,1.29-.67,.27-1.21-.03-1.38-.51h0s0-.04,0-.06c1.17-1.03,1.97-1,2.46-.72Z" style="fill:#ff99ba;"></path></g></g><g><path d="M192.27,66.42c-.55-3.03,.62-5.79,2.63-6.15,2-.37,4.08,1.8,4.64,4.82,.55,3.03-.62,5.79-2.63,6.15-2,.37-4.08-1.8-4.63-4.82Zm.74-.13c.48,2.62,2.17,4.51,3.76,4.22,1.6-.29,2.51-2.66,2.03-5.28-.48-2.62-2.17-4.52-3.77-4.22-1.6,.29-2.5,2.66-2.02,5.28Z" style="fill:#37474f;"></path><path d="M178.47,68.95c-.55-3.03,1.29-5.91,4.12-6.43,2.83-.52,5.58,1.52,6.13,4.55,.55,3.03-1.29,5.91-4.12,6.43-2.83,.52-5.58-1.52-6.13-4.55Zm.74-.13c.48,2.62,2.84,4.39,5.26,3.95,2.42-.44,4-2.94,3.52-5.56-.48-2.62-2.84-4.39-5.26-3.95-2.42,.44-4,2.94-3.52,5.56Z" style="fill:#37474f;"></path><path d="M188.38,66.62c2.57-1.47,3.98-.8,3.99-.79l.35-.66c-.07-.04-1.74-.89-4.71,.8l.37,.65Z" style="fill:#37474f;"></path><path d="M178.73,68.4l-.11-.74c-.49,.07-8.12,.87-9.32,1.21-1.27,.34-3.59,2.95-3.85,3.24l.56,.5c.66-.74,2.53-2.69,3.44-3,.02,0,.03-.01,.05-.02,.92-.26,5.12-.58,9.23-1.19Z" style="fill:#37474f;"></path></g><g><path d="M170.59,72.47s-4.67-4.85-6.92-3.1c-2.26,1.75,1.85,9.19,4.92,9.82,3.07,.62,3.71-2.21,3.71-2.21l-1.7-4.51Z" style="fill:#eb9481;"></path><path d="M164.89,71.47s-.05,.07,0,.08c2.16,.5,3.53,2.22,4.59,4.06-.72-.66-1.61-.94-2.51-.06-.05,.05,.02,.12,.07,.1,.81-.31,1.43-.26,2.1,.32,.47,.41,.84,.96,1.21,1.47,.12,.17,.44,.02,.33-.18,0-.01-.02-.03-.02-.04-.36-2.6-2.94-5.92-5.77-5.74Z" style="fill:#263238;"></path></g></g></g></g><g><path d="M166.58,97.48c-2.77,11.22-21.61,50.88-22.94,53.2,0,0-24.72,19.43-28.02,4.11s22.65-43.57,36.82-57.72c9.1-9.09,16.05-7.37,14.13,.41Z" style="fill:#ebebeb;"></path><g><path d="M145.68,146.23c3.98-9.27,10.54-23,14.87-32.26-4.04,11.14-9.28,21.83-14.87,32.26h0Z" style="fill:#263238;"></path><path d="M160.24,117.3c-.6,1.2-1.32,2.44-2.46,3.19,.9-.98,1.58-2.18,2.46-3.19h0Z" style="fill:#263238;"></path></g><path d="M167.75,92.58c-.38,1.67-.8,3.35-1.21,5.02-.41,1.67-.82,3.34-1.26,5.01-.86,3.34-1.74,6.67-2.65,10.01l-.29-.53c2,.72,3.99,1.47,5.97,2.22l.47,.18-.16,.44-2.79,7.65v-.34c1.53,3.6,3.02,7.23,4.47,10.86,.73,1.82,1.45,3.64,2.14,5.47,.68,1.83,1.4,3.66,2.05,5.5-.9-1.75-1.74-3.53-2.6-5.3-.86-1.77-1.69-3.55-2.51-5.33-1.64-3.57-3.25-7.14-4.81-10.74l-.07-.16,.06-.18,2.78-7.65,.31,.62c-1.98-.76-3.95-1.53-5.9-2.33l-.4-.16,.11-.36c.99-3.32,2.01-6.64,3.05-9.96,.51-1.66,1.06-3.32,1.6-4.97,.54-1.66,1.07-3.31,1.64-4.97Z" style="fill:#dbdbdb;"></path></g><g><g><polygon points="175.38 171.65 214.77 176.96 229.72 122.2 190.33 116.9 175.38 171.65" style="fill:#263238;"></polygon><polygon points="177.31 171.91 216.71 177.22 231.66 122.46 192.26 117.16 177.31 171.91" style="fill:#455a64;"></polygon><path d="M209.99,145.44c-.47,2.09-2.57,3.56-4.68,3.27-2.12-.28-3.45-2.21-2.98-4.3,.47-2.09,2.57-3.56,4.68-3.27,2.12,.28,3.45,2.21,2.98,4.3Z" style="fill:#fff;"></path></g><g><g><path d="M168.71,146.36c3.7,.24,5.93,27.79,.47,27.97-25.65,.86-46.9-11.1-50.68-14.49-4.96-4.44-3.31-12.58,.02-15.39,4.83-4.07,46.09,1.65,50.18,1.91Z" style="fill:#eb9481;"></path><g><path d="M165.71,146.57s10.75-2.48,17.81-3.71c3.94-.69,10.8-1.26,13.92-.45,4.67,1.22,23.44,9.33,21.58,13.92-1.69,4.16-16.93-4.85-16.93-4.85,0,0,16.18,7.73,13.23,12.37-2.96,4.63-18.82-7.84-18.82-7.84,0,0,16.45,8.32,12.65,12.61-2.87,3.25-17.88-7.24-17.88-7.24,0,0,14.09,7.25,11.28,10.71-3.11,3.83-17.57-4.98-17.57-4.98-8.63,7.6-15.85,7.69-20.99,7.15-1.25-.13,1.74-27.69,1.74-27.69Z" style="fill:#eb9481;"></path><g><path d="M196.4,148.81c1.95,.79,3.94,1.57,5.82,2.53,1.88,.96,3.72,1.99,5.51,3.12,4.37,2.77,6.67,5.19,6.51,5.06-3.75-3.17-10.42-6.71-12.3-7.67-1.87-.96-3.7-2.01-5.58-2.97-.05-.02,0-.09,.04-.07Z" style="fill:#263238;"></path><path d="M192.78,155.2c2.42,1.18,4.87,2.26,7.24,3.55,2.36,1.28,5.61,3.19,7.87,4.63,.17,.11,.09,.41-.09,.3-2.32-1.35-5.72-3.14-8.06-4.46-2.33-1.32-4.62-2.73-7-3.96-.04-.02,0-.07,.03-.06Z" style="fill:#263238;"></path><path d="M188.43,160.27c3.84,1.5,7.4,3.7,10.85,5.94,.17,.11,.01,.17-.17,.07-3.57-2.04-6.35-3.67-10.73-5.88-.07-.03-.03-.17,.05-.13Z" style="fill:#263238;"></path></g></g></g><g><path d="M160.45,144.52l9.9,33.81c-26.67-3.07-48.07-15.11-51.85-18.49-4.96-4.44-3.31-12.58,.02-15.39,4.83-4.07,38.57-1.44,41.92,.07Z" style="fill:#ebebeb;"></path><path d="M157.78,159.07c-.69-2.32-1.4-4.63-2.12-6.95-.72-2.3-1.36-4.66-2.24-6.9-.04-.1-.21-.08-.19,.04,.44,2.28,1.14,4.55,1.75,6.8,.65,2.39,1.31,4.77,1.98,7.15,1.32,4.71,2.83,9.35,4.4,13.99,.04,.11,.19,.05,.17-.06-1.14-4.72-2.36-9.4-3.75-14.06Z" style="fill:#263238;"></path></g><path d="M132.76,142.29c6.95,.11,13.91,.32,20.84,.95,2.37,.23,4.74,.48,7.08,1.02l.05,.17c3,10.18,7.22,24.25,10.1,34.32-13.87-2.11-27.86-5.29-40.32-11.91,12.45,6.14,26.24,9.07,39.88,11.15l-.38,.44c-2.9-9.76-6.99-23.9-9.86-33.83l.21,.21c-9.05-1.81-18.41-1.98-27.61-2.52h0Z" style="fill:#263238;"></path></g></g></g></g></g></svg>
