<svg xmlns="http://www.w3.org/2000/svg" viewBox="0 0 500 500"><g id="freepik--background-complete--inject-137"><rect x="42.11" y="38.05" width="81.61" height="135.08" style="fill:#e0e0e0"></rect><rect x="39.4" y="38.05" width="81.61" height="135.08" style="fill:#ebebeb"></rect><rect x="42.87" y="40.78" width="74.66" height="129.61" style="fill:#fff"></rect><rect x="57.08" y="57.63" width="45.91" height="95.92" style="fill:#ebebeb"></rect><path d="M57.08,119.6c-.1-9,8-17.7,16.83-18.95,4.23-.6,8.73.24,12.68-1.38,7.06-2.9,9.3-12.27,16.4-15l.33,69.33H57.08Z" style="fill:#e0e0e0"></path><path d="M52.33,371.6a35,35,0,0,0-14.93-5.14c-2.44-.25-5.11-.18-7.07,1.3a1.46,1.46,0,0,0-.73,1.29,1.57,1.57,0,0,0,.69.88c6.08,4.64,15.28,5.23,22,1.67" style="fill:#e0e0e0"></path><path d="M52,371.18a72.86,72.86,0,0,1-9.65-8.49,24.47,24.47,0,0,1-6-11.18,4.51,4.51,0,0,1,.48-3.75c7.69,6,13.73,13.78,15.22,23.42" style="fill:#e0e0e0"></path><path d="M52.25,371.55a35.24,35.24,0,0,1,.18-12.67,17.14,17.14,0,0,1,6.75-10.45c1.33,3.1.76,6.68-.18,9.93a48,48,0,0,1-6.69,14.08" style="fill:#e0e0e0"></path><path d="M59.79,385.06c-4.57.55-8.56,3-12,6.06A22.7,22.7,0,0,0,41,402.88c4.49-.28,8.3-3.44,11.06-7s4.68-7.44,7.71-10.77" style="fill:#e0e0e0"></path><path d="M61.43,387.22a29.57,29.57,0,0,1,3.41-28c2.61,9.27,1.65,19.75-3.41,28" style="fill:#e0e0e0"></path><path d="M71.39,399.08A21.39,21.39,0,0,0,51,410.84c-.25.5-.47,1.15-.13,1.6a1.52,1.52,0,0,0,1.35.4c4-.26,7.6-2.69,10.54-5.44s5.51-5.95,8.76-8.33" style="fill:#e0e0e0"></path><path d="M71.07,398.43a38,38,0,0,1-.37-21.25c.74-2.74,2-5.62,4.53-6.9a.87.87,0,0,1,.69-.12.89.89,0,0,1,.44.51,12.69,12.69,0,0,1,1.07,6.09,38,38,0,0,1-1,6.18c-.8,3.77-1.22,7.82-3.29,11.08a21.9,21.9,0,0,0-1.32,2.43c-.39.83-.39,1.12-.75,1.78" style="fill:#e0e0e0"></path><path d="M97.44,402.36c-2-7.43.12-16.44,4.81-22.53.34-.45.8-.93,1.36-.88.86.08,1.09,1.23,1,2.1a40.68,40.68,0,0,1-7.22,21.31" style="fill:#e0e0e0"></path><path d="M99.82,404a32.81,32.81,0,0,0,26.89-5.47,21.74,21.74,0,0,0-14.55-1.79c-4.87,1.11-9.31,3.29-12.34,7.26" style="fill:#e0e0e0"></path><path d="M101.83,399c5-8.25,14.75-13.63,24.4-14.12-1.11,3.93-4.34,7-8,8.83s-7.71,2.65-11.72,3.43c-1.56.3-3.69.63-4.7,1.86" style="fill:#e0e0e0"></path><path d="M98,375a71.74,71.74,0,0,0,3.12-14.3c.37-4.87-.32-10-2.85-14.14-4.72,9.14-5.2,19.82-.42,28.93" style="fill:#e0e0e0"></path><path d="M113.85,367c5.52-10,16.79-18.06,28.19-19.18-4.4,10.95-16.39,19.42-28.19,19.18" style="fill:#e0e0e0"></path><path d="M110.37,369c8.24,1.25,15.26,6.51,23,9.7a10.19,10.19,0,0,0,5.18,1,4.07,4.07,0,0,0,2.55-7.19,11,11,0,0,0-3.77-2.28c-8.39-3.5-17.38-3.58-26.21-1.47" style="fill:#e0e0e0"></path><path d="M105.61,374.74c1.86.53,2.5,1.5,4,2.75A42.8,42.8,0,0,0,127,386.43c.66.17,1.54.24,1.87-.37s-.08-1.16-.45-1.62a24.05,24.05,0,0,0-10.51-7.14c-4-1.49-7.5-3.3-12.29-2.91" style="fill:#e0e0e0"></path><path d="M100.23,339.84a32.93,32.93,0,0,0,25.25,8.59,1.7,1.7,0,0,0,1.15-.41c.64-.69-.13-1.76-.87-2.33-7.42-5.79-16.42-8.19-25.53-5.85" style="fill:#e0e0e0"></path><path d="M106.6,337.51a35.22,35.22,0,0,1,31.52-5.2,25.06,25.06,0,0,1-15,6.59,47.62,47.62,0,0,1-16.5-1.39" style="fill:#e0e0e0"></path><path d="M104.07,321.47c-.73-7.41-.26-13.26-.77-20.7,0-.6-.17-1.31-.73-1.53-.77-.3-1.42.66-1.67,1.45a23.72,23.72,0,0,0,3.16,20.62" style="fill:#e0e0e0"></path><path d="M103.54,322.29a43.42,43.42,0,0,0,12.27-11.93c2.43-3.32,4.47-7.29,3.92-11.36a11.79,11.79,0,0,0-8.86,4.39,24.78,24.78,0,0,0-4.51,9.09c-1,3.26-1.67,6.61-2.82,9.81" style="fill:#e0e0e0"></path><path d="M115.6,318.94a98.91,98.91,0,0,0,30.21-17.81c-3.61-1.46-7.74-.59-11.35.87-8.24,3.33-15,8.94-19,16.86" style="fill:#e0e0e0"></path><path d="M106.93,326.35c5.57.61,11.24,1,16.77.08s10.58-3.07,15.66-5.21a1.79,1.79,0,0,0,1.07-.8,1.23,1.23,0,0,0-.38-1.34,3.13,3.13,0,0,0-1.34-.63c-5.52-1.54-11.49-.82-16.92,1a78.29,78.29,0,0,0-14.86,6.89" style="fill:#e0e0e0"></path><path d="M75.08,340.1c-3.8-7.69-3.56-16.65-.27-24.56,2.31,3.52,2.6,8,2.17,12.21s-1.7,8.51-1.78,12.73" style="fill:#e0e0e0"></path><path d="M59.88,332.43a34.27,34.27,0,0,0-25.45,10.84c4.74.75,9.62-.48,13.94-2.58a70.92,70.92,0,0,0,11.94-8" style="fill:#e0e0e0"></path><path d="M49.66,329c-4.65-.38-9.12-.95-13.59.42a16.31,16.31,0,0,0-10.35,8.78,24.54,24.54,0,0,0,12.74-2.41A72.8,72.8,0,0,0,49.66,329" style="fill:#e0e0e0"></path><path d="M64.79,329.17c-4.18-2.74-8.47-5.53-13.34-6.67s-10.51-.29-13.9,3.38c3.94,2.31,8.72,2.58,13.29,2.58s10.17-.06,14.48,1.47" style="fill:#e0e0e0"></path><path d="M64.82,329.39c-7.15-7-9.86-19.63-7-29.22a44.57,44.57,0,0,1,7,29.22" style="fill:#e0e0e0"></path><path d="M84.47,309.5c1.35-3.13,2.3-6.42,3.51-9.61A27.51,27.51,0,0,1,93,291a13.12,13.12,0,0,1,8.85-4.59,35.66,35.66,0,0,1-17.18,23.11" style="fill:#e0e0e0"></path><path d="M80.92,313.65c-2.24-3.08-4.81-7.24-7.84-9.53s-7-3.68-10.65-2.8a24.83,24.83,0,0,0,18.49,12.33" style="fill:#e0e0e0"></path><path d="M81.63,309.76a52.58,52.58,0,0,1-3.53-11.42,17.81,17.81,0,0,1,1.79-11.61c3.92,7.41,5.19,15.37,1.94,23.11" style="fill:#e0e0e0"></path><path d="M84.51,286.73c2.22-7.36,8.95-12.77,16.22-15.25a6,6,0,0,1,2.85-.43,2.47,2.47,0,0,1,2.09,1.75c.27,1.25-.77,2.37-1.74,3.2a55.2,55.2,0,0,1-19.42,10.73" style="fill:#e0e0e0"></path><path d="M84.59,280.71c.28-4.74.58-9.55,2.12-14S91.22,258,95.55,256c.73,4.79-1.38,9.55-3.93,13.67s-5.62,8-7.15,12.61" style="fill:#e0e0e0"></path><path d="M84.47,284c-1.83-5.36-2-12.17-5.23-16.84-2.25-3.26-5.84-5.48-7.77-8.94a13.63,13.63,0,0,0,.45,10.15,29.09,29.09,0,0,0,5.94,8.5c2.37,2.54,4.4,4.44,6.61,7.13" style="fill:#e0e0e0"></path><path d="M84.51,441.78c-.14,0-.27-35.75-.28-79.83s.1-79.84.24-79.84.27,35.74.28,79.84S84.65,441.78,84.51,441.78Z" style="fill:#e0e0e0"></path><path d="M115.74,334.7a6.79,6.79,0,0,1-1.34.51l-3.7,1.24c-3.12,1.07-7.4,2.6-12,4.51s-9,3.58-11.42,5.72a8.41,8.41,0,0,0-2.29,3c-.36.84-.42,1.35-.47,1.34s0-.13,0-.37a5.4,5.4,0,0,1,.26-1.05A8,8,0,0,1,87,346.41a19.92,19.92,0,0,1,5-3.08c2-.92,4.18-1.89,6.51-2.85,4.67-1.91,9-3.4,12.14-4.37,1.58-.49,2.86-.86,3.75-1.1A8.56,8.56,0,0,1,115.74,334.7Z" style="fill:#e0e0e0"></path><path d="M126,309.55s-.11.15-.37.4L124.46,311l-4.28,3.89-14.25,12.69c-5.57,4.95-10.38,9.69-13.71,13.25-1.67,1.78-3,3.25-3.88,4.28-.41.48-.76.87-1,1.18s-.37.41-.39.39a2.47,2.47,0,0,1,.31-.45c.21-.29.53-.72,1-1.25.85-1.07,2.13-2.58,3.76-4.4a181.89,181.89,0,0,1,13.63-13.38c5.58-5,10.66-9.38,14.36-12.58l4.39-3.77,1.21-1A2.56,2.56,0,0,1,126,309.55Z" style="fill:#e0e0e0"></path><path d="M99.92,332.65c-.15-.07,1-2.75,2.17-6.15s1.72-6.25,1.87-6.23a20.57,20.57,0,0,1-1.38,6.4,40.79,40.79,0,0,1-1.73,4.3A6.61,6.61,0,0,1,99.92,332.65Z" style="fill:#e0e0e0"></path><path d="M84.54,354.28a6.45,6.45,0,0,1-.86-1l-2.19-2.82c-1.85-2.38-4.4-5.68-7.26-9.28s-5.48-6.83-7.39-9.17l-2.24-2.78a7,7,0,0,1-.78-1.06,6.33,6.33,0,0,1,.93.93c.57.62,1.38,1.54,2.37,2.68,2,2.28,4.65,5.47,7.52,9.08s5.37,6.94,7.14,9.38c.89,1.22,1.59,2.22,2.07,2.92A6.67,6.67,0,0,1,84.54,354.28Z" style="fill:#e0e0e0"></path><path d="M77.69,345.49a12.7,12.7,0,0,1-2.87-5.37,15.44,15.44,0,0,1-.65-5.42l.23,0c-.1.41-.18.63-.22.63s0-.24,0-.67l.23,0a24.21,24.21,0,0,0,.92,5.27A40.34,40.34,0,0,0,77.69,345.49Z" style="fill:#e0e0e0"></path><path d="M68.85,334.37a9.62,9.62,0,0,0-2-1.17,13.39,13.39,0,0,0-5.57-.44,35.09,35.09,0,0,0-5.6.9,18.62,18.62,0,0,1-2.3.56,8,8,0,0,1,2.2-.91,25.52,25.52,0,0,1,5.67-1.06,12,12,0,0,1,5.73.61A3.56,3.56,0,0,1,68.85,334.37Z" style="fill:#e0e0e0"></path><path d="M66.75,331.67c0,.08-1.16-.47-3.07-1.12A31.34,31.34,0,0,0,56,329a32,32,0,0,0-7.81.39c-2,.36-3.18.73-3.21.64a3.23,3.23,0,0,1,.82-.34,17.65,17.65,0,0,1,2.32-.65,27.19,27.19,0,0,1,15.66,1.19,20,20,0,0,1,2.19,1A3.12,3.12,0,0,1,66.75,331.67Z" style="fill:#e0e0e0"></path><path d="M84.47,320.27a62.76,62.76,0,0,1-2.24-7.77,63.71,63.71,0,0,1-1.73-7.91,65.1,65.1,0,0,1,2.23,7.78A63.25,63.25,0,0,1,84.47,320.27Z" style="fill:#e0e0e0"></path><path d="M84.61,320.27a35.89,35.89,0,0,0-2.48-4.65,20,20,0,0,0-3.65-3.77,3.28,3.28,0,0,1,1.41.73,11.27,11.27,0,0,1,2.67,2.74A10.28,10.28,0,0,1,84.61,320.27Z" style="fill:#e0e0e0"></path><path d="M84.51,422.72c-.06,0-.16-.86-.57-2.38a33.43,33.43,0,0,0-2.38-6.19c-2.47-5-7-11.44-12.68-17.85-2.83-3.23-5.57-6.28-7.9-9.2A64.73,64.73,0,0,1,55.33,379a39.86,39.86,0,0,1-2.86-6.05c-.26-.75-.45-1.33-.56-1.73a4.57,4.57,0,0,1-.15-.62c.05,0,.31.82.9,2.27a44.52,44.52,0,0,0,3,5.94,68.76,68.76,0,0,0,5.71,8c2.34,2.89,5.09,5.92,7.92,9.16,5.73,6.43,10.21,12.91,12.61,18a30.89,30.89,0,0,1,2.26,6.29,16.75,16.75,0,0,1,.32,1.8A2.71,2.71,0,0,1,84.51,422.72Z" style="fill:#e0e0e0"></path><path d="M112.73,390.84a12.42,12.42,0,0,1-1.47.83,31.73,31.73,0,0,0-3.84,2.53,45.52,45.52,0,0,0-5,4.6c-1.77,1.87-3.59,4-5.45,6.36-3.72,4.67-7.2,8.8-9.28,12.09-1.06,1.64-1.82,3-2.33,4a12.27,12.27,0,0,1-.81,1.49s0-.15.14-.42.25-.66.49-1.16a38.26,38.26,0,0,1,2.2-4.08c2-3.38,5.47-7.56,9.19-12.22,1.86-2.33,3.7-4.5,5.51-6.37a40.89,40.89,0,0,1,5.16-4.56,26.89,26.89,0,0,1,4-2.42c.49-.25.89-.4,1.16-.51S112.73,390.82,112.73,390.84Z" style="fill:#e0e0e0"></path><path d="M113.29,401.18a21.58,21.58,0,0,1-3.13.46,40.44,40.44,0,0,0-7.42,1.46,22.54,22.54,0,0,0-6.64,3.48c-1.53,1.18-2.25,2.16-2.32,2.1a3,3,0,0,1,.46-.72,12.82,12.82,0,0,1,1.63-1.66,20.05,20.05,0,0,1,6.72-3.7,33.54,33.54,0,0,1,7.53-1.33A17.11,17.11,0,0,1,113.29,401.18Z" style="fill:#e0e0e0"></path><path d="M94.69,407.55c-.16-.09,1.25-2.25,2.34-5.14s1.27-5.48,1.45-5.46a4.71,4.71,0,0,1,0,1.68,17.9,17.9,0,0,1-.91,3.95,19.35,19.35,0,0,1-1.81,3.63A5.14,5.14,0,0,1,94.69,407.55Z" style="fill:#e0e0e0"></path><path d="M121.88,363.07a2.5,2.5,0,0,1-.5.27l-1.47.66c-.65.28-1.43.63-2.31,1.09s-1.91.93-3,1.57l-1.7,1c-.59.34-1.18.75-1.8,1.14-1.26.76-2.52,1.7-3.86,2.66a66.56,66.56,0,0,0-14.88,15.39c-.91,1.38-1.81,2.67-2.52,3.95-.37.64-.76,1.24-1.08,1.84l-.91,1.74c-.6,1.09-1,2.14-1.46,3s-.76,1.68-1,2.34-.46,1.09-.62,1.49a2.53,2.53,0,0,1-.25.51,2.34,2.34,0,0,1,.15-.55c.14-.4.31-.91.53-1.53a25.13,25.13,0,0,1,.93-2.38c.4-.91.82-2,1.41-3.09l.88-1.76c.32-.61.69-1.22,1.06-1.87.7-1.3,1.59-2.61,2.5-4a63.64,63.64,0,0,1,15-15.5c1.37-1,2.64-1.89,3.92-2.64.63-.39,1.23-.79,1.83-1.12l1.73-1c1.09-.62,2.14-1.07,3-1.51s1.69-.76,2.35-1l1.51-.58A2,2,0,0,1,121.88,363.07Z" style="fill:#e0e0e0"></path><path d="M99.54,378a3.5,3.5,0,0,1,1.23-1.83,7.73,7.73,0,0,1,4.94-1.9,13.46,13.46,0,0,1,5.21,1,7.29,7.29,0,0,1,2,.95,11.3,11.3,0,0,1-2.09-.61,15.55,15.55,0,0,0-5.07-.84,8,8,0,0,0-4.73,1.66A13.76,13.76,0,0,0,99.54,378Z" style="fill:#e0e0e0"></path><path d="M96.2,381.48a18.22,18.22,0,0,0,1.4-4.57,18.9,18.9,0,0,0-.31-4.77,3,3,0,0,1,.58,1.33,9.61,9.61,0,0,1,.25,3.5,9.45,9.45,0,0,1-1.05,3.35C96.63,381.11,96.25,381.52,96.2,381.48Z" style="fill:#e0e0e0"></path><path d="M59.82,427.84c.77,13.66,4.89,27.56,11.22,41.6H98.57c6-13.91,9.87-27.78,10.55-41.6Z" style="fill:#e0e0e0"></path><path d="M104.66,450c0,.14-9.06.26-20.24.26s-20.25-.12-20.25-.26,9.06-.26,20.25-.26S104.66,449.8,104.66,450Z" style="fill:#fafafa"></path><path d="M104.05,454.9c0,.14-8.5.25-19,.25s-19-.11-19-.25,8.5-.26,19-.26S104.05,454.75,104.05,454.9Z" style="fill:#fafafa"></path><path d="M71.48,436.81a77.55,77.55,0,0,1,0,12.69,77.55,77.55,0,0,1,0-12.69Z" style="fill:#fafafa"></path><path d="M86.24,436.81a86.45,86.45,0,0,1,0,13.14,83.14,83.14,0,0,1,0-13.14Z" style="fill:#fafafa"></path><path d="M100.08,436.7a86.46,86.46,0,0,1,0,13.4,89.9,89.9,0,0,1,0-13.4Z" style="fill:#fafafa"></path><path d="M108.25,436.81c0,.14-10.63.26-23.75.26s-23.74-.12-23.74-.26,10.63-.26,23.74-.26S108.25,436.67,108.25,436.81Z" style="fill:#fafafa"></path><polygon points="458.38 37 458.38 112.57 349.85 112.57 345.94 37.53 458.38 37" style="fill:#e0e0e0"></polygon><rect x="362.76" y="20.7" width="74.88" height="108.54" transform="translate(325.23 475.18) rotate(-90)" style="fill:#ebebeb"></rect><rect x="357.69" y="46.83" width="85.03" height="56.27" style="fill:#fff"></rect><path d="M442.72,46.83l-.42,0h-1.21l-4.67,0L418.9,47l-61.21.12.25-.25c0,17.2,0,36.25,0,56.27h0l-.27-.27,85,.06-.21.21c0-17.13.08-31.17.11-40.95,0-4.88,0-8.7.05-11.32q0-1.94,0-3c0-.68,0-1,0-1s0,.33,0,1,0,1.66,0,2.94c0,2.6,0,6.41.05,11.27,0,9.81.07,23.9.11,41.08v.21h-.21l-85,.06h-.27v-.27h0c0-20,0-39.07,0-56.27v-.24h.24l61.37.12,17.47.07,4.62,0h1.57Z" style="fill:#e0e0e0"></path><path d="M345.94,37.32a9.44,9.44,0,0,1,1.86,1.21c1.11.8,2.63,1.94,4.26,3.24s3.07,2.55,4.08,3.47a9,9,0,0,1,1.55,1.59,73.07,73.07,0,0,1-6-4.64A58.88,58.88,0,0,1,345.94,37.32Z" style="fill:#e0e0e0"></path><path d="M454.47,37.53a50.9,50.9,0,0,1-5.71,4.86,51.56,51.56,0,0,1-6,4.44A53.35,53.35,0,0,1,448.43,42,52.55,52.55,0,0,1,454.47,37.53Z" style="fill:#e0e0e0"></path><path d="M454.39,112.42l-12.1-9.8" style="fill:#fff"></path><path d="M442.29,102.62a55.41,55.41,0,0,1,6.22,4.69,58.42,58.42,0,0,1,5.88,5.11,55.41,55.41,0,0,1-6.22-4.69A57.08,57.08,0,0,1,442.29,102.62Z" style="fill:#e0e0e0"></path><path d="M345.94,112.41a51.57,51.57,0,0,1,5.65-4.81,51.13,51.13,0,0,1,6-4.39,51.44,51.44,0,0,1-5.65,4.81A51.13,51.13,0,0,1,345.94,112.41Z" style="fill:#e0e0e0"></path><rect x="392.28" y="47.04" width="18.84" height="53.5" transform="translate(327.92 475.5) rotate(-90)" style="fill:#e0e0e0"></rect></g><g id="freepik--Floor--inject-137"><path d="M467,469.26c0,.14-97.14.26-216.95.26s-217-.12-217-.26,97.12-.26,217-.26S467,469.11,467,469.26Z" style="fill:#263238"></path></g><g id="freepik--Zoom--inject-137"><rect x="299.97" y="83.73" width="129.65" height="140.06" rx="14.93" style="fill:#fff"></rect><path d="M321,83.73s6,26.39,6,34.64.31,24.87,2.18,37.87,3.72,22.77,4.34,27.7-3.66,39.86-3.66,39.86h70.07s-3.38-37.64-4.31-47.92-1.24-33.91,2.8-48.54,8.07-24.3,11.18-34l2.85-9.64Z" style="fill:#ebebeb"></path><path d="M391.85,131.76c-2.92-6.87-13.73-15.92-21.34-15.36l-21.17,4.07c-7.76,6.44-13.89,17.28-14.82,27.17-.52,5.57-.41,11.34,1.65,16.56a28.27,28.27,0,0,0,11.18,13.09,44.26,44.26,0,0,0,16.49,6.08c7.09,1.22,15,1,20.73-3.2,4-2.89,6.52-7.37,7.87-12s1.61-9.55,1.83-14.39C394.6,146.33,394.78,138.63,391.85,131.76Z" style="fill:#00BFA5"></path><path d="M388.91,133.4c-.42-5.28-4.18-7.72-7.2-8.74a6.55,6.55,0,0,1-4-3.25c-6.16-9.45-7.93-37.7-7.93-37.7H348.73s.52,26.83-.52,32.52-1.88,7.42-3.45,11.89-2.92,6.6-3.13,10.46.63,7.52.84,10.77a4.06,4.06,0,0,0,1.86,3.1,6.35,6.35,0,0,0,3.48,1.1c1,0,2.45.06,3.84.06,2.4,0,9.5-3.45,12.57-2.94s6.74,3.86,12.89,4.57a12.54,12.54,0,0,0,3.07,0,10.34,10.34,0,0,0,8.64-7.52l.09-.38A85.2,85.2,0,0,0,388.91,133.4Z" style="fill:#e0e0e0"></path><path d="M389.14,160.41c-.85-3.6-4.68-4.35-9.59-3.84s-13.47-3.79-16.06-4-8.57,2.23-12.27,2.53-5.12-1.25-7,.81-.71,6.13-.71,6.13c1.28,3.71,2.53,8,6.44,12.55a26.26,26.26,0,0,1,6.34,15.94c.32,5.86.74,33.41.74,33.41h15.85s.85-18.19.85-23.44a58.54,58.54,0,0,1,2.44-17.12c1.56-4.86,2.87-6.55,6.43-9.21S390,164,389.14,160.41Z" style="fill:#e0e0e0"></path><path d="M341,163.66a2,2,0,0,0-3.17-.14,6.5,6.5,0,0,0-.82,1.42c-1.32,3-2.53,7.05.77,11.22s5.05,47.8,5.05,47.8h6.47s-2-31.13-2-34.66.87-13.14-.44-16.24C346,170.76,342.66,166,341,163.66Z" style="fill:#e0e0e0"></path><path d="M341,163.66l.2.25.55.74c.48.67,1.17,1.65,2,2.94a49.1,49.1,0,0,1,3,4.85,9.24,9.24,0,0,1,.87,3.47,39.34,39.34,0,0,1,.17,4c0,2.8-.19,5.88-.25,9.16s.32,6.82.52,10.54c.46,7.44,1,15.66,1.5,24.33l0,.28h-7V224c-.4-9.07-.9-17.68-1.52-25.49-.31-3.91-.65-7.61-1-11.06a64.33,64.33,0,0,0-1.65-9.49,5.3,5.3,0,0,0-.88-1.89,10.31,10.31,0,0,1-1.08-1.78,8.69,8.69,0,0,1-.87-3.69,13.67,13.67,0,0,1,1.47-5.84,3.75,3.75,0,0,1,1.36-1.74,2,2,0,0,1,1.61-.13,1.8,1.8,0,0,1,1,.8A2.45,2.45,0,0,0,340,163a2,2,0,0,0-1.51.16,3.76,3.76,0,0,0-1.25,1.7,13.52,13.52,0,0,0-1.36,5.74,8.41,8.41,0,0,0,.88,3.56,9.11,9.11,0,0,0,1.06,1.71,6,6,0,0,1,.95,2,64.26,64.26,0,0,1,1.72,9.55c.42,3.46.78,7.16,1.11,11.07.64,7.82,1.16,16.43,1.56,25.51l-.26-.25h6.47l-.26.27c-.51-8.67-1-16.89-1.45-24.33-.19-3.73-.42-7.25-.47-10.57s.3-6.37.31-9.16c0-1.39,0-2.72-.12-4a9.12,9.12,0,0,0-.81-3.37,53.64,53.64,0,0,0-2.87-4.87l-2-3c-.22-.32-.38-.58-.51-.77S341,163.67,341,163.66Z" style="fill:#263238"></path><path d="M387.65,145.3c-4.22.24-7.79,3.08-11.84,4.27-5.45,1.59-11.28.1-16.81-1.21s-11.48-2.37-16.63-.15c0,.38.07.76.1,1.14a4.06,4.06,0,0,0,1.86,3.1,6.35,6.35,0,0,0,3.48,1.1c1,0,2.45.06,3.84.06,2.4,0,9.5-3.45,12.57-2.94s6.74,3.86,12.89,4.57a12.54,12.54,0,0,0,3.07,0,10.34,10.34,0,0,0,8.64-7.52l.09-.38a15.46,15.46,0,0,0,.17-1.86A3.59,3.59,0,0,0,387.65,145.3Z" style="fill:#fafafa"></path><path d="M388.91,133.4s0,.18.06.54.08.9.13,1.6c.08,1.41.18,3.48.18,6.16,0,1.34,0,2.83-.12,4.46a9.34,9.34,0,0,1-.14,1.26,10.36,10.36,0,0,1-1.69,3.71,10.62,10.62,0,0,1-4.84,3.69,12.44,12.44,0,0,1-6.82.38,26.53,26.53,0,0,1-7.09-2.55,25,25,0,0,0-3.63-1.59,7.29,7.29,0,0,0-4,.15c-2.72.65-5.39,1.82-8.36,2.51a9.9,9.9,0,0,1-2.3.1l-2.3,0a6.39,6.39,0,0,1-4.44-1.65,4.22,4.22,0,0,1-1.27-2.15,9.06,9.06,0,0,1-.13-1.22l-.12-1.2c-.19-1.61-.43-3.23-.57-4.89a25.9,25.9,0,0,1,0-5.06,19,19,0,0,1,1.31-5c1.28-3.2,2.45-6.5,3.59-9.85a48.91,48.91,0,0,0,1.32-5.17,31.78,31.78,0,0,0,.64-5.36c.26-4.94.26-9.81.28-14.58s-.05-9.43-.12-14v-.26h.26l21.08,0H370l0,.22a199.12,199.12,0,0,0,2.65,21.48c1.24,6.37,2.68,12,5.17,16.15h0v0a6.38,6.38,0,0,0,2.65,2.65,10.31,10.31,0,0,0,1.62.68,13.54,13.54,0,0,1,1.53.69,9.89,9.89,0,0,1,4,3.69,9.13,9.13,0,0,1,1.15,3.17,11,11,0,0,1,.12,1.16,1.19,1.19,0,0,1-.06-.29,8,8,0,0,0-.14-.85,9.34,9.34,0,0,0-1.2-3.12,9.84,9.84,0,0,0-3.94-3.56,10.92,10.92,0,0,0-1.51-.66,11.48,11.48,0,0,1-1.66-.69,6.56,6.56,0,0,1-2.79-2.76v0c-2.56-4.18-4-9.85-5.3-16.24a193.23,193.23,0,0,1-2.74-21.52l.23.21-21.08,0,.25-.25q.12,6.8.14,14c0,4.77,0,9.65-.28,14.61,0,.91-.13,1.82-.21,2.73s-.26,1.82-.45,2.7a46,46,0,0,1-1.33,5.23c-1.15,3.37-2.32,6.68-3.61,9.87a18.85,18.85,0,0,0-1.28,4.87,26.51,26.51,0,0,0,0,5c.14,1.64.38,3.26.56,4.87l.12,1.21a8.2,8.2,0,0,0,.13,1.17,3.69,3.69,0,0,0,1.11,1.9,6,6,0,0,0,4.13,1.53l2.3,0a9.38,9.38,0,0,0,2.2-.09c2.88-.66,5.59-1.83,8.35-2.48a14.73,14.73,0,0,1,2.09-.36,5.51,5.51,0,0,1,2.1.23,25.13,25.13,0,0,1,3.68,1.63,26.6,26.6,0,0,0,7,2.55,12.16,12.16,0,0,0,6.64-.33A10.27,10.27,0,0,0,387.1,151a9.69,9.69,0,0,0,1.29-2.38,7.76,7.76,0,0,0,.37-1.22,9.93,9.93,0,0,0,.16-1.22c.12-1.61.14-3.1.16-4.44,0-2.67,0-4.75-.09-6.15,0-.69-.05-1.22-.07-1.6S388.91,133.4,388.91,133.4Z" style="fill:#263238"></path><path d="M388.93,161l.26-.14a2.73,2.73,0,0,0-.05-.4c-.85-3.6-4.68-4.35-9.59-3.84s-13.47-3.79-16.06-4-8.57,2.23-12.27,2.53-5.12-1.25-7,.81a4.23,4.23,0,0,0-1,2.24c2,1.73,5.09,2.14,7.83,1.77,3.22-.44,6.29-1.71,9.53-2,4.83-.41,9.52,1.41,14.16,2.78S384.57,163,388.93,161Z" style="fill:#fafafa"></path><path d="M389.14,160.41a2.92,2.92,0,0,1,.06.32l.07.41c0,.16,0,.35,0,.56a12.13,12.13,0,0,1-.74,3.69,23.36,23.36,0,0,1-2.71,5.39,17,17,0,0,1-2.45,2.92c-1,.91-2.23,1.68-3.28,2.76-2.21,2.07-3.35,5.3-4.3,8.73A57.9,57.9,0,0,0,374,196.6c-.28,8.24-.59,17.45-.93,27.37v.23H356.76V224c-.13-5.71-.26-11.66-.4-17.74-.08-3.5-.15-7-.23-10.39,0-1.71-.07-3.4-.11-5.09a26.76,26.76,0,0,0-.68-4.91,25.64,25.64,0,0,0-3.85-8.79c-.87-1.31-1.94-2.45-2.9-3.71a26.72,26.72,0,0,1-2.47-3.94,35,35,0,0,1-1.78-4.17c-.25-.7-.49-1.4-.73-2.09l-.36-1c-.09-.36-.16-.72-.22-1.08a7.5,7.5,0,0,1,.4-4.32,3.91,3.91,0,0,1,1.46-1.61,3.34,3.34,0,0,1,2.1-.42,19.77,19.77,0,0,0,3.94.28,21,21,0,0,0,3.74-.65c2.44-.59,4.73-1.34,7-1.74a9.22,9.22,0,0,1,1.74-.14,8.56,8.56,0,0,1,1.66.36c1.06.32,2.06.69,3,1,1.95.7,3.79,1.35,5.54,1.84a20.39,20.39,0,0,0,5,.85c.77,0,1.52-.1,2.24-.13s1.4,0,2.05,0a10.2,10.2,0,0,1,3.36.69,4.81,4.81,0,0,1,2,1.5,4.47,4.47,0,0,1,.71,1.37c.09.34.13.51.13.51a5.86,5.86,0,0,0-.92-1.82,4.86,4.86,0,0,0-2-1.42,10,10,0,0,0-3.31-.62,19.92,19.92,0,0,0-2,0c-.71,0-1.45.13-2.25.15a20.11,20.11,0,0,1-5-.82c-1.77-.48-3.63-1.12-5.58-1.8-1-.35-2-.7-3-1a8,8,0,0,0-1.58-.34,8.59,8.59,0,0,0-1.66.14c-2.24.41-4.54,1.16-7,1.77a22.3,22.3,0,0,1-3.81.68,21.57,21.57,0,0,1-4-.27,2.88,2.88,0,0,0-1.83.36,3.52,3.52,0,0,0-1.29,1.44,7,7,0,0,0-.35,4c.06.35.13.7.22,1l.35,1c.24.69.48,1.38.73,2.08a32.84,32.84,0,0,0,1.77,4.11A26,26,0,0,0,349,173c.93,1.22,2,2.39,2.92,3.73a26.1,26.1,0,0,1,3.94,9,26.76,26.76,0,0,1,.69,5c0,1.68.08,3.38.12,5.09.07,3.42.15,6.88.23,10.4.13,6.08.26,12,.39,17.74l-.26-.25h15.85l-.24.24c.36-9.92.7-19.13,1-27.38a57.55,57.55,0,0,1,1.84-11.47,36.59,36.59,0,0,1,1.72-4.93,12.65,12.65,0,0,1,2.72-3.93c1.07-1.08,2.31-1.87,3.3-2.74a16.35,16.35,0,0,0,2.44-2.86,23.38,23.38,0,0,0,2.76-5.3,12.62,12.62,0,0,0,.8-3.64c0-.21,0-.39,0-.56l0-.4A1.63,1.63,0,0,1,389.14,160.41Z" style="fill:#263238"></path><path d="M377.14,138.35c-1.08-2.11-3-2.59-8.76-4.08a30.37,30.37,0,0,0-7.32-1.16,10.29,10.29,0,0,0-6.86,2.35,9,9,0,0,0-2.53,7.75,17.36,17.36,0,0,0,3.32,7.7c1.63,2.32,3.55,4.44,5.23,6.73a6.56,6.56,0,0,0,2.77,2.61,5,5,0,0,0,3.84-.54,18.65,18.65,0,0,0,7.15-7.06c1.27-2,3.18-4.27,3.68-6.58S378.22,140.46,377.14,138.35Z" style="fill:#e0e0e0"></path><path d="M377.14,138.35a3.39,3.39,0,0,1,.38.77,9.56,9.56,0,0,1,.53,2.39,15.29,15.29,0,0,1-.11,3.88,11.37,11.37,0,0,1-2,4.72l-1.65,2.47a32,32,0,0,1-1.85,2.66A16.45,16.45,0,0,1,367,159.9a5.49,5.49,0,0,1-3.88.65,6.32,6.32,0,0,1-3.07-2.72c-1.59-2.18-3.49-4.28-5.18-6.66a17.91,17.91,0,0,1-3.42-7.75A8.73,8.73,0,0,1,360,133a20.7,20.7,0,0,1,6.2.61c1.85.41,3.51.88,5,1.28a24.81,24.81,0,0,1,3.66,1.26,4.9,4.9,0,0,1,1.94,1.5,3.33,3.33,0,0,1,.41.75,5,5,0,0,0-2.43-2.07,27.63,27.63,0,0,0-3.66-1.16c-1.46-.37-3.11-.81-5-1.2a20.9,20.9,0,0,0-6.09-.54,9.1,9.1,0,0,0-6.15,2.8,9,9,0,0,0-1.9,7.17,17.31,17.31,0,0,0,3.34,7.52c1.66,2.35,3.55,4.45,5.16,6.66a5.92,5.92,0,0,0,2.8,2.54,5.1,5.1,0,0,0,3.53-.6,15.92,15.92,0,0,0,5.3-4.5,30.52,30.52,0,0,0,1.85-2.61l1.68-2.45a12.13,12.13,0,0,0,2.24-8.38,10,10,0,0,0-.43-2.38C377.25,138.62,377.11,138.36,377.14,138.35Z" style="fill:#263238"></path><path d="M414.69,223.8l1.33-.1c.43,0,1-.14,1.61-.23a17.65,17.65,0,0,0,2.16-.64,15.16,15.16,0,0,0,5.28-3.34,15,15,0,0,0,4.09-7.41,22.68,22.68,0,0,0,.35-5.1c0-1.8,0-3.7,0-5.67,0-4,0-8.26,0-12.87,0-9.24,0-19.75,0-31.37s0-24.35,0-38c0-6.82,0-13.91,0-21.16A14.66,14.66,0,0,0,414.89,84h-100a14.65,14.65,0,0,0-14.22,11.09,25.25,25.25,0,0,0-.46,6.4V127c0,16.72,0,32.85,0,48.22q0,11.53,0,22.46v10.76a14.75,14.75,0,0,0,11.39,14.77,20,20,0,0,0,4.82.39h23l55.05.09,15,.05,3.9,0,1.32,0s-.45,0-1.32,0l-3.9,0-15,.05-55.05.08-18.24,0h-4.81a20,20,0,0,1-4.92-.39,15.12,15.12,0,0,1-8.46-5.36,15.28,15.28,0,0,1-3.28-9.82q0-5.3,0-10.76,0-10.92,0-22.46c0-15.37,0-31.5,0-48.22q0-12.55,0-25.51a25.76,25.76,0,0,1,.48-6.53,15.17,15.17,0,0,1,14.72-11.48l100,0a15.12,15.12,0,0,1,14.91,14.36c.08,7.3,0,14.36,0,21.19,0,13.67,0,26.4,0,38s0,22.13,0,31.37c0,4.61,0,8.91,0,12.87,0,2,0,3.87,0,5.67a22,22,0,0,1-.37,5.14,14.89,14.89,0,0,1-9.54,10.81,15.72,15.72,0,0,1-2.18.61c-.64.09-1.18.2-1.62.22Z" style="fill:#263238"></path><path d="M299.45,175.64a.67.67,0,0,1-.25,0l-.72,0-2.79.05-10.27.08h-1.66a13.81,13.81,0,0,0-1.71.07,5.73,5.73,0,0,0-4.86,4.84,14.9,14.9,0,0,0-.07,2c0,.69,0,1.4,0,2.12,0,5.73,0,12,0,18.64,0,3.32,0,6.52,0,9.68a6.16,6.16,0,0,1-2.17,4.13,6.27,6.27,0,0,1-4.23,1.47l-15.23-.06-10.26-.08-2.79,0-.73,0a1.1,1.1,0,0,1-.24,0l.24,0,.73,0,2.79,0,10.26-.09,15.23,0a5.84,5.84,0,0,0,3.91-1.36,5.74,5.74,0,0,0,2-3.81c.05-3.07,0-6.33,0-9.63,0-6.61,0-12.91,0-18.64,0-.72,0-1.43,0-2.12a13.46,13.46,0,0,1,.08-2.1,6.05,6.05,0,0,1,1.86-3.56A6.13,6.13,0,0,1,282,175.5a13.31,13.31,0,0,1,1.77-.05h1.66l10.27.09,2.79.05.72,0A.79.79,0,0,1,299.45,175.64Z" style="fill:#263238"></path><path d="M301.53,175.85a2.26,2.26,0,1,1-2.26-2.25A2.26,2.26,0,0,1,301.53,175.85Z" style="fill:#263238"></path><circle cx="241.29" cy="218.78" r="2.25" style="fill:#263238"></circle></g><g id="freepik--Plant--inject-137"><path d="M358.24,441.46s-4-27.72-3.69-43.85,0-34.27,0-34.27h1.86s-1.26,32,.11,51.32,5,26.8,5,26.8h-3.23" style="fill:#263238"></path><path d="M370.25,332.15a4.84,4.84,0,0,0-1.69-2.48c-1.18-.75-2.72-.44-4,0-5.61,2-10.59,12.45-12.86,18l7.46,25.11C372.57,360.29,374.9,343.92,370.25,332.15Z" style="fill:#455a64"></path><path d="M368.13,330.69a1.69,1.69,0,0,1-.11.32l-.37.92c-.32.79-.78,1.94-1.33,3.36-1.1,2.86-2.5,6.84-3.75,11.33s-2.1,8.64-2.63,11.65c-.26,1.5-.46,2.72-.59,3.57-.06.39-.12.71-.16,1a1.52,1.52,0,0,1-.07.33s0-.12,0-.34.06-.58.1-1c.09-.85.26-2.08.5-3.59a105.83,105.83,0,0,1,2.55-11.69,107.86,107.86,0,0,1,3.84-11.33c.57-1.41,1.06-2.55,1.42-3.33L368,331A1.2,1.2,0,0,1,368.13,330.69Z" style="fill:#263238"></path><path d="M355.8,378.79a22.73,22.73,0,0,1-11.48-19.09c-.27-5.58,1.44-11.05,3.38-16.28a2.13,2.13,0,0,1,.79-1.18,2,2,0,0,1,1.9.3c5.08,2.89,8.15,8.4,9.79,14a28.31,28.31,0,0,1,1.15,11.52,19.15,19.15,0,0,1-5.53,10.72" style="fill:#455a64"></path><path d="M355.8,378.79a1.3,1.3,0,0,1,0-.34l0-1c0-.84,0-2.05-.11-3.54a95.67,95.67,0,0,0-1.29-11.6c-.78-4.5-1.72-8.53-2.41-11.44-.34-1.42-.62-2.59-.83-3.45-.09-.38-.16-.69-.21-.94a1.34,1.34,0,0,1-.06-.33,1.72,1.72,0,0,1,.12.32l.27.92c.23.81.54,2,.92,3.43.75,2.9,1.72,6.93,2.5,11.44a85.33,85.33,0,0,1,1.21,11.64c0,1.5,0,2.71,0,3.55,0,.39,0,.71,0,1A1.91,1.91,0,0,1,355.8,378.79Z" style="fill:#263238"></path><g style="opacity:0.30000000000000004"><path d="M355.8,378.79a22.73,22.73,0,0,1-11.48-19.09c-.27-5.58,1.44-11.05,3.38-16.28a2.13,2.13,0,0,1,.79-1.18,2,2,0,0,1,1.9.3c5.08,2.89,8.15,8.4,9.79,14a28.31,28.31,0,0,1,1.15,11.52,19.15,19.15,0,0,1-5.53,10.72"></path></g><path d="M363.68,421.2c6.88,1.51,12.54,6.36,19.17,8.72,4.39,1.56,9.35,2.11,12.86,5.18-.84-2.12-2.84-3.54-4.77-4.75a86.08,86.08,0,0,0-17.38-8.29c-3.12-1.08-6.5-2-9.68-1.09" style="fill:#455a64"></path><path d="M353.74,427.33c-8.61-.14-17.67-7.47-26.24-7.91,9-2.9,21.81-.53,26.24,7.91" style="fill:#455a64"></path><path d="M357.11,406.67a28,28,0,0,1,13.76-.93,82.69,82.69,0,0,1,13.44,3.65c-.44-3-2.86-5.24-5.13-7.22a35.4,35.4,0,0,0-5.4-4.15,12,12,0,0,0-6.47-1.83,10.23,10.23,0,0,0-7.14,3.6,11.87,11.87,0,0,0-3.06,6.88" style="fill:#455a64"></path><path d="M339.44,397.17c-5.42-4.63-13.63-4.18-20.76-4a169.34,169.34,0,0,1,32.19,20.06C351.16,408.17,346.28,403,339.44,397.17Z" style="fill:#455a64"></path><g style="opacity:0.30000000000000004"><path d="M339.44,397.17c-5.42-4.63-13.63-4.18-20.76-4a169.34,169.34,0,0,1,32.19,20.06C351.16,408.17,346.28,403,339.44,397.17Z"></path></g><path d="M359.55,390.78a60.25,60.25,0,0,1,8.33-4.85c2.85-1.29,5.52-3.36,8.27-4.85,3.57-1.94,6.67-4.62,10-7s6.88-4.57,10.89-5.2a21.34,21.34,0,0,0-9.91.57,63.67,63.67,0,0,0-9.33,3.63c-4.23,1.91-8.53,3.86-12,6.95s-6.58,6.14-6.21,10.77" style="fill:#455a64"></path><path d="M382.7,427.33a1.53,1.53,0,0,1-.28-.12l-.75-.39c-.65-.35-1.58-.86-2.75-1.45-.58-.3-1.22-.62-1.92-.95s-1.44-.68-2.24-1a32.54,32.54,0,0,0-5.3-1.85,11.29,11.29,0,0,0-5.52-.14,14.64,14.64,0,0,0-2.34.7,11.12,11.12,0,0,0-1.89,1,12,12,0,0,0-2.37,2c-.5.53-.75.86-.77.84a1.48,1.48,0,0,1,.16-.25,6.32,6.32,0,0,1,.52-.67,11.07,11.07,0,0,1,2.34-2.07,12.58,12.58,0,0,1,1.91-1,15.67,15.67,0,0,1,2.37-.74,11.59,11.59,0,0,1,5.66.12,31.58,31.58,0,0,1,5.35,1.89c.79.35,1.54.7,2.23,1.05s1.34.67,1.91,1c1.16.62,2.08,1.16,2.71,1.54l.72.44A1.12,1.12,0,0,1,382.7,427.33Z" style="fill:#263238"></path><path d="M347.32,423.06a2,2,0,0,1,.54.16,11,11,0,0,1,1.4.61,17,17,0,0,1,4.12,2.91,17.35,17.35,0,0,1,3.08,4,12.12,12.12,0,0,1,.66,1.38,1.68,1.68,0,0,1,.18.53c-.05,0-.37-.71-1-1.8a19.2,19.2,0,0,0-7.11-6.83C348,423.4,347.3,423.11,347.32,423.06Z" style="fill:#263238"></path><path d="M328.27,396.73l.37.11,1,.37,1.63.6c.64.24,1.33.58,2.11.93a49.82,49.82,0,0,1,11.21,7.14,54.31,54.31,0,0,1,5.22,5.15,55.51,55.51,0,0,1,3.71,4.7c1,1.39,1.73,2.55,2.24,3.35l.59.93a1.74,1.74,0,0,1,.19.33,1.71,1.71,0,0,1-.24-.3c-.15-.2-.37-.5-.64-.89-.54-.78-1.31-1.92-2.31-3.3s-2.27-3-3.75-4.63a57.66,57.66,0,0,0-5.21-5.11,52.9,52.9,0,0,0-11.11-7.18c-.77-.35-1.45-.71-2.08-1l-1.6-.65-1-.42A2,2,0,0,1,328.27,396.73Z" style="fill:#263238"></path><path d="M370,401.83a2.89,2.89,0,0,1-.69-.09l-.79-.14c-.31-.06-.67-.06-1.06-.1a10.63,10.63,0,0,0-8.61,3.16,12.79,12.79,0,0,0-1.73,2.14,17.5,17.5,0,0,0-1.18,2.26,2.37,2.37,0,0,1,.17-.67,9.12,9.12,0,0,1,.83-1.7,11.57,11.57,0,0,1,1.71-2.23,10.47,10.47,0,0,1,8.83-3.18,9.2,9.2,0,0,1,1.07.15l.79.2A3.19,3.19,0,0,1,370,401.83Z" style="fill:#263238"></path><path d="M378.68,375a2.41,2.41,0,0,1-.32.2l-1,.52c-.83.45-2,1.11-3.49,2s-3.17,1.95-5,3.25a41.2,41.2,0,0,0-5.57,4.66,14.24,14.24,0,0,0-2.28,3c-.56,1.09-1.1,2.13-1.6,3.14-1,2-1.8,3.86-2.39,5.44a32.81,32.81,0,0,0-1.16,3.84c-.22.92-.3,1.44-.33,1.44a1.87,1.87,0,0,1,0-.39c0-.24.08-.61.18-1.08a28.88,28.88,0,0,1,1.08-3.88,51.29,51.29,0,0,1,2.34-5.5c.49-1,1-2.06,1.58-3.14a14.33,14.33,0,0,1,2.33-3,40.85,40.85,0,0,1,5.62-4.68c1.84-1.3,3.58-2.35,5.05-3.2s2.7-1.48,3.55-1.9l1-.47A1.77,1.77,0,0,1,378.68,375Z" style="fill:#263238"></path><path d="M354.54,401.06a3.79,3.79,0,0,1-.17-.73l-.38-2a56.91,56.91,0,0,0-1.63-6.46,54.45,54.45,0,0,0-2.46-6.19c-.33-.74-.61-1.36-.84-1.85a3.35,3.35,0,0,1-.27-.69,3.66,3.66,0,0,1,.38.64c.23.42.55,1,.93,1.8a45.25,45.25,0,0,1,2.55,6.2,43.52,43.52,0,0,1,1.55,6.51c.14.85.24,1.54.28,2A3.48,3.48,0,0,1,354.54,401.06Z" style="fill:#263238"></path><path d="M353.91,381.47a23.15,23.15,0,0,0-2.8-9.3,30.66,30.66,0,0,0-20.79-15.51q9.62,14.35,19.25,28.7l2.49,5.12A14.72,14.72,0,0,0,353.91,381.47Z" style="fill:#455a64"></path><rect x="336.76" y="438.03" width="44.77" height="7.94" style="fill:#00BFA5"></rect><polygon points="340.1 444.39 343.92 469.01 373.64 469.01 378.19 444.39 340.1 444.39" style="fill:#00BFA5"></polygon><path d="M381.51,446c0,.09-10.1.16-22.55.16s-22.56-.07-22.56-.16,10.1-.15,22.56-.15S381.51,445.89,381.51,446Z" style="fill:#263238"></path></g><g id="freepik--speech-bubble--inject-137"><path d="M218.64,91.12l6.88,2.57a28.26,28.26,0,1,0-3.26-9.58h0Z" style="fill:#fff"></path><path d="M218.64,91.12s.06-.15.21-.45l.67-1.35c.61-1.22,1.49-3,2.64-5.27l.1-.19.09.2h0l-.2.06a28.11,28.11,0,0,1,3-17.56c.33-.68.79-1.3,1.19-2l.63-1,.73-1a28,28,0,0,1,7.58-6.88,28.4,28.4,0,0,1,10.63-3.9,28.8,28.8,0,0,1,12.22.8,28.41,28.41,0,0,1,18.83,17.82l.56,1.68.41,1.72a31.13,31.13,0,0,1,.55,3.46,28.39,28.39,0,0,1-43.77,26.36,28.08,28.08,0,0,1-9.24-10l.06,0-5.12-2-1.3-.51-.43-.18.48.15,1.34.48,5.1,1.84h0l0,0a28,28,0,0,0,52.1-9.5,27.73,27.73,0,0,0,.21-6.76,28.12,28.12,0,0,0-.54-3.39L277,72.3l-.55-1.65A27.92,27.92,0,0,0,228,62.88c-.24.32-.49.63-.73.94l-.62,1c-.4.66-.86,1.27-1.19,1.94a30.57,30.57,0,0,0-1.75,3.93,28.5,28.5,0,0,0-1.32,13.43l.11.77-.31-.71v0h.19l-2.73,5.15q-.45.87-.72,1.35C218.74,91,218.64,91.12,218.64,91.12Z" style="fill:#263238"></path><path d="M243.38,79.94a2.83,2.83,0,1,1-2.82-2.83A2.82,2.82,0,0,1,243.38,79.94Z" style="fill:#263238"></path><path d="M253.25,79.94a2.83,2.83,0,1,1-2.83-2.83A2.83,2.83,0,0,1,253.25,79.94Z" style="fill:#263238"></path><path d="M263.11,79.94a2.83,2.83,0,1,1-2.82-2.83A2.82,2.82,0,0,1,263.11,79.94Z" style="fill:#263238"></path></g><g id="freepik--Characters--inject-137"><path d="M153,123.38l-.63-52.2c-.58-13,6.49-24.13,19.48-24.35l1.2.05a23.22,23.22,0,0,1,22.25,22.29c.44,11.25.79,23.69.46,29.7-.67,12.45-13.2,13.88-13.2,13.88s-.08,7.57-.07,11.23l2.92,8.55L175.17,130Z" style="fill:#ae7461"></path><path d="M182.57,112.75a30.16,30.16,0,0,1-16-5.47s3.51,9.53,16,8.92Z" style="fill:#6f4439"></path><path d="M191.43,80.75a1.78,1.78,0,0,1-1.78,1.73,1.7,1.7,0,0,1-1.77-1.68,1.78,1.78,0,0,1,1.79-1.73A1.7,1.7,0,0,1,191.43,80.75Z" style="fill:#263238"></path><path d="M192.44,74.56c-.23.22-1.54-.83-3.46-.9s-3.35.82-3.55.58.14-.52.77-.94a4.87,4.87,0,0,1,2.86-.75,4.64,4.64,0,0,1,2.74,1C192.37,74,192.55,74.46,192.44,74.56Z" style="fill:#263238"></path><path d="M174.12,80.75a1.78,1.78,0,0,1-1.79,1.73,1.7,1.7,0,0,1-1.76-1.68,1.77,1.77,0,0,1,1.78-1.73A1.7,1.7,0,0,1,174.12,80.75Z" style="fill:#263238"></path><path d="M173.65,74.23c-.23.22-1.53-.83-3.45-.9s-3.35.82-3.55.58.14-.52.77-.94a4.85,4.85,0,0,1,2.86-.75,4.64,4.64,0,0,1,2.74,1C173.58,73.7,173.77,74.13,173.65,74.23Z" style="fill:#263238"></path><path d="M179.91,89.22a12.47,12.47,0,0,1,3.14-.43c.49,0,.95-.11,1-.44a2.44,2.44,0,0,0-.27-1.46l-1.29-3.78c-1.79-5.39-3.06-9.8-2.84-9.87s1.84,4.23,3.63,9.61l1.23,3.81a2.82,2.82,0,0,1,.17,1.92,1.24,1.24,0,0,1-.83.69,3.76,3.76,0,0,1-.84.08A12.57,12.57,0,0,1,179.91,89.22Z" style="fill:#263238"></path><path d="M174.52,68.27c-.28.48-2.12-.12-4.37-.26s-4.16.13-4.37-.38c-.09-.24.31-.67,1.12-1a7.43,7.43,0,0,1,3.39-.53,7.34,7.34,0,0,1,3.27,1C174.31,67.56,174.65,68,174.52,68.27Z" style="fill:#263238"></path><path d="M192.76,68.94c-.41.42-2-.07-3.84-.14s-3.47.2-3.82-.27c-.15-.22.11-.65.81-1a6,6,0,0,1,3.14-.63,5.9,5.9,0,0,1,3,1C192.73,68.27,192.94,68.73,192.76,68.94Z" style="fill:#263238"></path><path d="M153,80.45c-.2-.1-8.45-2.89-8.53,5.64s8.5,6.85,8.52,6.6S153,80.45,153,80.45Z" style="fill:#ae7461"></path><path d="M150.42,89.44s-.15.1-.4.22a1.49,1.49,0,0,1-1.11,0c-.9-.34-1.64-1.78-1.67-3.32a4.84,4.84,0,0,1,.43-2.12,1.75,1.75,0,0,1,1.13-1.13.78.78,0,0,1,.88.42c.11.24,0,.41.1.42s.18-.14.12-.49a1,1,0,0,0-.34-.54,1.06,1.06,0,0,0-.81-.22,2.06,2.06,0,0,0-1.57,1.3,5.17,5.17,0,0,0-.54,2.37c0,1.72.91,3.34,2.14,3.71a1.59,1.59,0,0,0,1.36-.22C150.4,89.65,150.45,89.46,150.42,89.44Z" style="fill:#6f4439"></path><path d="M173.9,90.41c.29,0,.31,1.94,2,3.32s3.76,1.16,3.78,1.43-.46.38-1.34.41a4.92,4.92,0,0,1-3.16-1.08,4.25,4.25,0,0,1-1.54-2.79C173.55,90.88,173.77,90.4,173.9,90.41Z" style="fill:#263238"></path><path d="M212.52,58a2,2,0,0,0-.93-1.19,6.21,6.21,0,0,0-3.19-.55,18.09,18.09,0,0,1-7.78-2.05,9,9,0,0,0,2.32-1.59,5.35,5.35,0,0,0,1.6-5.3,1.21,1.21,0,0,0-.66-.82c-.56-.18-1,.36-1.44.79A4.59,4.59,0,0,1,198.08,49a7.65,7.65,0,0,1-3.23-1l-.1-.12c-.44-.46-.87-.91-1.29-1.33h0c-3.17-3.21-5.91-5.45-8.73-6.63-4.15-1.72-11.1-2.48-15.46-1.39s-8.29,4.57-8.94,9c-2.41-2.09-6.07-2.11-9.05-1l-.07,0c-3.31,1.14-5.23,4.61-6.24,8-.06.18-.11.37-.16.55a13,13,0,0,1-4.49,4.29c-.32.18-.69.41-.73.77s.26.67.55.89a6.7,6.7,0,0,0,2.66,1.14,14.89,14.89,0,0,1-1.12,2.31c-.38.62-.83,1.37-.51,2a1.4,1.4,0,0,0,1.45.66,4.25,4.25,0,0,0,1.54-.68c-.38.87-.75,1.75-1.13,2.63a7.79,7.79,0,0,0,3.59-.2c.67,3.16,1.13,9,1.92,11.14,2.26.06,2.81-.18,4,.22,1.47.5.88,3.11,2.81,2.39,1-.37,2.52-4.06,2.86-5.05A48.6,48.6,0,0,0,160.5,57a15.74,15.74,0,0,1,4.88-3.43l-.15.13c3.5-1.17,7.45-2.31,10.74-.64,2.56,1.3,4,4,5.93,6.12A17.83,17.83,0,0,0,195,65.78c.44,3.77.52,9.93.66,13.45l3.08-7v0a13.36,13.36,0,0,0,.65-1.24l.07-.12v0c.32-.66.62-1.33,1-2l0,0a2.19,2.19,0,0,0,3.24-2.9,5,5,0,0,0-1-1.07,3.47,3.47,0,0,0,3.29.89,2.72,2.72,0,0,0,2-2.67,2.3,2.3,0,0,0-1.36-1.87,7.94,7.94,0,0,0,4.46-.93C211.94,59.87,212.81,59.06,212.52,58Z" style="fill:#263238"></path><path d="M164.24,49A9.59,9.59,0,0,0,163,50.17a9,9,0,0,0-2,4.12,15.37,15.37,0,0,0-.35,3.17c0,1.15.06,2.38.13,3.67a32.68,32.68,0,0,1,.05,4.1,14.66,14.66,0,0,1-.31,2.15,4.51,4.51,0,0,1-.9,2.09,1.91,1.91,0,0,1-1.77.57,2.91,2.91,0,0,1-1.58-.91,6.53,6.53,0,0,1-1.16-3.19l.26,0a10.35,10.35,0,0,1-1.55,2.6,3.73,3.73,0,0,1-2.44,1.3,2.51,2.51,0,0,1-1.28-.24,2.08,2.08,0,0,1-.87-.87,2.22,2.22,0,0,1-.25-1.11,1.53,1.53,0,0,1,.41-1l.13.12a8.15,8.15,0,0,1-2.7,2,6.8,6.8,0,0,1-.84.31.92.92,0,0,1-.3.07l.29-.11c.18-.08.46-.19.81-.36a8.35,8.35,0,0,0,2.61-2l.13.12a1.61,1.61,0,0,0-.11,1.86,1.89,1.89,0,0,0,.79.77,2.15,2.15,0,0,0,1.16.2,3.49,3.49,0,0,0,2.27-1.23,10.18,10.18,0,0,0,1.49-2.54l.18-.4.08.43a6.34,6.34,0,0,0,1.11,3,2.53,2.53,0,0,0,1.41.81,1.56,1.56,0,0,0,1.5-.48,4.18,4.18,0,0,0,.84-2,13.92,13.92,0,0,0,.3-2.11,34.2,34.2,0,0,0,0-4.06c-.06-1.3-.13-2.54-.1-3.7a15.76,15.76,0,0,1,.39-3.21,8.84,8.84,0,0,1,2.08-4.15A4.93,4.93,0,0,1,164.24,49Z" style="fill:#455a64"></path><path d="M202.71,61.62l-.11.08-.31.23a5.09,5.09,0,0,1-.53.33,6.85,6.85,0,0,1-.77.39,11.06,11.06,0,0,1-5.35.9,14.15,14.15,0,0,1-7.5-2.87,24.37,24.37,0,0,1-6.38-7.53c-.89-1.52-1.62-3.08-2.41-4.52a16.88,16.88,0,0,0-2.75-3.83A8.51,8.51,0,0,0,173,42.58a6,6,0,0,0-1.89-.24,6.4,6.4,0,0,0-1.74.31,7.24,7.24,0,0,0-2.62,1.54A7,7,0,0,0,165.35,46a9.51,9.51,0,0,0-.67,1.86s0,0,0-.13,0-.23.07-.38a5.89,5.89,0,0,1,.49-1.4,6.92,6.92,0,0,1,1.41-1.88,7.26,7.26,0,0,1,2.67-1.61,6.84,6.84,0,0,1,1.8-.35,6.45,6.45,0,0,1,2,.24,8.73,8.73,0,0,1,3.69,2.26,16.68,16.68,0,0,1,2.8,3.88c.81,1.45,1.54,3,2.42,4.52a24.63,24.63,0,0,0,6.29,7.46,14.09,14.09,0,0,0,7.36,2.87,11.34,11.34,0,0,0,5.29-.79C202.12,62,202.68,61.58,202.71,61.62Z" style="fill:#455a64"></path><path d="M203.9,56.15a2.44,2.44,0,0,1-.45.3,8.57,8.57,0,0,1-1.33.66,12.54,12.54,0,0,1-2.11.67,14.58,14.58,0,0,1-2.68.32,14.3,14.3,0,0,1-2.7-.21,13.38,13.38,0,0,1-2.13-.58,10.13,10.13,0,0,1-1.36-.6,2,2,0,0,1-.47-.29c0-.05.71.31,1.89.69a14.55,14.55,0,0,0,2.11.51,15.81,15.81,0,0,0,2.65.19,15.2,15.2,0,0,0,2.64-.3,14.52,14.52,0,0,0,2.09-.59C203.21,56.49,203.88,56.1,203.9,56.15Z" style="fill:#455a64"></path><path d="M198.58,435.3l-.89,22.76s23.68,8.52,23.94,12.74l-45.8-.08-.13-35.52Z" style="fill:#263238"></path><path d="M183.53,456.12a1.8,1.8,0,0,0-1.3,2.06,1.82,1.82,0,0,0,2.11,1.26,1.72,1.72,0,1,0-1-3.26" style="fill:#e0e0e0"></path><path d="M175.83,470.72l.13-3.58,43.87,1.41s2,.86,1.8,2.25Z" style="fill:#455a64"></path><path d="M198.43,457.84c0,.21-1.12.31-2.22,1s-1.69,1.6-1.9,1.51.13-1.33,1.48-2.14S198.48,457.64,198.43,457.84Z" style="fill:#fff"></path><path d="M203.24,459.76c0,.21-.92.58-1.68,1.49s-1,1.87-1.21,1.86-.36-1.23.61-2.34S203.23,459.56,203.24,459.76Z" style="fill:#fff"></path><path d="M206,465.31c-.2.05-.51-1,.07-2.21s1.62-1.65,1.72-1.47-.56.81-1,1.79S206.18,465.29,206,465.31Z" style="fill:#fff"></path><path d="M198,452.63c-.09.2-1.12-.1-2.38,0s-2.25.46-2.37.28.83-1,2.32-1S198.15,452.46,198,452.63Z" style="fill:#fff"></path><path d="M143.63,436.71l-1.27,27.53,5.5,22.05a2.83,2.83,0,0,1-2.36,3.44h0A3,3,0,0,1,143,489c-4.27-4.12-19.47-19.57-19.53-21-.1-2.34-.81-29.45-.81-29.45Z" style="fill:#263238"></path><path d="M145.5,489.73l-22.19-24,0,1.17a4.33,4.33,0,0,0,1,2.77c1.77,2.1,6.78,7.77,18.59,19.29a3,3,0,0,0,2.64.78Z" style="fill:#455a64"></path><g style="opacity:0.6000000000000001"><path d="M129.37,457a1.66,1.66,0,0,1,.44,2.24,1.68,1.68,0,0,1-2.75-1.94,1.8,1.8,0,0,1,2.44-.2" style="fill:#fff"></path></g><path d="M139.24,477.56a8.86,8.86,0,0,1,2.56-2.09,9.26,9.26,0,0,1,3.3-.54c0-.06-.33-.29-1-.39a4.7,4.7,0,0,0-2.57.38,4.54,4.54,0,0,0-2,1.65C139.23,477.13,139.17,477.54,139.24,477.56Z" style="fill:#fff"></path><path d="M141.2,481.29a24.59,24.59,0,0,1,2.55-1.13,24.63,24.63,0,0,1,2.8-.29c.08-.14-1.28-.75-3-.29S141.05,481.21,141.2,481.29Z" style="fill:#fff"></path><path d="M135.56,472.75c.14.14,1.57-1.22,3.83-2s4.24-.68,4.25-.86-2.06-.58-4.47.29S135.43,472.67,135.56,472.75Z" style="fill:#fff"></path><path d="M135.23,464.36c.07.16,1.66-.44,3.72-.47s3.67.48,3.73.31a5.81,5.81,0,0,0-3.75-.91C136.72,463.32,135.14,464.23,135.23,464.36Z" style="fill:#fff"></path><path d="M135.39,456.27a14.53,14.53,0,0,1,3.86-.59,14.7,14.7,0,0,1,3.76,1c.05-.06-.25-.41-.9-.79a6.6,6.6,0,0,0-5.73-.31C135.69,455.89,135.35,456.2,135.39,456.27Z" style="fill:#fff"></path><path d="M139.23,454.14a2.18,2.18,0,0,0,.06-1,7,7,0,0,0-.79-2.74,3.28,3.28,0,0,0-1.4-1.57,1.21,1.21,0,0,0-1.33.23,1.84,1.84,0,0,0-.48,1.23,4,4,0,0,0,3.54,3.77,4.85,4.85,0,0,0,4.77-2.32,1.56,1.56,0,0,0,.11-1.34,1.17,1.17,0,0,0-1.2-.61,4.11,4.11,0,0,0-1.9.9,8.08,8.08,0,0,0-2,2.1c-.37.57-.5.93-.46.94a13.06,13.06,0,0,1,2.71-2.69,3.93,3.93,0,0,1,1.68-.75.64.64,0,0,1,.66.33,1.09,1.09,0,0,1-.13.87,4.32,4.32,0,0,1-4.16,2,3.52,3.52,0,0,1-3-3.16,1.26,1.26,0,0,1,.3-.87.66.66,0,0,1,.73-.14,2.93,2.93,0,0,1,1.2,1.31A10.46,10.46,0,0,1,139.23,454.14Z" style="fill:#fff"></path><path d="M212.68,245a94.52,94.52,0,0,1,3.47,28.66c-.22,6.12-14.16,176-14.16,176l-28.86,1.19,1.13-159.18-2.34.59s-12.77,68.39-13.58,79.41c-.72,9.91-10.86,82.08-10.86,82.08l-26.27-.7,4.16-93,5.81-91.31,2.53-26.61Z" style="fill:#263238"></path><path d="M169,275.6a5.33,5.33,0,0,0,1.23.61,14.34,14.34,0,0,0,3.63,1.06,7.79,7.79,0,0,0,2.66-.09,5.52,5.52,0,0,0,2.72-1.4,6.3,6.3,0,0,0,1.56-2.91c.29-1.1.44-2.23.63-3.38.72-4.63,1.16-8.84,1.39-11.89.11-1.53.18-2.76.21-3.62a5.77,5.77,0,0,0,0-1.33,6,6,0,0,0-.21,1.31c-.11,1-.25,2.18-.41,3.6-.33,3-.84,7.23-1.56,11.84-.36,2.28-.58,4.59-2,6a6.17,6.17,0,0,1-4.93,1.45,16.36,16.36,0,0,1-3.59-.85A7.18,7.18,0,0,0,169,275.6Z" style="fill:#455a64"></path><path d="M176.74,253.71s-.2-.14-.6-.15a2.66,2.66,0,0,0-1.6.57,2.74,2.74,0,0,0-1.12,2.2,2.63,2.63,0,0,0,2,2.31,2.57,2.57,0,0,0,3.44-3.16,2.54,2.54,0,0,0-.94-1.37c-.33-.23-.56-.25-.57-.22a3.12,3.12,0,0,1,1.09,1.68,2.4,2.4,0,0,1-.47,2,2.23,2.23,0,0,1-2.36.53A2.1,2.1,0,0,1,174,256.3a2.4,2.4,0,0,1,.83-1.86A3.27,3.27,0,0,1,176.74,253.71Z" style="fill:#455a64"></path><path d="M131.51,267a3.19,3.19,0,0,0,1,.11,19.22,19.22,0,0,0,2.71-.08,27,27,0,0,0,8.6-2.3,26.26,26.26,0,0,0,7.31-4.94,18.8,18.8,0,0,0,1.79-2,3.34,3.34,0,0,0,.54-.8c-.09-.07-1,1-2.63,2.46a29.47,29.47,0,0,1-7.27,4.72,30.75,30.75,0,0,1-8.39,2.42C132.92,267,131.51,266.93,131.51,267Z" style="fill:#455a64"></path><path d="M201.18,253.22A12,12,0,0,0,202.8,256a32.83,32.83,0,0,0,5.27,5.78,33.39,33.39,0,0,0,6.55,4.4,12.74,12.74,0,0,0,3,1.24,32.56,32.56,0,0,0-2.84-1.61,41.65,41.65,0,0,1-6.35-4.47,40.71,40.71,0,0,1-5.33-5.59C201.93,254.2,201.26,253.17,201.18,253.22Z" style="fill:#455a64"></path><path d="M145.49,241.68a2.21,2.21,0,0,0,.58.28l1.71.69c1.48.6,3.66,1.38,6.38,2.27s6,1.84,9.67,2.77,7.75,1.74,12.06,2.43,8.46,1.1,12.24,1.38,7.18.35,10.05.33,5.17-.09,6.77-.21l1.83-.13a2.76,2.76,0,0,0,.64-.09,2.42,2.42,0,0,0-.64,0l-1.84,0c-1.6,0-3.91.07-6.76,0s-6.25-.18-10-.45-7.89-.75-12.19-1.42-8.36-1.52-12-2.38-6.95-1.79-9.67-2.64-4.92-1.57-6.43-2.1l-1.74-.59A4.16,4.16,0,0,0,145.49,241.68Z" style="fill:#263238"></path><path d="M201.11,128.44l-20.34-6.69s.12,6.37-9.08,6.57c-10.59.23-19.35-7.85-19.35-7.85s-16,6.32-20.58,10.05l4.28,81,1.38,23.2a17.2,17.2,0,0,0-2.28,7.79c0,4-.14,6.71-.14,6.71,28.23,8.52,54.09,15.69,79.88,7.45,0,0,1.52-13.49,0-17.22s-1.21-4.07-1.21-4.07l-2.46-42.85-2.29-32.65Z" style="fill:#00BFA5"></path><path d="M186.05,123.79c-.34-2.36-3.19-7.56-3.19-7.56l-6.67,8.5h0l-23.85-12.62-4,8.36L166,132.64l8.89-1.39,6.9-1.26Z" style="fill:#00BFA5"></path><path d="M148.66,120.47a2.26,2.26,0,0,0,.43.41c.29.25.72.62,1.29,1.07,1.14.92,2.82,2.21,5,3.73a124.29,124.29,0,0,0,17.8,10.48l.22.11.13-.21c.28-.41.57-.87.84-1.34a25,25,0,0,0,2.86-7.37l-.54,0a14.4,14.4,0,0,0,1.89,4.81A44.22,44.22,0,0,0,181,136l.26.37.15-.42c1.31-3.69,2.39-6.76,3.18-9l.85-2.51a5.55,5.55,0,0,0,.26-.89,4.34,4.34,0,0,0-.39.85l-1,2.46L181,135.83l.4-.06a45,45,0,0,1-2.4-3.89,14.05,14.05,0,0,1-1.79-4.61l-.21-1.56-.33,1.52a24.83,24.83,0,0,1-2.82,7.21c-.26.46-.54.9-.81,1.31l.35-.1a137.42,137.42,0,0,1-17.82-10.29c-2.16-1.47-3.87-2.71-5.05-3.58l-1.36-1A3.08,3.08,0,0,0,148.66,120.47Z" style="fill:#263238"></path><path d="M201.28,124.83l8.14,48.4,12.14,8.83s-5.82,5.85-.26,10.53,15.68,10,15.68,10,12.18-13.85,12.18-21.06-6.18-14.11-12.18-19a32.64,32.64,0,0,1-5-5s-13.59-22.8-19.48-27.57S201.28,124.83,201.28,124.83Z" style="fill:#e0e0e0"></path><path d="M124.36,325.9l59.38,2.68-1.17-139.95s-9.77-24.58-16.68-38.73-16.15-32.7-16.15-32.7L145.49,123l-15,5.27-.43,48.79L136.78,224l-5.27,27.86Z" style="fill:#e0e0e0"></path><polygon points="206.01 125.72 189.44 122.58 184.89 118.44 182.21 187.74 183.75 328.58 222.38 328.58 214.88 226.39 209.42 159.32 206.01 125.72" style="fill:#e0e0e0"></polygon><path d="M180.67,184.07a4.67,4.67,0,0,1-.58-.59l-1.58-1.75-5.75-6.51-8.48-9.69-5-5.73-2.63-3a11.48,11.48,0,0,1-2.41-3.45,6.76,6.76,0,0,1-.06-3.25,19.09,19.09,0,0,1,.91-3,34.26,34.26,0,0,1,2.65-5.28l.18.38-5.93-.44a21.89,21.89,0,0,1-2.81-.25,5.38,5.38,0,0,1-2.5-1.09,3.91,3.91,0,0,1-1.26-2.26,9.19,9.19,0,0,1-.1-2.38c.11-1.51.18-2.89.23-4.15.07-2.47.13-4.46.18-5.89,0-.65,0-1.17,0-1.57a2.39,2.39,0,0,1,.05-.55,3,3,0,0,1,0,.55c0,.4,0,.92,0,1.57,0,1.38,0,3.38,0,5.9,0,1.26-.07,2.66-.17,4.16a8.8,8.8,0,0,0,.12,2.28,3.59,3.59,0,0,0,1.14,2,5,5,0,0,0,2.31,1,24.08,24.08,0,0,0,2.75.23l6,.4.4,0-.21.35a34.65,34.65,0,0,0-2.59,5.21,17.57,17.57,0,0,0-.88,2.89,6.25,6.25,0,0,0,0,3,11.12,11.12,0,0,0,2.31,3.28l2.63,3,5,5.76L173,175l5.62,6.61,1.51,1.82A4.71,4.71,0,0,1,180.67,184.07Z" style="fill:#263238"></path><path d="M182.57,184.07a3.74,3.74,0,0,1,.14-.75c.12-.48.32-1.18.6-2.08.55-1.79,1.4-4.37,2.46-7.55s2.31-7,3.63-11.2c.66-2.12,1.34-4.34,2-6.66s1.29-4.73,1.76-7.23a10.06,10.06,0,0,0,.28-3.45,5.74,5.74,0,0,0-1.81-2.72,25.26,25.26,0,0,0-5.39-3.63l-.35-.18.31-.23,4-2.89c1.28-.86,2.59-1.74,3-3s-.34-2.56-1-3.54-1.35-2-1.91-2.83c-1.12-1.75-2-3.15-2.56-4.11l-.65-1.11a1.94,1.94,0,0,1-.2-.4,1.67,1.67,0,0,1,.27.36l.72,1.07,2.67,4c.58.86,1.22,1.8,2,2.8a7.87,7.87,0,0,1,1,1.71,3.25,3.25,0,0,1,.14,2.14c-.47,1.51-1.87,2.43-3.14,3.31l-4,2.9,0-.41a24.87,24.87,0,0,1,5.52,3.69,6,6,0,0,1,2,3,10.09,10.09,0,0,1-.27,3.64c-.47,2.53-1.11,4.95-1.77,7.28s-1.35,4.55-2,6.66c-1.35,4.23-2.65,8-3.74,11.18l-2.62,7.5-.69,2A5.84,5.84,0,0,1,182.57,184.07Z" style="fill:#263238"></path><path d="M209.42,153a6.92,6.92,0,0,1,.17,1.35c.07,1,.17,2.21.28,3.69.21,3.23.49,7.48.8,12.19s.58,9,.79,12.18c.09,1.48.17,2.72.23,3.69a6.17,6.17,0,0,1,0,1.36,7.39,7.39,0,0,1-.22-1.34c-.11-.87-.25-2.13-.4-3.68-.29-3.11-.64-7.42-.94-12.18s-.53-9.07-.65-12.2c-.06-1.56-.1-2.82-.11-3.7A6.89,6.89,0,0,1,209.42,153Z" style="fill:#263238"></path><path d="M207.2,129.44a51.38,51.38,0,0,1,.77,7.36,50.8,50.8,0,0,1,.24,7.39,54.18,54.18,0,0,1-.76-7.36A53.58,53.58,0,0,1,207.2,129.44Z" style="fill:#263238"></path><path d="M230.23,167.49a69.86,69.86,0,0,1-4.24,7.66,69.54,69.54,0,0,1-4.69,7.39,75.66,75.66,0,0,1,4.25-7.66A75.39,75.39,0,0,1,230.23,167.49Z" style="fill:#263238"></path><path d="M239.93,172.33c0,.09-.94-.07-2.44-.09a18.62,18.62,0,0,0-5.75.86,18.31,18.31,0,0,0-5.2,2.62c-1.22.87-1.88,1.54-1.95,1.48a7.23,7.23,0,0,1,1.72-1.78,16.29,16.29,0,0,1,11.19-3.55A7.25,7.25,0,0,1,239.93,172.33Z" style="fill:#263238"></path><path d="M182.58,325.23a1.65,1.65,0,0,1,0-.36l-.05-1c0-.95-.06-2.3-.12-4-.07-3.52-.17-8.56-.3-14.76-.22-12.47-.42-29.69-.5-48.7s0-36.25.09-48.72c.07-6.2.14-11.24.18-14.76,0-1.71.07-3.06.09-4l0-1a1.65,1.65,0,0,1,0-.36,1.41,1.41,0,0,1,0,.36c0,.26,0,.61,0,1,0,.95,0,2.3,0,4,0,3.51,0,8.55,0,14.76,0,12.49,0,29.69.06,48.7s.26,36.21.35,48.7c.05,6.21.1,11.25.14,14.76,0,1.72,0,3.07,0,4v1A1.41,1.41,0,0,1,182.58,325.23Z" style="fill:#263238"></path><path d="M118.34,281.18c4.48-7.25,30.32-49.47,49-79.92A29.79,29.79,0,0,1,187.82,186c14.88-3,73.92,49.94,73.92,49.94L224.2,265.71l-32.41-36.86h-2s-3.63,13-11.36,21.56c-9.12,10.08-40.91,38.19-40.91,38.19Z" style="fill:#ffbf9d"></path><path d="M79.88,304s-2.63-3.86,4.57-5.76,13.24-3.46,17.32-5.89a162.27,162.27,0,0,0,15.57-10.76c3.21-2.61,6.13-5.06,6.13-5.06s15.93,8.59,15.68,8.82a8,8,0,0,0-1.78,4.92c.15,2.34,3.89,11.34.74,16.17-.84,1.29-44.77.17-51.2-.39S79.88,304,79.88,304Z" style="fill:#ffbf9d"></path><path d="M257.62,232.35s-23.56,6.87-35.17,33.36l-7.13-10.38s9.47-23.51,33.8-30.62Z" style="fill:#263238"></path><path d="M236.77,214.93s-22.24,7.4-31.89,29.41l-6.46-8s10.89-22,31.12-28Z" style="fill:#263238"></path><path d="M158.89,212.79s5.2,18.43,28.69,23.51l-4.7,8.64s-19.17-5.17-29-23.81Z" style="fill:#263238"></path><path d="M139.78,245.66s9.28,14.11,25.65,17.68l-8,7.49s-16.75-4.27-23-16.52Z" style="fill:#263238"></path><path d="M153.61,261.21l37.32-48.76s-8.19-7-8.65-6.64-38.54,51.78-38.54,51.78Z" style="fill:#263238"></path><polygon points="237.64 234.19 196.05 199.09 189.44 209.06 233.31 244.28 237.64 234.19" style="fill:#263238"></polygon><path d="M239.31,228.8a24.8,24.8,0,0,1-2.55,1.81c-1.58,1.09-3.74,2.65-6,4.53a62.48,62.48,0,0,0-5.45,5.16c-1.32,1.4-2.08,2.32-2.14,2.27s.13-.27.44-.71.79-1.07,1.42-1.81a46.21,46.21,0,0,1,5.39-5.3,53.24,53.24,0,0,1,6.12-4.45A14.57,14.57,0,0,1,239.31,228.8Z" style="fill:#455a64"></path><path d="M227.21,219.81a21.87,21.87,0,0,1-2.38,1.39,41,41,0,0,0-5.42,3.74,42.18,42.18,0,0,0-4.73,4.59,22.16,22.16,0,0,1-1.82,2.07,10.92,10.92,0,0,1,1.54-2.3,31.54,31.54,0,0,1,10.26-8.43A11.08,11.08,0,0,1,227.21,219.81Z" style="fill:#455a64"></path><path d="M220.28,212.56c0,.07-.88.62-2.28,1.62s-3.3,2.43-5.28,4.15a59.32,59.32,0,0,0-4.84,4.65c-1.16,1.26-1.8,2.11-1.87,2.07a9.77,9.77,0,0,1,1.6-2.31,40.08,40.08,0,0,1,4.77-4.8,48.12,48.12,0,0,1,5.41-4.07A10.14,10.14,0,0,1,220.28,212.56Z" style="fill:#455a64"></path><path d="M239.31,242.57c-.12.12-1.89-1.78-4.08-4.07s-4.4-3.64-4.32-3.77a13.31,13.31,0,0,1,4.68,3.41c1.13,1.14,2.06,2.25,2.72,3.06A6.09,6.09,0,0,1,239.31,242.57Z" style="fill:#455a64"></path><circle cx="189.9" cy="206.65" r="10.33" transform="translate(-90.5 194.81) rotate(-45)" style="fill:#263238"></circle><path d="M200.23,206.65a22.94,22.94,0,0,0-.42-2.5,10.37,10.37,0,0,0-3.77-5.56,10.11,10.11,0,0,0-9.58-1.41,10,10,0,0,0-4.67,3.52,10,10,0,0,0,0,11.9,9.45,9.45,0,0,0,2.13,2.15,9.83,9.83,0,0,0,2.54,1.38,10.17,10.17,0,0,0,5.31.45,10,10,0,0,0,4.27-1.87,10.37,10.37,0,0,0,3.77-5.56,22.51,22.51,0,0,0,.42-2.5,7.94,7.94,0,0,1-.23,2.55,10.29,10.29,0,0,1-3.74,5.81,10.46,10.46,0,0,1-10,1.57,9.78,9.78,0,0,1-2.68-1.43,10.13,10.13,0,0,1-2.24-2.24,10.5,10.5,0,0,1,0-12.52,10.13,10.13,0,0,1,2.24-2.24,10,10,0,0,1,2.68-1.42,10.42,10.42,0,0,1,10,1.56A10.29,10.29,0,0,1,200,204.1,7.94,7.94,0,0,1,200.23,206.65Z" style="fill:#455a64"></path><path d="M177.94,223.71,176,226.46a1.94,1.94,0,0,1-2.7.48h0a1.94,1.94,0,0,1-.48-2.71l1.91-2.74a1.94,1.94,0,0,1,2.71-.48h0A1.94,1.94,0,0,1,177.94,223.71Z" style="fill:#455a64"></path><path d="M165.42,240.28,163.5,243a1.94,1.94,0,0,1-2.7.49h0a1.94,1.94,0,0,1-.48-2.71l1.91-2.75a2,2,0,0,1,2.71-.48h0A2,2,0,0,1,165.42,240.28Z" style="fill:#455a64"></path><path d="M157.86,251.11l-1.92,2.75a1.94,1.94,0,0,1-2.7.48h0a2,2,0,0,1-.49-2.71l1.92-2.74a1.94,1.94,0,0,1,2.71-.48h0A1.94,1.94,0,0,1,157.86,251.11Z" style="fill:#455a64"></path><path d="M178.44,233.33a10.31,10.31,0,0,1-2.67-1,27.14,27.14,0,0,1-5.78-3.66,32.07,32.07,0,0,1-4.79-4.88,10.48,10.48,0,0,1-1.58-2.34c.06,0,.72.81,1.87,2.11a41.39,41.39,0,0,0,4.83,4.71,34.61,34.61,0,0,0,5.61,3.73C177.46,232.85,178.47,233.25,178.44,233.33Z" style="fill:#455a64"></path><path d="M173.34,240.76a10.77,10.77,0,0,1-2.49-1.22,38.22,38.22,0,0,1-5.43-3.89,36.66,36.66,0,0,1-4.69-4.76,10.45,10.45,0,0,1-1.56-2.29c.06,0,.71.79,1.84,2.05a51,51,0,0,0,4.75,4.61,54,54,0,0,0,5.29,4A23.61,23.61,0,0,1,173.34,240.76Z" style="fill:#455a64"></path><path d="M158.34,260.86a10.1,10.1,0,0,1-2.63-.92,31.5,31.5,0,0,1-5.78-3.42,37,37,0,0,1-5-4.48,11.68,11.68,0,0,1-1.75-2.16,19.32,19.32,0,0,1,2,1.9,53.76,53.76,0,0,0,5.05,4.32,40.37,40.37,0,0,0,5.63,3.51A26.75,26.75,0,0,1,158.34,260.86Z" style="fill:#455a64"></path><path d="M194,206.65a4.1,4.1,0,1,1-4.1-4.1A4.11,4.11,0,0,1,194,206.65Z" style="fill:#455a64"></path><path d="M219.46,224.71a36.44,36.44,0,0,1-4-2.84,36.26,36.26,0,0,1-3.89-2.93,16.54,16.54,0,0,1,4.2,2.51A16.94,16.94,0,0,1,219.46,224.71Z" style="fill:#455a64"></path><path d="M171.43,229.53a33.53,33.53,0,0,1-5.54,6.19,17,17,0,0,1,2.58-3.27A17.39,17.39,0,0,1,171.43,229.53Z" style="fill:#455a64"></path><path d="M150.76,257.31a16.09,16.09,0,0,1-2.61,4.31,15.85,15.85,0,0,1-3.52,3.61c-.11-.11,1.42-1.75,3.1-3.93S150.62,257.23,150.76,257.31Z" style="fill:#455a64"></path><path d="M455.9,228.74a18.13,18.13,0,0,1,6.79,2.5,8.46,8.46,0,0,1,3.84,5.92,5.57,5.57,0,0,1-3.46,5.79l-.17,1.86c-2.77-2.87-6.93-3.9-10.89-4.4s-7.39.34-11.05-1.26c2-2.42,4-5.25,6.94-6.18a8.74,8.74,0,0,0-6.13.64,8.75,8.75,0,0,1,6.07-5A18.43,18.43,0,0,1,455.9,228.74Z" style="fill:#263238"></path><path d="M465.34,240c8.44-.4,12.23,9.56,13.78,16.16s-.18,13.65-3.57,19.44S467.22,286,462,290.19c-.62-1.53-1.25-3.05-1.88-4.58a3.16,3.16,0,0,1-1.26,3.68,8.38,8.38,0,0,1-3.94,1.2,62.23,62.23,0,0,1-9.93.58c-8.69-.29-17.08-3.27-25.3-6.22,5.93-2.89,12.7-3.42,19.3-3.69,2.34-.1,4.83-.21,6.73-1.59a9.21,9.21,0,0,0,3.16-5.4c.51-2.08.67-4.24,1.2-6.32a17.71,17.71,0,0,1,8.41-11Z" style="fill:#263238"></path><path d="M452.44,280.76l-48.38,9.83c-8.23,1.67-20.66,2.45-22.71-10.68h0c-.92-11.53,9.2-16.56,16.88-18.11,3.64-.74,6.68-1.36,7-1.46,0,0-1.34-12.55,10.67-15.92,5.8-1.62,18-4,29.11-6a23.24,23.24,0,0,1,26.61,16.87l.31,1.16C474.59,269.16,465.24,278.5,452.44,280.76Z" style="fill:#ffbf9d"></path><path d="M405.28,260.34a30.07,30.07,0,0,0,8.83,14.45s-9.83-1.47-11.95-13.79Z" style="fill:#ff9a6c"></path><path d="M444,260.22c-.2.29,1.2,1.49,1.65,3.52s-.27,3.75,0,3.92c.14.08.54-.26.89-1a5.21,5.21,0,0,0,.28-3.21,5.05,5.05,0,0,0-1.63-2.73C444.62,260.19,444.12,260.08,444,260.22Z" style="fill:#263238"></path><path d="M438.39,260.71a1.69,1.69,0,0,0-1.23,2,1.62,1.62,0,0,0,1.92,1.28,1.68,1.68,0,0,0,1.22-2A1.61,1.61,0,0,0,438.39,260.71Z" style="fill:#263238"></path><path d="M428.83,257.81a12.55,12.55,0,0,0-.26-3.16c-.08-.48-.1-1,.2-1.12a2.51,2.51,0,0,1,1.48-.06l4,.44c5.64.57,10.23.85,10.25.62s-4.53-.87-10.18-1.45l-4-.37a2.87,2.87,0,0,0-1.92.25,1.22,1.22,0,0,0-.48,1,3,3,0,0,0,.1.84A12.39,12.39,0,0,0,428.83,257.81Z" style="fill:#263238"></path><path d="M451.89,259.63c-.42.28.24,1.86.51,3.84s.14,3.67.62,3.81c.23.06.59-.32.87-1.06a6.24,6.24,0,0,0,.26-3,6.3,6.3,0,0,0-1.13-2.81C452.54,259.76,452.09,259.5,451.89,259.63Z" style="fill:#263238"></path><path d="M444.4,240.92c-.33.29.39,1.81.82,3.73s.48,3.58.91,3.71c.2,0,.47-.33.63-1.06a6.75,6.75,0,0,0-.07-3,7.13,7.13,0,0,0-1.24-2.71C445,241,444.56,240.8,444.4,240.92Z" style="fill:#263238"></path><path d="M443.26,282.16c.14.18,4.66,7.62-3.65,9.56s-8.54-6.8-8.31-6.87S443.26,282.16,443.26,282.16Z" style="fill:#ffbf9d"></path><path d="M435,286.65s-.06.17-.12.44a1.53,1.53,0,0,0,.23,1.09c.53.8,2.09,1.21,3.6.9a5,5,0,0,0,2-.88,1.7,1.7,0,0,0,.85-1.35.74.74,0,0,0-.59-.76c-.26-.06-.41,0-.44,0s.1-.21.46-.22a.92.92,0,0,1,.6.2,1.12,1.12,0,0,1,.39.75,2.1,2.1,0,0,1-.93,1.82,5.17,5.17,0,0,1-2.2,1c-1.69.33-3.45-.16-4.08-1.28a1.57,1.57,0,0,1-.09-1.37C434.85,286.71,435,286.62,435,286.65Z" style="fill:#ff9a6c"></path><path d="M439.71,241.72c-.2.29,1.21,1.48,1.65,3.52s-.27,3.75,0,3.92c.13.08.54-.26.88-1a5.21,5.21,0,0,0,.28-3.21,5.1,5.1,0,0,0-1.62-2.73C440.31,241.69,439.8,241.58,439.71,241.72Z" style="fill:#263238"></path><path d="M434.63,244.75a1.69,1.69,0,0,0-1.23,2,1.63,1.63,0,0,0,1.92,1.29,1.68,1.68,0,0,0,1.22-2A1.61,1.61,0,0,0,434.63,244.75Z" style="fill:#263238"></path><path d="M461.05,240.86c4.66-2.69,8.09.81,12.14,4.34a13.37,13.37,0,0,1,3.51,14.71c-1.06,2.61-2.93,4.8-4.37,7.22s-2.46,5.36-1.58,8a10.08,10.08,0,0,1-4.7-10.47,25.32,25.32,0,0,0-4.58,13.8,9.16,9.16,0,0,1-1.35-11.64,25.56,25.56,0,0,0-8.81,8.7c-.37.6-.85,1.3-1.56,1.28s-1.15-.8-1.37-1.49a11.81,11.81,0,0,1,2.73-11.65c3.16-3.22,6.75-5.74,10.07-8.8,1.58-1.45,4-5.38,3.38-7.86-.49-2.06-2.23-5.76-4.3-6.22" style="fill:#263238"></path><path d="M470.48,258.25a2.52,2.52,0,0,1,1.43,1.51c2,4.32.48,9.64-2.61,13.26s-7.48,5.86-11.87,7.7c-3.57,1.5-7.35,2.83-11.21,2.56l-3.53-1.41c-1-.44-2.22-.13-3.35-.11s-2.49-.49-2.63-1.61a2.27,2.27,0,0,1,1.25-2c2.13-1.34,5-1.08,7.08-2.49,1.39-.95,2.21-2.51,3.27-3.82,1.87-2.32,4.5-3.88,7.07-5.39l13-7.61A2.82,2.82,0,0,1,470.48,258.25Z" style="fill:#263238"></path><path d="M461.05,240.86c4.66-2.69,8.09.81,12.14,4.34a13.37,13.37,0,0,1,3.51,14.71c-1.06,2.61-2.93,4.8-4.37,7.22s-2.46,5.36-1.58,8a10.08,10.08,0,0,1-4.7-10.47,25.32,25.32,0,0,0-4.58,13.8,9.16,9.16,0,0,1-1.35-11.64,25.56,25.56,0,0,0-8.81,8.7c-.37.6-.85,1.3-1.56,1.28s-1.15-.8-1.37-1.49a11.81,11.81,0,0,1,2.73-11.65c3.16-3.22,6.75-5.74,10.07-8.8,1.58-1.45,4-5.38,3.38-7.86-.49-2.06-2.23-5.76-4.3-6.22" style="fill:#263238"></path><path d="M469.22,266.48s0-.44.12-1.21a10.36,10.36,0,0,1,1-3.11c.58-1.27,1.5-2.65,2.4-4.3a14.35,14.35,0,0,0,1.15-2.73,8.32,8.32,0,0,0,.27-3.2,10.54,10.54,0,0,0-2.57-5.55,15.66,15.66,0,0,0-3.88-3.12,22.92,22.92,0,0,0-3-1.46,5,5,0,0,0-1.16-.4c-.05.1,1.59.73,4,2.18a16.23,16.23,0,0,1,3.71,3.12,10.18,10.18,0,0,1,2.4,5.29,9.5,9.5,0,0,1-1.32,5.64c-.85,1.63-1.75,3.06-2.31,4.37a9.75,9.75,0,0,0-.86,3.25A3.07,3.07,0,0,0,469.22,266.48Z" style="fill:#455a64"></path><path d="M460.5,262.22c.07,0,.83-1.08,2.36-2.67.75-.8,1.69-1.74,2.62-2.88a11.59,11.59,0,0,0,2.33-4.23,9.66,9.66,0,0,0,.06-4.83,9.2,9.2,0,0,0-1.76-3.53,8.88,8.88,0,0,0-1.95-1.8,2.48,2.48,0,0,0-.86-.44,14.74,14.74,0,0,1,2.51,2.47,9.25,9.25,0,0,1,1.48,8,11.49,11.49,0,0,1-2.19,4.06c-.89,1.14-1.8,2.1-2.52,2.94a24,24,0,0,0-1.62,2.07A2.77,2.77,0,0,0,460.5,262.22Z" style="fill:#455a64"></path><path d="M453.85,234a14.41,14.41,0,0,0,2,.37,12.06,12.06,0,0,1,4.38,1.73,8,8,0,0,1,2.94,3.58c.45,1.12.46,1.9.55,1.9a3.55,3.55,0,0,0-.19-2,7.58,7.58,0,0,0-3-3.89,10.53,10.53,0,0,0-4.62-1.66A5.46,5.46,0,0,0,453.85,234Z" style="fill:#455a64"></path><path d="M448.69,271.59a2.57,2.57,0,0,0,0,.37,8.42,8.42,0,0,0,.16,1.07,10.43,10.43,0,0,0,1.62,3.78,5.28,5.28,0,0,0,2.18,2,1.66,1.66,0,0,0,1.73-.21,2.52,2.52,0,0,0,.75-1.73c.07-.63,0-1.28.08-1.93a10.54,10.54,0,0,1,.29-2,11.65,11.65,0,0,1,1.75-3.93l-.4-.18a6.92,6.92,0,0,0,3.18,7.43l.3.17.07-.34a15.4,15.4,0,0,1,3.16-6.74l-.46-.19a9.46,9.46,0,0,0,4,8.63l.32.22.37.25,0-.45a8.82,8.82,0,0,1,1.65-4.17,29.87,29.87,0,0,1,2.9-3.43,23.18,23.18,0,0,0,2.78-3.43A18.94,18.94,0,0,0,477,263a18.28,18.28,0,0,0-.75-14.25,18.48,18.48,0,0,0-6.45-7.28,12.77,12.77,0,0,0-3.2-1.61,26.67,26.67,0,0,1,3.08,1.78,18.71,18.71,0,0,1,6.23,7.27,17.45,17.45,0,0,1,1.69,6.41,18.36,18.36,0,0,1-1.07,7.52,19.2,19.2,0,0,1-4.56,7.05,29.78,29.78,0,0,0-3,3.48,9.28,9.28,0,0,0-1.74,4.42l.4-.2-.3-.21a9,9,0,0,1-3.76-8.14l.09-.88-.56.69a15.94,15.94,0,0,0-3.24,7l.36-.16a6.47,6.47,0,0,1-3-6.89l.3-1.2-.7,1a12.12,12.12,0,0,0-1.78,4.08,13.62,13.62,0,0,0-.28,2c0,.68,0,1.32,0,1.92a2.19,2.19,0,0,1-.61,1.5,1.34,1.34,0,0,1-1.41.19,5.26,5.26,0,0,1-2.08-1.9A10.88,10.88,0,0,1,449,273C448.76,272.09,448.73,271.58,448.69,271.59Z" style="fill:#455a64"></path><path d="M427.61,263c0-.31-2.06-.3-3.54-2.06s-1.28-4-1.57-4c-.13,0-.39.49-.41,1.43a5.12,5.12,0,0,0,1.18,3.33,4.56,4.56,0,0,0,3,1.6C427.11,263.39,427.62,263.15,427.61,263Z" style="fill:#263238"></path><path d="M292.87,259.36l-31.13-24-39.36,31.29s40.65.39,41.38,0S292.87,259.36,292.87,259.36Z" style="fill:#263238"></path><path d="M18.29,270.29c-1.62,1-1.33,3.56-.47,5.24s-.26-.21.73,1.4c1.48,2.41,1.89,5.33,3.2,7.83,4,7.69,14.81,9.18,20,16.1,2.63,3.48,3.66,8.12,6.89,11a10.44,10.44,0,0,0,11.1,1.7c5.91-2.72,8.41-10.6,14.61-12.57,0,0-1.44-16.87-2.37-16.84a91,91,0,0,1-20.18-1.6c-10.65-2.06-21.86-5.61-25-8.41S22.91,267.47,18.29,270.29Z" style="fill:#ffbf9d"></path><path d="M218.26,260.84s-49,.36-59.82,6.1a92.57,92.57,0,0,1-19.75,7.86l-76.23,9.05,2.47,17.53s67.95,6.34,79.91,3.93,23.9-6.63,30.58-6,46.16,1.09,46.16,1.09Z" style="fill:#ffbf9d"></path><path d="M193.67,260s22.7-1,34.13-1.06c27.43-.19,50.13-.7,50.13-.7l6.34,45-93.61,0Z" style="fill:#263238"></path><path d="M193.55,261.67l-.33.06-1,.14-3.82.47-14,1.62c-3,.36-6.22.64-9.64,1.36a43.9,43.9,0,0,0-10.39,3.93,52.91,52.91,0,0,1-5.53,2.51,62.74,62.74,0,0,1-6,1.89c-4.16,1.07-8.53,2-13,2.7s-8.92,1.29-13.18,1.78l-12.29,1.44L83.47,282l-14,1.58-3.82.41-1,.09a1.26,1.26,0,0,1-.34,0l.34-.07,1-.14,3.81-.5,14-1.75,20.8-2.52,12.29-1.48c4.26-.5,8.67-1,13.15-1.79s8.84-1.61,13-2.68a61,61,0,0,0,6-1.86,53.56,53.56,0,0,0,5.49-2.47,44.5,44.5,0,0,1,10.51-3.93c3.46-.7,6.73-1,9.69-1.29l14-1.46,3.82-.38,1-.08Z" style="fill:#ff9a6c"></path><path d="M259.47,257.69a3,3,0,0,1-.62.08l-1.8.14c-1.57.11-3.83.24-6.63.37-5.59.28-13.33.54-21.87.77l-21.88.62-6.63.21-1.81,0a4.4,4.4,0,0,1-.63,0,2.73,2.73,0,0,1,.63-.09l1.8-.13c1.56-.12,3.82-.24,6.62-.38,5.6-.28,13.34-.54,21.88-.77l21.88-.61,6.63-.21,1.8,0A2.36,2.36,0,0,1,259.47,257.69Z" style="fill:#455a64"></path><path d="M400.11,264.67S378,254.48,363.36,253.84c-10.26-.45-73.07,2.82-73.07,2.82s-9.12-1.55-12.86-.1a18.59,18.59,0,0,1-6.08,1.46l4.91,46.09,105.34-1.35,15.56-.72c3.18-.06,11.38-1.46,13.16-4.24h0A22.78,22.78,0,0,0,412,276.13C409.68,271.05,405.74,267.7,400.11,264.67Z" style="fill:#00BFA5"></path><path d="M332.33,303.36c17.76-2.4,48.06-4.54,48.06-4.54s14.6,3.06,18.16,2.23,9.82-3.28,10.42-14a17.83,17.83,0,0,0-3.56-11.36A16.18,16.18,0,0,0,391,269.1a99.29,99.29,0,0,0-18.1,3.56L333,281.78s-38.67-3-62.45,2.69l-.9,4.8V299Z" style="fill:#ffbf9d"></path><path d="M360.18,274.1l15.92,32.15s21.75-4.25,22.32-4.5,10-2.12,11.64-5.41,7.74-11.8,2-20.21-11.78-10.85-21.32-9.34S360.18,274.1,360.18,274.1Z" style="fill:#00BFA5"></path><path d="M270.58,284.47s-10.49-4.82-13.37-4.71a58,58,0,0,0-12.58,2.93c-.73.29-2.73,1.15-2.73,1.15s-5.21-.23-6.61.54-.89,2,.1,2.84c0,0-2.27.95-.63,3.32l.65.5s-.62,1.8,2.33,3.33l1.46,1.09a8.7,8.7,0,0,0,1.79,2.47c1,.81,10.89,3.21,13.59,4s8.86,0,11.63-.8,6-1.8,6-1.8l2.32-14.5Z" style="fill:#ffbf9d"></path><path d="M256.66,281.84a8,8,0,0,1-2.12.66,53.07,53.07,0,0,1-5.28.94c-2.07.26-4,.39-5.33.44a8.62,8.62,0,0,1-2.22-.05c0-.15,3.36-.4,7.49-.91,2.06-.26,3.92-.56,5.26-.78A11.07,11.07,0,0,1,256.66,281.84Z" style="fill:#ff9a6c"></path><path d="M248.48,289.85a32.25,32.25,0,0,1-6.78-.91,31.92,31.92,0,0,1-6.59-1.83c0-.14,3,.57,6.69,1.32S248.5,289.7,248.48,289.85Z" style="fill:#ff9a6c"></path><path d="M249.22,295.34a7.48,7.48,0,0,1-2.18-.23,36.89,36.89,0,0,1-5.12-1.33,37.28,37.28,0,0,1-4.88-2,7.78,7.78,0,0,1-1.88-1.14c.07-.14,3,1.39,6.92,2.69S249.25,295.19,249.22,295.34Z" style="fill:#ff9a6c"></path><path d="M252.84,299a7.08,7.08,0,0,1-2.13,0,29.42,29.42,0,0,1-5.06-1,28.5,28.5,0,0,1-4.8-1.92,6.89,6.89,0,0,1-1.81-1.13c.07-.14,2.93,1.42,6.76,2.55S252.86,298.86,252.84,299Z" style="fill:#ff9a6c"></path><path d="M461.8,287.55H419.25a8.11,8.11,0,0,0-8.1,8.11h0a8.11,8.11,0,0,0,8.1,8.11H461.8a8.11,8.11,0,0,0,8.11-8.11h0A8.11,8.11,0,0,0,461.8,287.55Z" style="fill:#455a64"></path><path d="M264.77,316.44c-.07.13,39.5,23.16,88.37,51.44s88.57,51.1,88.65,51-39.49-23.15-88.38-51.44S264.84,316.32,264.77,316.44Z" style="fill:#263238"></path><path d="M443.57,320.55c-.07-.13-40.66,22.63-90.64,50.82s-90.47,51.16-90.4,51.29,40.65-22.63,90.65-50.83S443.64,320.67,443.57,320.55Z" style="fill:#263238"></path><rect x="439.96" y="318.29" width="9.4" height="150.97" transform="translate(889.32 787.54) rotate(180)" style="fill:#6f4439"></rect><path d="M89.34,316.44c-.08.13,39.49,23.16,88.37,51.44s88.57,51.1,88.64,51S226.86,395.71,178,367.42,89.41,316.32,89.34,316.44Z" style="fill:#263238"></path><path d="M268.14,320.55c-.07-.13-40.66,22.63-90.65,50.82S87,422.53,87.09,422.66s40.65-22.63,90.66-50.83S268.21,320.67,268.14,320.55Z" style="fill:#263238"></path><rect x="260.07" y="307.03" width="9.4" height="162.01" transform="translate(529.54 776.06) rotate(180)" style="fill:#6f4439"></rect><rect x="84.31" y="319.14" width="9.4" height="150.11" transform="translate(178.02 788.4) rotate(180)" style="fill:#6f4439"></rect><path d="M461.62,321.14H81a10.32,10.32,0,0,1-10.32-10.31h0A10.32,10.32,0,0,1,81,300.51H461.62a10.31,10.31,0,0,1,10.31,10.32h0A10.31,10.31,0,0,1,461.62,321.14Z" style="fill:#455a64"></path><path d="M236.46,202.75c-.09,0,.25-1.65.45-4.31a13.54,13.54,0,0,0-.41-4.6,9.35,9.35,0,0,0-3.16-4.55,19.76,19.76,0,0,0-4.83-3,9.69,9.69,0,0,0-4.5-.8,7.5,7.5,0,0,0-3,.87c-.65.37-1,.65-1,.61a2.88,2.88,0,0,1,.88-.78,7,7,0,0,1,3-1.06,9.63,9.63,0,0,1,4.71.71,19.39,19.39,0,0,1,5,3,11.5,11.5,0,0,1,2.07,2.24,8.64,8.64,0,0,1,1.21,2.58,13.34,13.34,0,0,1,.32,4.76,25.86,25.86,0,0,1-.51,3.15A4.27,4.27,0,0,1,236.46,202.75Z" style="fill:#263238"></path><path d="M222,188.25s-9.2.72-11,1-2.94,1.49-4.77,4.19c-1.63,2.39-3.82,5.93-2.27,7.16s2,.36,2,.36-2.69,3.9-.21,5.3c1.89,1.07,3.82-1,3.82-1s-.53,2.64,1.44,3.26,4.64-3,4.64-3,1.36,2.68,3.56,1.87c2.68-1,3.36-2,5.33-2.75s6.62-.68,8.25-5.05a13.1,13.1,0,0,0,.95-3.29l2.51-3.05c.6-.3-4.87-8.76-12.72-7.59Z" style="fill:#ae7461"></path><path d="M215.69,192.28a2.78,2.78,0,0,1-.56.05c-.36,0-.88.08-1.51.16-.32,0-.67.1-1,.17a2.11,2.11,0,0,0-.5.17c-.17.09-.34.2-.51.31a6.44,6.44,0,0,0-1.76,2c-1.12,1.63-2.11,3.11-2.77,4.21a10.89,10.89,0,0,1-1.15,1.76,24.3,24.3,0,0,1,3.49-6.26,12.38,12.38,0,0,1,.86-1.19,5.39,5.39,0,0,1,1.07-.92,5.45,5.45,0,0,1,.57-.32,2.08,2.08,0,0,1,.62-.18,8.84,8.84,0,0,1,1.07-.11C214.88,192.05,215.71,192.17,215.69,192.28Z" style="fill:#6f4439"></path><path d="M220.28,195.87a8.18,8.18,0,0,1-2.05.85c-.65.24-1.41.51-2.24.87a7.33,7.33,0,0,0-1.21.63,6.68,6.68,0,0,0-1,1,51.33,51.33,0,0,0-2.94,4.45,7.08,7.08,0,0,1-1.36,1.78,15.19,15.19,0,0,1,1-2,33.77,33.77,0,0,1,2.85-4.58,6.42,6.42,0,0,1,1.13-1.14,6.71,6.71,0,0,1,1.32-.65c.86-.34,1.64-.59,2.3-.78A10.59,10.59,0,0,1,220.28,195.87Z" style="fill:#6f4439"></path><path d="M222,200.12s-.26.46-.91.93-1.65,1-2.61,1.61a17.13,17.13,0,0,0-2.25,2,2.36,2.36,0,0,0-.56,1s-.1-.11-.1-.35a1.66,1.66,0,0,1,.37-.92,10.71,10.71,0,0,1,2.25-2.19c1-.69,2-1.1,2.7-1.49S222,200.07,222,200.12Z" style="fill:#6f4439"></path><path d="M230.71,193.82c-.13.1-1.43-1.54-3.55-2.94s-4.12-2-4.07-2.14a8.76,8.76,0,0,1,4.36,1.71A8.89,8.89,0,0,1,230.71,193.82Z" style="fill:#6f4439"></path><path d="M129.67,200.94l4-25.92-3.21-46.76s-17.09,4.07-21.32,31.08c-1,6.57-10.55,49.79-7.34,55.17,5.69,9.55,41.58,24.15,41.58,24.15l13-24Z" style="fill:#e0e0e0"></path><path d="M145.41,225.7a5.2,5.2,0,0,1,.26-.86c.22-.6.5-1.41.86-2.42l3.23-8.78.08.24L131.9,202.65l-2.36-1.49-.15-.09,0-.17L132.9,179c.45-2.72.82-4.93,1.09-6.53.13-.73.24-1.31.32-1.76a2.73,2.73,0,0,1,.15-.61,3.57,3.57,0,0,1-.05.62c-.06.46-.13,1-.23,1.78-.23,1.6-.54,3.82-.93,6.55-.85,5.61-2,13.29-3.32,21.91l-.12-.26,2.37,1.49,17.87,11.33.15.09-.06.15-3.4,8.72c-.39,1-.71,1.79-1,2.38A4.59,4.59,0,0,1,145.41,225.7Z" style="fill:#263238"></path><path d="M135.81,156.78c-.1,0,.26-1.62.28-4.24a25.26,25.26,0,0,0-2.06-9.92,23.11,23.11,0,0,0-5.92-8.21,8.28,8.28,0,0,0-2.65-1.5c-.69-.21-1.11-.22-1.1-.27a2.48,2.48,0,0,1,1.15.08,7.38,7.38,0,0,1,2.83,1.41,21.68,21.68,0,0,1,6.16,8.28,23.71,23.71,0,0,1,2,10.13,20.8,20.8,0,0,1-.35,3.13A5.23,5.23,0,0,1,135.81,156.78Z" style="fill:#263238"></path><path d="M152.39,215.08c.37.21,6.5-.05,9.07.2s15.57,8.3,16.36,9.15,3,3-.34,5.73c0,0,1.71,2.29.44,3.82s-4.28.09-4.28.09.54,2.74-1.19,3.07-13.36-6.58-13.36-6.58,7.64,5.55,6.54,6.84-2,1.52-3.2,1-7.58-5-7.58-5-1.7.89-6.82-1.12a15.34,15.34,0,0,1-7.27-5.63l-2.24-1.1a9,9,0,0,1,.73-9c2.87-4.21,10.59-2.59,10.59-2.59Z" style="fill:#ae7461"></path><path d="M159.41,225.5a10.7,10.7,0,0,1,2.3.91,56,56,0,0,1,10.2,6.17,10.52,10.52,0,0,1,1.87,1.62,12.8,12.8,0,0,1-2.08-1.32c-1.26-.85-3-2-5-3.21s-3.82-2.21-5.16-2.93A13,13,0,0,1,159.41,225.5Z" style="fill:#6f4439"></path><path d="M162.2,220.87a11.27,11.27,0,0,1,2.48.89,47,47,0,0,1,5.64,2.92,48.06,48.06,0,0,1,5.21,3.65,11.39,11.39,0,0,1,1.94,1.79,16.86,16.86,0,0,1-2.16-1.49c-1.31-.95-3.15-2.22-5.26-3.5s-4.08-2.31-5.52-3A16.46,16.46,0,0,1,162.2,220.87Z" style="fill:#6f4439"></path><path d="M155.94,229.39c0-.14.9,0,1.87.41s1.62,1,1.54,1.13-.83-.24-1.76-.66S155.9,229.53,155.94,229.39Z" style="fill:#6f4439"></path><path d="M150,213.71a10,10,0,0,1-1.26,0,28.83,28.83,0,0,0-3.4.36,9.61,9.61,0,0,0-4.61,1.73,10.09,10.09,0,0,0-3.22,5.05,15.48,15.48,0,0,0-.6,6.07,31,31,0,0,0,.81,5c.33,1.4.65,2.53.87,3.31a6.84,6.84,0,0,1,.3,1.23,5.84,5.84,0,0,1-.49-1.17c-.29-.76-.66-1.88-1-3.28a29,29,0,0,1-.93-5,15.61,15.61,0,0,1,.58-6.27,10.46,10.46,0,0,1,3.43-5.28,9.86,9.86,0,0,1,4.85-1.71,23.88,23.88,0,0,1,3.45-.2A4.45,4.45,0,0,1,150,213.71Z" style="fill:#263238"></path></g></svg>
